<svg width="316" height="299" viewBox="0 0 316 299" fill="none" xmlns="http://www.w3.org/2000/svg">
<path d="M232.439 11.3024L228.797 9.17475L229.227 8.42061L232.87 10.5482L232.018 6.36265L232.861 6.18705L233.867 11.1308L236.97 12.943L236.118 8.75737L236.961 8.58177L237.967 13.5255L240.087 14.7635L242.57 13.3135V10.2098L238.84 6.85647L239.412 6.20562L242.57 9.0447L242.57 5.42037L238.84 2.06704L239.412 1.41619L242.57 4.25527V0L243.43 2.78519e-07L243.43 4.25527L246.588 1.41619L247.16 2.06704L243.43 5.42037L243.43 9.0447L246.588 6.20562L247.16 6.85647L243.43 10.2098V13.3135L245.975 14.7995L248.463 13.3463L249.469 8.40256L250.312 8.57816L249.46 12.7638L252.563 10.9516L253.569 6.00784L254.412 6.18344L253.56 10.369L257.203 8.2414L257.634 8.99554L253.991 11.1232L258 12.4697L257.729 13.2961L252.993 11.7057L249.891 13.5179L253.9 14.8644L253.629 15.6909L248.893 14.1004L246.355 15.5831V18.4505L248.463 19.6818L253.198 18.0914L253.47 18.9179L249.46 20.2644L252.563 22.0766L257.298 20.4861L257.57 21.3126L253.561 22.6591L257.203 24.7867L256.773 25.5409L253.13 23.4133L253.982 27.5988L253.139 27.7744L252.133 22.8307L249.03 21.0185L249.882 25.2041L249.039 25.3797L248.033 20.436L245.913 19.198L243.43 20.648L243.43 23.7902L247.16 27.1435L246.588 27.7944L243.43 24.9553L243.43 28.5796L247.16 31.933L246.588 32.5838L243.43 29.7447V34L242.57 34L242.57 29.7447L239.412 32.5838L238.84 31.933L242.57 28.5796V24.9553L239.412 27.7944L238.84 27.1435L242.57 23.7902V20.648L240.025 19.162L237.537 20.6152L236.531 25.5589L235.688 25.3833L236.54 21.1977L233.437 23.0099L232.431 27.9537L231.588 27.7781L232.44 23.5925L228.797 25.7201L228.366 24.966L232.009 22.8383L228 21.4918L228.271 20.6654L233.007 22.2558L236.109 20.4436L232.1 19.0971L232.371 18.2706L237.107 19.861L239.645 18.3783V15.511L237.537 14.2797L232.802 15.8701L232.53 15.0436L236.54 13.6971L233.437 11.8849L228.702 13.4753L228.43 12.6489L232.439 11.3024Z" fill="white"/>
<path d="M5.91928 184.291L1.06213 181.413L1.636 180.393L6.49315 183.271L5.35736 177.608L6.48153 177.371L7.82305 184.059L11.9601 186.511L10.8243 180.848L11.9484 180.611L13.2899 187.299L16.116 188.974L19.4262 187.012V182.813L14.4539 178.276L15.2164 177.396L19.4262 181.237L19.4262 176.333L14.4539 171.797L15.2164 170.916L19.4262 174.757V169L20.5739 169L20.5739 174.757L24.7836 170.916L25.5462 171.797L20.5739 176.333L20.5739 181.237L24.7836 177.396L25.5462 178.276L20.5739 182.813V187.012L23.9663 189.023L27.2838 187.057L28.6253 180.368L29.7495 180.606L28.6137 186.269L32.7507 183.817L34.0922 177.128L35.2164 177.366L34.0806 183.029L38.9378 180.15L39.5116 181.17L34.6545 184.049L40 185.871L39.6384 186.989L33.3246 184.837L29.1876 187.289L34.5331 189.111L34.1715 190.229L27.8577 188.077L24.4729 190.083V193.962L27.2839 195.628L33.5977 193.477L33.9593 194.595L28.6138 196.417L32.7508 198.868L39.0646 196.717L39.4262 197.835L34.0807 199.656L38.9379 202.535L38.364 203.555L33.5068 200.677L34.6426 206.34L33.5185 206.577L32.1769 199.889L28.0399 197.437L29.1757 203.1L28.0516 203.337L26.71 196.649L23.884 194.974L20.5738 196.936L20.5738 201.187L25.5461 205.724L24.7836 206.604L20.5738 202.763L20.5738 207.667L25.5461 212.203L24.7836 213.084L20.5738 209.243V215L19.4261 215L19.4261 209.243L15.2164 213.084L14.4538 212.203L19.4261 207.667V202.763L15.2164 206.604L14.4538 205.724L19.4261 201.187V196.935L16.0337 194.925L12.7162 196.891L11.3747 203.58L10.2505 203.342L11.3863 197.679L7.24928 200.131L5.90777 206.82L4.7836 206.582L5.91938 200.919L1.06223 203.798L0.488362 202.777L5.34551 199.899L0 198.077L0.361648 196.959L6.67541 199.111L10.8124 196.659L5.4669 194.837L5.82854 193.719L12.1423 195.871L15.5271 193.865V189.986L12.716 188.32L6.40231 190.471L6.04066 189.353L11.3862 187.531L7.24917 185.08L0.935413 187.231L0.573766 186.113L5.91928 184.291Z" fill="white" fill-opacity="0.5"/>
<path d="M273.399 261.616L267.328 258.111L268.045 256.869L274.116 260.374L272.697 253.48L274.102 253.19L275.779 261.333L280.95 264.318L279.53 257.424L280.936 257.135L282.612 265.277L286.145 267.316L290.283 264.928V259.816L284.067 254.293L285.021 253.221L290.283 257.897L290.283 251.928L284.067 246.405L285.021 245.333L290.283 250.009V243L291.717 243L291.717 250.009L296.98 245.333L297.933 246.405L291.717 251.928L291.717 257.897L296.98 253.221L297.933 254.293L291.717 259.816V264.928L295.958 267.376L300.105 264.982L301.782 256.84L303.187 257.129L301.767 264.023L306.938 261.038L308.615 252.895L310.021 253.184L308.601 260.078L314.672 256.574L315.39 257.816L309.318 261.321L316 263.538L315.548 264.9L307.656 262.28L302.485 265.265L309.166 267.483L308.714 268.844L300.822 266.224L296.591 268.666V273.389L300.105 275.417L307.997 272.798L308.449 274.159L301.767 276.377L306.939 279.361L314.831 276.742L315.283 278.103L308.601 280.321L314.672 283.825L313.955 285.067L307.884 281.563L309.303 288.457L307.898 288.746L306.221 280.604L301.05 277.619L302.47 284.513L301.064 284.802L299.388 276.659L295.855 274.62L291.717 277.009L291.717 282.184L297.933 287.707L296.979 288.779L291.717 284.103L291.717 290.072L297.933 295.595L296.979 296.667L291.717 291.991V299L290.283 299L290.283 291.991L285.02 296.667L284.067 295.595L290.283 290.072V284.103L285.02 288.779L284.067 287.707L290.283 282.184V277.008L286.042 274.561L281.895 276.954L280.218 285.097L278.813 284.808L280.233 277.914L275.062 280.899L273.385 289.041L271.979 288.752L273.399 281.858L267.328 285.363L266.61 284.12L272.682 280.616L266 278.398L266.452 277.037L274.344 279.657L279.515 276.672L272.834 274.454L273.286 273.093L281.178 275.712L285.409 273.27V268.548L281.895 266.519L274.003 269.139L273.551 267.778L280.233 265.56L275.061 262.575L267.169 265.195L266.717 263.833L273.399 261.616Z" fill="white" fill-opacity="0.2"/>
<path d="M279 26L280.169 31.1769L283.057 29.9431L281.823 32.8306L287 34L281.823 35.1694L283.057 38.0569L280.169 36.8231L279 42L277.831 36.8231L274.943 38.0569L276.177 35.1694L271 34L276.177 32.8306L274.943 29.9431L277.831 31.1769L279 26Z" fill="#FFD332"/>
<path d="M9 69L9.87703 72.8827L12.0426 71.9574L11.1173 74.123L15 75L11.1173 75.877L12.0426 78.0426L9.87703 77.1173L9 81L8.12297 77.1173L5.95736 78.0426L6.88266 75.877L3 75L6.88266 74.123L5.95736 71.9574L8.12297 72.8827L9 69Z" fill="#FFD332"/>
</svg>
