<svg width="84" height="84" viewBox="0 0 84 84" fill="none" xmlns="http://www.w3.org/2000/svg">
<path d="M0 40.7836C0 38.9476 1.50432 37.4592 3.36 37.4592H80.64C82.4957 37.4592 84 38.9476 84 40.7836V80.6754C84 82.5114 82.4957 83.9998 80.64 83.9998H3.36C1.50433 83.9998 0 82.5114 0 80.6754V40.7836Z" fill="url(#paint0_linear_354_1928)"/>
<path d="M80.64 83.9998H3.36L42 54.0809L80.64 83.9998Z" fill="url(#paint1_linear_354_1928)"/>
<path d="M3.36 37.4592H80.64L42 67.3781L3.36 37.4592Z" fill="url(#paint2_linear_354_1928)"/>
<path d="M59.1504 27.4599C59.1504 36.7326 52.0276 44.2496 43.2413 44.2496C34.455 44.2496 27.3322 36.7326 27.3322 27.4599C27.3322 18.1871 34.455 10.6701 43.2413 10.6701C52.0276 10.6701 59.1504 18.1871 59.1504 27.4599Z" fill="#FEAE80"/>
<path d="M25.3153 26.6087C22.4557 20.9677 27.6097 18.0885 30.514 17.5743C29.6204 19.1608 31.1239 21.0999 34.2517 21.9813C35.5027 22.3339 36.7091 23.4503 37.156 23.9645C39.4794 26.785 41.9965 27.3432 42.9646 27.2697C44.7518 27.446 46.9859 25.5804 47.8796 24.6255C49.3231 23.0831 51.6775 22.3486 52.5711 21.9813C55.651 20.8796 56.1457 18.3823 56.3691 17.5743C61.1947 18.2794 61.5075 22.5689 61.0606 24.6255C64.099 28.68 60.9862 32.3378 59.05 33.6599C60.4798 40.006 55.3265 41.8863 52.5711 42.0332C51.1413 48.0267 45.571 46.8809 42.9646 45.5588C36.8879 47.6742 34.624 44.6774 34.2517 42.9146C28.5324 42.7383 27.8473 38.8749 28.2197 36.9651C22.6791 34.6735 23.9749 29.106 25.3153 26.6087Z" fill="white"/>
<path d="M55.6504 16.772H31.7868C32.6241 0.91552 53.3478 0.805406 63.6049 2.73241L61.5116 5.20999C55.8179 7.5224 55.2317 13.8815 55.6504 16.772Z" fill="#FA482C"/>
<path d="M35.4443 14.9463C38.8094 15.3341 46.5736 15.1476 50.1179 14.9463C52.6698 14.8283 54.442 14.8972 55.0092 14.9463C56.673 15.0906 56.9231 15.9527 56.9231 16.4559V17.6636C56.9231 19.259 46.4318 18.7707 42.2495 18.7204C40.3781 18.7204 34.5228 18.4184 31.8291 18.2675C29.9576 18.1467 29.7733 17.412 29.9151 17.0598L30.5531 15.7011C31.1536 14.2773 33.743 14.8457 35.4443 14.9463Z" fill="white"/>
<path d="M66.1504 3.76592C66.1504 5.84578 64.4409 7.53184 62.3322 7.53184C60.2235 7.53184 58.514 5.84578 58.514 3.76592C58.514 1.68606 60.2235 0 62.3322 0C64.4409 0 66.1504 1.68606 66.1504 3.76592Z" fill="white"/>
<path d="M46.1049 26.3615C46.1049 27.5747 44.8228 28.5582 43.2413 28.5582C41.6598 28.5582 40.3777 27.5747 40.3777 26.3615C40.3777 25.1482 41.6598 24.1647 43.2413 24.1647C44.8228 24.1647 46.1049 25.1482 46.1049 26.3615Z" fill="#FA482C"/>
<path d="M46.2717 19.7531C46.3553 19.4164 46.6998 19.2103 47.0412 19.2928L50.7498 20.1886C51.0911 20.2711 51.3001 20.6109 51.2165 20.9476C51.1329 21.2843 50.7884 21.4904 50.447 21.4079L46.7384 20.512C46.3971 20.4296 46.1881 20.0898 46.2717 19.7531Z" fill="white"/>
<path d="M55.9686 26.0476C55.9686 27.0876 54.2591 27.9306 52.1504 27.9306C50.0417 27.9306 48.3322 27.0876 48.3322 26.0476C48.3322 25.0077 50.0417 24.1647 52.1504 24.1647C54.2591 24.1647 55.9686 25.0077 55.9686 26.0476Z" fill="url(#paint3_radial_354_1928)"/>
<path d="M38.1504 26.0476C38.1504 27.0876 36.4409 27.9306 34.3322 27.9306C32.2235 27.9306 30.514 27.0876 30.514 26.0476C30.514 25.0077 32.2235 24.1647 34.3322 24.1647C36.4409 24.1647 38.1504 25.0077 38.1504 26.0476Z" fill="url(#paint4_radial_354_1928)"/>
<path d="M48.6504 22.5955C48.6504 23.2888 48.0806 23.8508 47.3777 23.8508C46.6748 23.8508 46.1049 23.2888 46.1049 22.5955C46.1049 21.9022 46.6748 21.3402 47.3777 21.3402C48.0806 21.3402 48.6504 21.9022 48.6504 22.5955Z" fill="#0C0C0C"/>
<path d="M40.3647 19.7531C40.2811 19.4164 39.9366 19.2103 39.5952 19.2928L35.8866 20.1886C35.5453 20.2711 35.3363 20.6109 35.4199 20.9476C35.5035 21.2843 35.848 21.4904 36.1894 21.4079L39.898 20.512C40.2393 20.4296 40.4483 20.0898 40.3647 19.7531Z" fill="white"/>
<path d="M37.986 22.5955C37.986 23.2888 38.5558 23.8508 39.2587 23.8508C39.9617 23.8508 40.5315 23.2888 40.5315 22.5955C40.5315 21.9022 39.9617 21.3402 39.2587 21.3402C38.5558 21.3402 37.986 21.9022 37.986 22.5955Z" fill="#0C0C0C"/>
<path fill-rule="evenodd" clip-rule="evenodd" d="M41.6504 29.6566C41.914 29.6566 42.1277 29.8674 42.1277 30.1274C42.1277 30.4681 42.5214 30.9119 43.2413 30.9119C43.9612 30.9119 44.3549 30.4681 44.3549 30.1274C44.3549 29.8674 44.5686 29.6566 44.8322 29.6566C45.0958 29.6566 45.3095 29.8674 45.3095 30.1274C45.3095 31.1732 44.2786 31.8534 43.2413 31.8534C42.204 31.8534 41.1731 31.1732 41.1731 30.1274C41.1731 29.8674 41.3868 29.6566 41.6504 29.6566Z" fill="black"/>
<defs>
<linearGradient id="paint0_linear_354_1928" x1="42" y1="37.4592" x2="42" y2="83.9998" gradientUnits="userSpaceOnUse">
<stop stop-color="#7781CB"/>
<stop offset="1" stop-color="#CEBEEB"/>
</linearGradient>
<linearGradient id="paint1_linear_354_1928" x1="42" y1="37.4592" x2="42" y2="83.9998" gradientUnits="userSpaceOnUse">
<stop stop-color="#E5C6F0"/>
<stop offset="1" stop-color="#9FA5E1"/>
</linearGradient>
<linearGradient id="paint2_linear_354_1928" x1="42" y1="37.4592" x2="42" y2="67.3781" gradientUnits="userSpaceOnUse">
<stop stop-color="#E5C6F0"/>
<stop offset="1" stop-color="#9FA5E1"/>
</linearGradient>
<radialGradient id="paint3_radial_354_1928" cx="0" cy="0" r="1" gradientUnits="userSpaceOnUse" gradientTransform="translate(45.1504 23.3081) rotate(90) scale(23.3081 21)">
<stop stop-color="#FF418A" stop-opacity="0.3"/>
<stop offset="0.495" stop-color="#FF418A" stop-opacity="0.15"/>
<stop offset="0.795" stop-color="#FF418A" stop-opacity="0.05"/>
<stop offset="1" stop-color="#FF418A" stop-opacity="0"/>
</radialGradient>
<radialGradient id="paint4_radial_354_1928" cx="0" cy="0" r="1" gradientUnits="userSpaceOnUse" gradientTransform="translate(45.1504 23.3081) rotate(90) scale(23.3081 21)">
<stop stop-color="#FF418A" stop-opacity="0.3"/>
<stop offset="0.495" stop-color="#FF418A" stop-opacity="0.15"/>
<stop offset="0.795" stop-color="#FF418A" stop-opacity="0.05"/>
<stop offset="1" stop-color="#FF418A" stop-opacity="0"/>
</radialGradient>
</defs>
</svg>
