<svg width="220" height="270" viewBox="0 0 220 270" fill="none" xmlns="http://www.w3.org/2000/svg">
<path d="M152.024 79.205C152.024 105.951 131.761 127.633 106.764 127.633C81.768 127.633 61.5044 105.951 61.5044 79.205C61.5044 52.4588 81.768 30.7768 106.764 30.7768C131.761 30.7768 152.024 52.4588 152.024 79.205Z" fill="#FEAE80"/>
<path d="M106.852 90.5538C53.1447 90.5538 42.2354 147.861 43.4942 176.514H200C195.636 96.4664 136.083 85.854 106.852 90.5538Z" fill="#FA482C"/>
<path d="M158.761 140.593C158.54 139.877 158.942 139.117 159.658 138.896C160.375 138.675 161.135 139.077 161.356 139.793L170.56 169.635L167.965 170.436L158.761 140.593Z" fill="#0C0C0C"/>
<path d="M18.96 70.7315C18.96 97.7229 38.4764 127.757 48.2346 139.401L73.272 101.692C48.6197 88.9903 37.7798 65.7182 38.4218 58.838L18.96 70.7315Z" fill="#FA482C"/>
<path d="M34.2432 25.0521C41.77 26.1303 40.3153 47.5637 38.6471 58.1456L16.3052 67.2902C10.9298 63.9597 5.74828 55.8715 3.82944 52.2437C-2.61729 38.5181 0.509627 29.6692 2.87893 26.9605C10.2556 18.8727 20.417 26.8818 24.5755 31.8972C28.4697 25.1396 32.6432 24.5181 34.2432 25.0521Z" fill="#FA482C"/>
<path d="M33.9814 55.7949C37.839 53.7207 39.7024 56.5659 40.8353 58.2009C41.4774 59.1277 42.6728 61.1715 43.6135 63.7385C43.9907 64.7678 43.9645 66.7898 43.7681 67.7423C43.1574 70.7046 36.7276 72.5796 33.7369 73.618C28.299 75.2772 22.16 76.6926 19.7702 77.1929C15.1779 78.1543 14.3653 75.1742 14.0561 74.0404L14.0528 74.0283C12.9366 69.9356 12.1233 68.3346 12.1373 66.6826C12.1614 63.818 17.8958 62.5177 20.562 61.4686L33.9814 55.7949Z" fill="white"/>
<path d="M55.7665 76.7499C47.6311 60.4791 62.2939 52.1742 70.5564 50.6912C68.0141 55.2674 72.2915 60.8604 81.1896 63.4027C84.7489 64.4197 88.181 67.6399 89.4521 69.1229C96.0621 77.2583 103.223 78.8685 105.977 78.6566C111.062 79.1651 117.418 73.7838 119.96 71.0297C124.067 66.5806 130.765 64.462 133.307 63.4027C142.069 60.2249 143.476 53.0216 144.112 50.6912C157.84 52.725 158.73 65.0976 157.459 71.0297C166.103 82.7243 157.247 93.2749 151.739 97.0883C155.806 115.393 141.146 120.817 133.307 121.24C129.239 138.528 113.392 135.223 105.977 131.41C88.6894 137.511 82.2489 128.867 81.1896 123.783C64.9188 123.274 62.9698 112.13 64.0291 106.622C48.2668 100.012 51.9531 83.9531 55.7665 76.7499Z" fill="white"/>
<path d="M142.067 48.3771H74.1772C76.5593 2.64072 135.516 2.32311 164.697 7.88135L158.742 15.0277C142.544 21.6976 140.876 40.0398 142.067 48.3771Z" fill="#FA482C"/>
<path d="M84.5826 43.1111C94.1561 44.2294 116.244 43.6917 126.328 43.1111C133.588 42.7707 138.63 42.9693 140.243 43.1111C144.976 43.5273 145.688 46.014 145.688 47.4654V50.9488C145.688 55.5506 115.841 54.142 103.943 53.9969C98.6188 53.9969 81.9609 53.126 74.2975 52.6906C68.9735 52.3422 68.4492 50.2231 68.8525 49.2071L70.6675 45.2883C72.376 41.1814 79.7426 42.8208 84.5826 43.1111Z" fill="white"/>
<path d="M171.939 10.8624C171.939 16.8615 167.076 21.7248 161.076 21.7248C155.077 21.7248 150.214 16.8615 150.214 10.8624C150.214 4.86326 155.077 0 161.076 0C167.076 0 171.939 4.86326 171.939 10.8624Z" fill="white"/>
<path d="M114.911 76.0368C114.911 79.5363 111.264 82.3732 106.764 82.3732C102.265 82.3732 98.6176 79.5363 98.6176 76.0368C98.6176 72.5373 102.265 69.7004 106.764 69.7004C111.264 69.7004 114.911 72.5373 114.911 76.0368Z" fill="#FA482C"/>
<path d="M115.386 56.9756C115.624 56.0045 116.604 55.41 117.575 55.6479L128.125 58.2319C129.097 58.4698 129.691 59.4499 129.453 60.421C129.215 61.3922 128.235 61.9866 127.264 61.7488L116.713 59.1647C115.742 58.9269 115.148 57.9468 115.386 56.9756Z" fill="white"/>
<path d="M142.972 75.1316C142.972 78.1312 138.109 80.5628 132.11 80.5628C126.111 80.5628 121.248 78.1312 121.248 75.1316C121.248 72.132 126.111 69.7004 132.11 69.7004C138.109 69.7004 142.972 72.132 142.972 75.1316Z" fill="url(#paint0_radial_92_252)"/>
<path d="M92.2812 75.1316C92.2812 78.1312 87.4179 80.5628 81.4188 80.5628C75.4197 80.5628 70.5564 78.1312 70.5564 75.1316C70.5564 72.132 75.4197 69.7004 81.4188 69.7004C87.4179 69.7004 92.2812 72.132 92.2812 75.1316Z" fill="url(#paint1_radial_92_252)"/>
<path d="M122.153 65.1744C122.153 67.1741 120.532 68.7952 118.532 68.7952C116.532 68.7952 114.911 67.1741 114.911 65.1744C114.911 63.1747 116.532 61.5536 118.532 61.5536C120.532 61.5536 122.153 63.1747 122.153 65.1744Z" fill="#0C0C0C"/>
<path d="M98.5804 56.9756C98.3426 56.0045 97.3625 55.41 96.3913 55.6479L85.8408 58.2319C84.8696 58.4698 84.2751 59.4499 84.513 60.421C84.7509 61.3922 85.7309 61.9866 86.7021 61.7488L97.2527 59.1647C98.2238 58.9269 98.8183 57.9468 98.5804 56.9756Z" fill="white"/>
<path d="M91.8133 65.1744C91.8133 67.1741 93.4344 68.7952 95.4341 68.7952C97.4339 68.7952 99.0549 67.1741 99.0549 65.1744C99.0549 63.1747 97.4339 61.5536 95.4341 61.5536C93.4344 61.5536 91.8133 63.1747 91.8133 65.1744Z" fill="#0C0C0C"/>
<path fill-rule="evenodd" clip-rule="evenodd" d="M102.238 85.5414C102.988 85.5414 103.596 86.1493 103.596 86.8992C103.596 87.8819 104.716 89.1622 106.764 89.1622C108.813 89.1622 109.933 87.8819 109.933 86.8992C109.933 86.1493 110.541 85.5414 111.29 85.5414C112.04 85.5414 112.648 86.1493 112.648 86.8992C112.648 89.9159 109.716 91.8778 106.764 91.8778C103.813 91.8778 100.881 89.9159 100.881 86.8992C100.881 86.1493 101.489 85.5414 102.238 85.5414Z" fill="black"/>
<path d="M0 155.786C0 150.934 3.93989 147 8.8 147H211.2C216.06 147 220 150.933 220 155.786V261.214C220 266.067 216.06 270 211.2 270H8.8C3.9399 270 0 266.067 0 261.214V155.786Z" fill="url(#paint2_linear_92_252)"/>
<path d="M211.2 270H8.8L110 190.929L211.2 270Z" fill="url(#paint3_linear_92_252)"/>
<path d="M8.8 147H211.2L110 226.071L8.8 147Z" fill="url(#paint4_linear_92_252)"/>
<defs>
<radialGradient id="paint0_radial_92_252" cx="0" cy="0" r="1" gradientUnits="userSpaceOnUse" gradientTransform="translate(100 88.257) rotate(90) scale(88.257 100)">
<stop stop-color="#FF418A" stop-opacity="0.3"/>
<stop offset="0.495" stop-color="#FF418A" stop-opacity="0.15"/>
<stop offset="0.795" stop-color="#FF418A" stop-opacity="0.05"/>
<stop offset="1" stop-color="#FF418A" stop-opacity="0"/>
</radialGradient>
<radialGradient id="paint1_radial_92_252" cx="0" cy="0" r="1" gradientUnits="userSpaceOnUse" gradientTransform="translate(100 88.257) rotate(90) scale(88.257 100)">
<stop stop-color="#FF418A" stop-opacity="0.3"/>
<stop offset="0.495" stop-color="#FF418A" stop-opacity="0.15"/>
<stop offset="0.795" stop-color="#FF418A" stop-opacity="0.05"/>
<stop offset="1" stop-color="#FF418A" stop-opacity="0"/>
</radialGradient>
<linearGradient id="paint2_linear_92_252" x1="110" y1="147" x2="110" y2="270" gradientUnits="userSpaceOnUse">
<stop stop-color="#7781CB"/>
<stop offset="1" stop-color="#CEBEEB"/>
</linearGradient>
<linearGradient id="paint3_linear_92_252" x1="110" y1="147" x2="110" y2="270" gradientUnits="userSpaceOnUse">
<stop stop-color="#E5C6F0"/>
<stop offset="1" stop-color="#9FA5E1"/>
</linearGradient>
<linearGradient id="paint4_linear_92_252" x1="110" y1="147" x2="110" y2="226.071" gradientUnits="userSpaceOnUse">
<stop stop-color="#E5C6F0"/>
<stop offset="1" stop-color="#9FA5E1"/>
</linearGradient>
</defs>
</svg>
