<svg width="150" height="150" viewBox="0 0 150 150" fill="none" xmlns="http://www.w3.org/2000/svg">
<path d="M67.3859 57.4539C71.3809 52.7764 78.619 52.7764 82.614 57.4539L147.588 133.528C153.127 140.013 148.511 150 139.974 150H10.0256C1.48875 150 -3.12749 140.013 2.41156 133.528L67.3859 57.4539Z" fill="#2D662F"/>
<path fill-rule="evenodd" clip-rule="evenodd" d="M16.6167 116.896L44.8417 83.8493L47.5636 84.5031L100.73 78.6653L147.588 133.528C149.468 135.729 150.178 138.334 149.962 140.814L149.809 140.947C146.632 141.496 144.274 139.431 141.233 136.767C139.851 135.557 138.328 134.223 136.523 132.955C129.129 127.76 125.548 126.733 120.349 127.96C110.182 130.357 103.404 126.961 101.286 124.963C93.892 116.971 88.3409 118.469 83.3786 121.966C70.9011 130.757 61.8318 128.459 60.2722 123.964C58.8858 119.968 55.9696 119.172 53.3402 120.967C44.5598 126.961 37.7434 124.463 34.8551 120.467C34.8551 120.467 33.6998 118.969 33.1221 118.469C29.3956 115.248 25.2274 115.639 23.8796 115.972C21.4406 116.458 18.9192 116.742 16.6167 116.896Z" fill="url(#paint0_linear_94_877)"/>
<path d="M67.3856 30.481C71.3806 25.8035 78.6187 25.8035 82.6136 30.481L130.257 86.2629C135.796 92.7482 131.179 102.735 122.643 102.735H27.3566C18.8198 102.735 14.2036 92.7482 19.7426 86.2629L67.3856 30.481Z" fill="#2D662F"/>
<path fill-rule="evenodd" clip-rule="evenodd" d="M37.0752 65.9702L53.2221 47.0649L68.847 45.5422L103.467 54.8961L130.257 86.263C130.599 86.6631 130.902 87.0766 131.168 87.5002H125.929C120.687 87.5002 111.95 87.0007 109.038 84.5032C106.822 82.6031 106.011 81.5062 105.417 80.7031C105.074 80.2395 104.804 79.8738 104.378 79.5082C104.378 79.5082 96.2231 70.5172 89.2335 76.5112C84.734 80.3698 81.9509 80.4258 79.7793 80.4695C79.4209 80.4767 79.0791 80.4836 78.749 80.5072C73.1573 80.5072 69.4295 76.5112 68.847 75.0127C68.847 75.0127 67.0996 71.0167 64.1873 73.0147C57.6377 77.508 51.1063 72.2866 49.043 70.5172L47.8781 69.5182C46.5018 68.338 44.4293 68.4779 42.528 68.6063C40.3579 68.7529 38.4107 68.8844 37.9761 67.0207C37.8239 66.3681 37.4993 66.0565 37.0752 65.9702Z" fill="url(#paint1_linear_94_877)"/>
<path d="M67.3867 3.50807C71.3817 -1.16935 78.6198 -1.16936 82.6148 3.50807L112.926 38.9979C118.465 45.4832 113.849 55.4698 105.312 55.4698H44.6891C36.1523 55.4698 31.5361 45.4832 37.0751 38.9979L67.3867 3.50807Z" fill="#2D662F"/>
<path fill-rule="evenodd" clip-rule="evenodd" d="M113.284 39.4405C113.075 39.4377 112.851 39.438 112.608 39.4384C112.524 39.4385 112.437 39.4386 112.348 39.4386C108.516 39.4386 107.488 39.153 107.488 39.153C107.488 39.153 103.22 38.442 103.22 35.452C103.22 32.9603 100.178 31.2283 100.178 31.2283C100.178 31.2283 98.961 30.4686 95.9919 31.2283C94.5615 31.5943 93.9167 32.2205 93.352 32.7689C92.5714 33.5271 91.9438 34.1367 89.6049 33.7047C87.9718 33.4031 87.4998 32.3701 86.9871 31.248C86.2345 29.6007 85.394 27.7612 80.6632 27.7612C72.4878 28.1574 68.5279 23.7989 67.2505 21.8177C64.87 18.1257 61.5022 17.0298 59.5861 16.8646C57.7505 16.6274 56.0522 17.5621 54.4365 18.6693L67.3857 3.50807C71.3806 -1.16935 78.6187 -1.16936 82.6137 3.50807L112.925 38.9979C113.05 39.1437 113.169 39.2913 113.284 39.4405Z" fill="url(#paint2_linear_94_877)"/>
<path d="M65.9948 34.5531C65.9948 36.76 64.2028 38.5491 61.9923 38.5491C59.7817 38.5491 57.9897 36.76 57.9897 34.5531C57.9897 32.3462 59.7817 30.5571 61.9923 30.5571C64.2028 30.5571 65.9948 32.3462 65.9948 34.5531Z" fill="#FA482C"/>
<path d="M47.9831 73.5141C47.9831 75.721 46.1911 77.5101 43.9805 77.5101C41.77 77.5101 39.978 75.721 39.978 73.5141C39.978 71.3071 41.77 69.5181 43.9805 69.5181C46.1911 69.5181 47.9831 71.3071 47.9831 73.5141Z" fill="#F3E13E"/>
<path d="M111.023 69.5182C111.023 71.7251 109.231 73.5142 107.02 73.5142C104.81 73.5142 103.018 71.7251 103.018 69.5182C103.018 67.3113 104.81 65.5222 107.02 65.5222C109.231 65.5222 111.023 67.3113 111.023 69.5182Z" fill="#2260FF"/>
<path d="M107.02 129.458C107.02 131.665 105.228 133.454 103.018 133.454C100.807 133.454 99.0151 131.665 99.0151 129.458C99.0151 127.251 100.807 125.462 103.018 125.462C105.228 125.462 107.02 127.251 107.02 129.458Z" fill="#5FDBF4"/>
<path d="M81.004 87.5001C81.004 89.7071 79.2121 91.4961 77.0015 91.4961C74.791 91.4961 72.999 89.7071 72.999 87.5001C72.999 85.2932 74.791 83.5042 77.0015 83.5042C79.2121 83.5042 81.004 85.2932 81.004 87.5001Z" fill="white"/>
<path d="M43.9806 117.47C43.9806 119.677 42.1886 121.466 39.9781 121.466C37.7676 121.466 35.9756 119.677 35.9756 117.47C35.9756 115.263 37.7676 113.474 39.9781 113.474C42.1886 113.474 43.9806 115.263 43.9806 117.47Z" fill="white"/>
<defs>
<linearGradient id="paint0_linear_94_877" x1="80.7794" y1="76.5112" x2="80.7794" y2="141.036" gradientUnits="userSpaceOnUse">
<stop stop-color="#D9D9D9"/>
<stop offset="1" stop-color="white" stop-opacity="0"/>
</linearGradient>
<linearGradient id="paint1_linear_94_877" x1="76.7103" y1="45.5422" x2="66.447" y2="88.3218" gradientUnits="userSpaceOnUse">
<stop stop-color="white"/>
<stop offset="1" stop-color="white" stop-opacity="0"/>
</linearGradient>
<linearGradient id="paint2_linear_94_877" x1="94.2649" y1="-7.50712" x2="94.2649" y2="45.4398" gradientUnits="userSpaceOnUse">
<stop stop-color="white"/>
<stop offset="1" stop-color="white" stop-opacity="0"/>
</linearGradient>
</defs>
</svg>
