<svg width="375" height="812" viewBox="0 0 375 812" fill="none" xmlns="http://www.w3.org/2000/svg">
<g clip-path="url(#clip0_326_2352)">
<rect width="375" height="812" fill="#B9311D"/>
<path fill-rule="evenodd" clip-rule="evenodd" d="M101.865 0.649584C102.802 0.0649418 104.035 0.350713 104.62 1.28787C111.415 12.1799 120.806 40.9706 104.671 69.9873L104.657 70.0136L104.641 70.0395C98.1166 80.9839 89.0129 109.405 104.63 135.255C111.425 146.261 120.792 175.388 104.68 204.995L104.662 205.028L104.643 205.06C98.1137 216.062 89.0133 244.557 104.633 270.283C104.733 270.447 104.806 270.621 104.854 270.797C111.626 281.967 120.621 310.431 104.671 339.116L104.657 339.143L104.641 339.169C98.1166 350.113 89.0129 378.534 104.63 404.384C111.425 415.39 120.792 444.517 104.68 474.124L104.662 474.157L104.643 474.189C98.1137 485.191 89.0133 513.686 104.633 539.412C104.732 539.575 104.805 539.747 104.853 539.923C111.625 551.091 120.622 579.557 104.671 608.243L104.657 608.27L104.641 608.296C98.1166 619.24 89.0129 647.661 104.63 673.511C111.425 684.517 120.792 713.644 104.68 743.251L104.662 743.284L104.643 743.316C98.1137 754.318 89.0133 782.813 104.633 808.539C105.206 809.483 104.905 810.713 103.961 811.287C103.017 811.86 101.787 811.559 101.214 810.615C84.5413 783.155 94.2532 753.011 101.184 741.307C116.403 713.307 107.491 685.752 101.222 675.605L101.217 675.596L101.212 675.588C84.5407 648.003 94.2544 617.928 101.19 606.274C116.396 578.899 107.496 551.712 101.226 541.661C101.118 541.488 101.04 541.304 100.99 541.117C84.6288 513.756 94.2844 483.831 101.184 472.18C116.403 444.18 107.491 416.625 101.222 406.478L101.217 406.469L101.212 406.461C84.5407 378.876 94.2544 348.801 101.19 337.147C116.396 309.772 107.496 282.585 101.226 272.534C101.117 272.36 101.039 272.175 100.989 271.986C84.6292 244.626 94.2846 214.702 101.184 203.051C116.403 175.051 107.491 147.496 101.222 137.348L101.217 137.34L101.212 137.332C84.5407 109.747 94.2544 79.6719 101.19 68.0177C116.396 40.6428 107.496 13.4557 101.226 3.40505C100.642 2.46789 100.927 1.23423 101.865 0.649584Z" fill="white" fill-opacity="0.07"/>
<path fill-rule="evenodd" clip-rule="evenodd" d="M15.8646 0.649584C16.8018 0.0649418 18.0355 0.350713 18.6201 1.28787C25.415 12.1799 34.8055 40.9706 18.6712 69.9873L18.6565 70.0136L18.6411 70.0395C12.1166 80.9839 3.01287 109.405 18.6302 135.255C25.4251 146.261 34.7925 175.388 18.6799 204.995L18.6621 205.028L18.6431 205.06C12.1137 216.062 3.01333 244.557 18.6328 270.283C18.7327 270.447 18.806 270.621 18.854 270.797C25.6263 281.967 34.6211 310.431 18.6712 339.116L18.6565 339.143L18.6411 339.169C12.1166 350.113 3.01287 378.534 18.6302 404.384C25.4251 415.39 34.7925 444.517 18.6799 474.124L18.6621 474.157L18.6431 474.189C12.1137 485.191 3.01333 513.686 18.6328 539.412C18.7319 539.575 18.8049 539.747 18.853 539.923C25.6254 551.091 34.622 579.557 18.6712 608.243L18.6565 608.27L18.6411 608.296C12.1166 619.24 3.01287 647.661 18.6302 673.511C25.4251 684.517 34.7925 713.644 18.6799 743.251L18.6621 743.284L18.6431 743.316C12.1137 754.318 3.01333 782.813 18.6328 808.539C19.206 809.483 18.9053 810.713 17.9612 811.287C17.017 811.86 15.7869 811.559 15.2136 810.615C-1.45865 783.155 8.25319 753.011 15.1839 741.307C30.4034 713.307 21.491 685.752 15.2218 675.605L15.2166 675.596L15.2115 675.588C-1.45929 648.003 8.25435 617.928 15.1896 606.274C30.396 578.899 21.4964 551.712 15.2263 541.661C15.1182 541.488 15.0398 541.304 14.9899 541.117C-1.37119 513.756 8.28442 483.831 15.1839 472.18C30.4034 444.18 21.491 416.625 15.2218 406.478L15.2166 406.469L15.2115 406.461C-1.45929 378.876 8.25435 348.801 15.1896 337.147C30.396 309.772 21.4964 282.585 15.2263 272.534C15.1174 272.36 15.0388 272.175 14.9888 271.986C-1.37078 244.626 8.28456 214.702 15.1839 203.051C30.4034 175.051 21.491 147.496 15.2218 137.348L15.2166 137.34L15.2115 137.332C-1.45929 109.747 8.25435 79.6719 15.1896 68.0177C30.396 40.6428 21.4964 13.4557 15.2263 3.40505C14.6417 2.46789 14.9275 1.23423 15.8646 0.649584Z" fill="white" fill-opacity="0.07"/>
<path fill-rule="evenodd" clip-rule="evenodd" d="M144.072 1.82268C145.009 1.23804 146.242 1.52381 146.827 2.46097C153.622 13.353 163.013 42.1437 146.878 71.1604L146.864 71.1867L146.848 71.2126C140.324 82.157 131.22 110.578 146.837 136.428C153.632 147.434 163 176.561 146.887 206.168L146.869 206.201L146.85 206.233C140.321 217.235 131.22 245.73 146.84 271.456C146.939 271.62 147.013 271.793 147.061 271.969C153.833 283.139 162.828 311.603 146.878 340.289L146.864 340.315L146.848 340.341C140.324 351.286 131.22 379.707 146.837 405.557C153.632 416.562 163 445.689 146.887 475.297L146.869 475.329L146.85 475.361C140.321 486.364 131.22 514.858 146.84 540.585C146.939 540.749 147.013 540.921 147.061 541.098C153.833 552.267 162.828 580.732 146.878 609.417L146.864 609.444L146.848 609.47C140.324 620.414 131.22 648.835 146.837 674.685C153.632 685.691 163 714.818 146.887 744.425L146.869 744.458L146.85 744.49C140.321 755.492 131.22 783.987 146.84 809.713C147.413 810.657 147.112 811.887 146.168 812.461C145.224 813.034 143.994 812.733 143.421 811.789C126.748 784.329 136.46 754.185 143.391 742.481C158.61 714.481 149.698 686.926 143.429 676.779L143.424 676.77L143.419 676.762C126.748 649.177 136.461 619.102 143.397 607.448C158.603 580.073 149.703 552.886 143.433 542.835C143.325 542.661 143.246 542.477 143.196 542.288C126.836 514.928 136.492 485.004 143.391 473.353C158.61 445.353 149.698 417.797 143.429 407.65L143.424 407.642L143.419 407.633C126.748 380.049 136.461 349.974 143.397 338.319C158.603 310.944 149.703 283.757 143.433 273.707C143.325 273.532 143.246 273.348 143.196 273.159C126.836 245.799 136.492 215.875 143.391 204.224C158.61 176.224 149.698 148.669 143.429 138.522L143.424 138.513L143.419 138.505C126.748 110.92 136.461 80.845 143.397 69.1908C158.603 41.8158 149.703 14.6287 143.433 4.57814C142.849 3.64098 143.135 2.40732 144.072 1.82268Z" fill="white" fill-opacity="0.07"/>
<path fill-rule="evenodd" clip-rule="evenodd" d="M229.865 0.649584C230.802 0.0649418 232.035 0.350713 232.62 1.28787C239.415 12.1799 248.806 40.9706 232.671 69.9873L232.657 70.0136L232.641 70.0395C226.117 80.9839 217.013 109.405 232.63 135.255C239.425 146.261 248.792 175.388 232.68 204.995L232.662 205.028L232.643 205.06C226.114 216.062 217.013 244.557 232.633 270.283C232.733 270.447 232.806 270.621 232.854 270.797C239.626 281.967 248.621 310.431 232.671 339.116L232.657 339.143L232.641 339.169C226.117 350.113 217.013 378.534 232.63 404.384C239.425 415.39 248.792 444.517 232.68 474.124L232.662 474.157L232.643 474.189C226.114 485.191 217.013 513.686 232.633 539.412C232.732 539.575 232.805 539.747 232.853 539.923C239.625 551.091 248.622 579.557 232.671 608.243L232.657 608.27L232.641 608.296C226.117 619.24 217.013 647.661 232.63 673.511C239.425 684.517 248.792 713.644 232.68 743.251L232.662 743.284L232.643 743.316C226.114 754.318 217.013 782.813 232.633 808.539C233.206 809.483 232.905 810.713 231.961 811.287C231.017 811.86 229.787 811.559 229.214 810.615C212.541 783.155 222.253 753.011 229.184 741.307C244.403 713.307 235.491 685.752 229.222 675.605L229.217 675.596L229.212 675.588C212.541 648.003 222.254 617.928 229.19 606.274C244.396 578.899 235.496 551.712 229.226 541.661C229.118 541.488 229.04 541.304 228.99 541.117C212.629 513.756 222.284 483.831 229.184 472.18C244.403 444.18 235.491 416.625 229.222 406.478L229.217 406.469L229.212 406.461C212.541 378.876 222.254 348.801 229.19 337.147C244.396 309.772 235.496 282.585 229.226 272.534C229.117 272.36 229.039 272.175 228.989 271.986C212.629 244.626 222.285 214.702 229.184 203.051C244.403 175.051 235.491 147.496 229.222 137.348L229.217 137.34L229.212 137.332C212.541 109.747 222.254 79.6719 229.19 68.0177C244.396 40.6428 235.496 13.4557 229.226 3.40505C228.642 2.46789 228.927 1.23423 229.865 0.649584Z" fill="white" fill-opacity="0.07"/>
<path fill-rule="evenodd" clip-rule="evenodd" d="M272.072 1.82268C273.009 1.23804 274.242 1.52381 274.827 2.46097C281.622 13.353 291.013 42.1437 274.878 71.1604L274.864 71.1867L274.848 71.2126C268.324 82.157 259.22 110.578 274.837 136.428C281.632 147.434 291 176.561 274.887 206.168L274.869 206.201L274.85 206.233C268.321 217.235 259.22 245.73 274.84 271.456C274.939 271.62 275.013 271.793 275.061 271.969C281.833 283.139 290.828 311.603 274.878 340.289L274.864 340.315L274.848 340.341C268.324 351.286 259.22 379.707 274.837 405.557C281.632 416.562 291 445.689 274.887 475.297L274.869 475.329L274.85 475.361C268.321 486.364 259.22 514.858 274.84 540.585C274.939 540.749 275.013 540.921 275.061 541.098C281.833 552.267 290.828 580.732 274.878 609.417L274.864 609.444L274.848 609.47C268.324 620.414 259.22 648.835 274.837 674.685C281.632 685.691 291 714.818 274.887 744.425L274.869 744.458L274.85 744.49C268.321 755.492 259.22 783.987 274.84 809.713C275.413 810.657 275.112 811.887 274.168 812.461C273.224 813.034 271.994 812.733 271.421 811.789C254.748 784.329 264.46 754.185 271.391 742.481C286.61 714.481 277.698 686.926 271.429 676.779L271.424 676.77L271.419 676.762C254.748 649.177 264.461 619.102 271.397 607.448C286.603 580.073 277.703 552.886 271.433 542.835C271.325 542.661 271.246 542.477 271.196 542.288C254.836 514.928 264.492 485.004 271.391 473.353C286.61 445.353 277.698 417.797 271.429 407.65L271.424 407.642L271.419 407.633C254.748 380.049 264.461 349.974 271.397 338.319C286.603 310.944 277.703 283.757 271.433 273.707C271.325 273.532 271.246 273.348 271.196 273.159C254.836 245.799 264.492 215.875 271.391 204.224C286.61 176.224 277.698 148.669 271.429 138.522L271.424 138.513L271.419 138.505C254.748 110.92 264.461 80.845 271.397 69.1908C286.603 41.8158 277.703 14.6287 271.433 4.57814C270.849 3.64098 271.135 2.40732 272.072 1.82268Z" fill="white" fill-opacity="0.07"/>
<path fill-rule="evenodd" clip-rule="evenodd" d="M358.072 1.82268C359.009 1.23804 360.242 1.52381 360.827 2.46097C367.622 13.353 377.013 42.1437 360.878 71.1604L360.864 71.1867L360.848 71.2126C354.324 82.157 345.22 110.578 360.837 136.428C367.632 147.434 377 176.561 360.887 206.168L360.869 206.201L360.85 206.233C354.321 217.235 345.22 245.73 360.84 271.456C360.939 271.62 361.013 271.793 361.061 271.969C367.833 283.139 376.828 311.603 360.878 340.289L360.864 340.315L360.848 340.341C354.324 351.286 345.22 379.707 360.837 405.557C367.632 416.562 377 445.689 360.887 475.297L360.869 475.329L360.85 475.361C354.321 486.364 345.22 514.858 360.84 540.585C360.939 540.749 361.013 540.921 361.061 541.098C367.833 552.267 376.828 580.732 360.878 609.417L360.864 609.444L360.848 609.47C354.324 620.414 345.22 648.835 360.837 674.685C367.632 685.691 377 714.818 360.887 744.425L360.869 744.458L360.85 744.49C354.321 755.492 345.22 783.987 360.84 809.713C361.413 810.657 361.112 811.887 360.168 812.461C359.224 813.034 357.994 812.733 357.421 811.789C340.748 784.329 350.46 754.185 357.391 742.481C372.61 714.481 363.698 686.926 357.429 676.779L357.424 676.77L357.419 676.762C340.748 649.177 350.461 619.102 357.397 607.448C372.603 580.073 363.703 552.886 357.433 542.835C357.325 542.661 357.246 542.477 357.196 542.288C340.836 514.928 350.492 485.004 357.391 473.353C372.61 445.353 363.698 417.797 357.429 407.65L357.424 407.642L357.419 407.633C340.748 380.049 350.461 349.974 357.397 338.319C372.603 310.944 363.703 283.757 357.433 273.707C357.325 273.532 357.246 273.348 357.196 273.159C340.836 245.799 350.492 215.875 357.391 204.224C372.61 176.224 363.698 148.669 357.429 138.522L357.424 138.513L357.419 138.505C340.748 110.92 350.461 80.845 357.397 69.1908C372.603 41.8158 363.703 14.6287 357.433 4.57814C356.849 3.64098 357.135 2.40732 358.072 1.82268Z" fill="white" fill-opacity="0.07"/>
<path d="M66 52.8104L64.55 51.2854C62.8667 49.5062 61.475 47.9714 60.375 46.681C59.275 45.3905 58.4 44.2321 57.75 43.2056C57.1 42.1792 56.6458 41.2358 56.3875 40.3755C56.1292 39.5152 56 38.6354 56 37.736C56 35.8982 56.525 34.3633 57.575 33.1316C58.625 31.8998 59.9333 31.2839 61.5 31.2839C62.3667 31.2839 63.1917 31.499 63.975 31.9291C64.7583 32.3593 65.4333 32.9654 66 33.7475C66.5667 32.9654 67.2417 32.3593 68.025 31.9291C68.8083 31.499 69.6333 31.2839 70.5 31.2839C72.0667 31.2839 73.375 31.8998 74.425 33.1316C75.475 34.3633 76 35.8982 76 37.736C76 38.6354 75.8708 39.5152 75.6125 40.3755C75.3542 41.2358 74.9 42.1792 74.25 43.2056C73.6 44.2321 72.725 45.3905 71.625 46.681C70.525 47.9714 69.1333 49.5062 67.45 51.2854L66 52.8104Z" fill="white" fill-opacity="0.07"/>
<path d="M66 186.545L64.55 185.02C62.8667 183.24 61.475 181.705 60.375 180.415C59.275 179.125 58.4 177.966 57.75 176.94C57.1 175.913 56.6458 174.97 56.3875 174.11C56.1292 173.249 56 172.37 56 171.47C56 169.632 56.525 168.097 57.575 166.866C58.625 165.634 59.9333 165.018 61.5 165.018C62.3667 165.018 63.1917 165.233 63.975 165.663C64.7583 166.093 65.4333 166.7 66 167.482C66.5667 166.7 67.2417 166.093 68.025 165.663C68.8083 165.233 69.6333 165.018 70.5 165.018C72.0667 165.018 73.375 165.634 74.425 166.866C75.475 168.097 76 169.632 76 171.47C76 172.37 75.8708 173.249 75.6125 174.11C75.3542 174.97 74.9 175.913 74.25 176.94C73.6 177.966 72.725 179.125 71.625 180.415C70.525 181.705 69.1333 183.24 67.45 185.02L66 186.545Z" fill="white" fill-opacity="0.07"/>
<path d="M66 320.279L64.55 318.754C62.8667 316.974 61.475 315.44 60.375 314.149C59.275 312.859 58.4 311.7 57.75 310.674C57.1 309.647 56.6458 308.704 56.3875 307.844C56.1292 306.983 56 306.104 56 305.204C56 303.366 56.525 301.832 57.575 300.6C58.625 299.368 59.9333 298.752 61.5 298.752C62.3667 298.752 63.1917 298.967 63.975 299.397C64.7583 299.828 65.4333 300.434 66 301.216C66.5667 300.434 67.2417 299.828 68.025 299.397C68.8083 298.967 69.6333 298.752 70.5 298.752C72.0667 298.752 73.375 299.368 74.425 300.6C75.475 301.832 76 303.366 76 305.204C76 306.104 75.8708 306.983 75.6125 307.844C75.3542 308.704 74.9 309.647 74.25 310.674C73.6 311.7 72.725 312.859 71.625 314.149C70.525 315.44 69.1333 316.974 67.45 318.754L66 320.279Z" fill="white" fill-opacity="0.07"/>
<path d="M66 454.013L64.55 452.488C62.8667 450.708 61.475 449.174 60.375 447.883C59.275 446.593 58.4 445.434 57.75 444.408C57.1 443.381 56.6458 442.438 56.3875 441.578C56.1292 440.717 56 439.838 56 438.938C56 437.1 56.525 435.565 57.575 434.334C58.625 433.102 59.9333 432.486 61.5 432.486C62.3667 432.486 63.1917 432.701 63.975 433.131C64.7583 433.561 65.4333 434.168 66 434.95C66.5667 434.168 67.2417 433.561 68.025 433.131C68.8083 432.701 69.6333 432.486 70.5 432.486C72.0667 432.486 73.375 433.102 74.425 434.334C75.475 435.565 76 437.1 76 438.938C76 439.838 75.8708 440.717 75.6125 441.578C75.3542 442.438 74.9 443.381 74.25 444.408C73.6 445.434 72.725 446.593 71.625 447.883C70.525 449.174 69.1333 450.708 67.45 452.488L66 454.013Z" fill="white" fill-opacity="0.07"/>
<path d="M66 587.747L64.55 586.222C62.8667 584.442 61.475 582.908 60.375 581.617C59.275 580.327 58.4 579.168 57.75 578.142C57.1 577.115 56.6458 576.172 56.3875 575.312C56.1292 574.452 56 573.572 56 572.672C56 570.834 56.525 569.3 57.575 568.068C58.625 566.836 59.9333 566.22 61.5 566.22C62.3667 566.22 63.1917 566.435 63.975 566.865C64.7583 567.296 65.4333 567.902 66 568.684C66.5667 567.902 67.2417 567.296 68.025 566.865C68.8083 566.435 69.6333 566.22 70.5 566.22C72.0667 566.22 73.375 566.836 74.425 568.068C75.475 569.3 76 570.834 76 572.672C76 573.572 75.8708 574.452 75.6125 575.312C75.3542 576.172 74.9 577.115 74.25 578.142C73.6 579.168 72.725 580.327 71.625 581.617C70.525 582.908 69.1333 584.442 67.45 586.222L66 587.747Z" fill="white" fill-opacity="0.07"/>
<path d="M66 721.481L64.55 719.956C62.8667 718.177 61.475 716.642 60.375 715.351C59.275 714.061 58.4 712.903 57.75 711.876C57.1 710.85 56.6458 709.906 56.3875 709.046C56.1292 708.186 56 707.306 56 706.406C56 704.569 56.525 703.034 57.575 701.802C58.625 700.57 59.9333 699.954 61.5 699.954C62.3667 699.954 63.1917 700.169 63.975 700.6C64.7583 701.03 65.4333 701.636 66 702.418C66.5667 701.636 67.2417 701.03 68.025 700.6C68.8083 700.169 69.6333 699.954 70.5 699.954C72.0667 699.954 73.375 700.57 74.425 701.802C75.475 703.034 76 704.569 76 706.406C76 707.306 75.8708 708.186 75.6125 709.046C75.3542 709.906 74.9 710.85 74.25 711.876C73.6 712.903 72.725 714.061 71.625 715.351C70.525 716.642 69.1333 718.177 67.45 719.956L66 721.481Z" fill="white" fill-opacity="0.07"/>
<path d="M194 52.8104L192.55 51.2854C190.867 49.5062 189.475 47.9714 188.375 46.681C187.275 45.3905 186.4 44.2321 185.75 43.2056C185.1 42.1792 184.646 41.2358 184.388 40.3755C184.129 39.5152 184 38.6354 184 37.736C184 35.8982 184.525 34.3633 185.575 33.1316C186.625 31.8998 187.933 31.2839 189.5 31.2839C190.367 31.2839 191.192 31.499 191.975 31.9291C192.758 32.3593 193.433 32.9654 194 33.7475C194.567 32.9654 195.242 32.3593 196.025 31.9291C196.808 31.499 197.633 31.2839 198.5 31.2839C200.067 31.2839 201.375 31.8998 202.425 33.1316C203.475 34.3633 204 35.8982 204 37.736C204 38.6354 203.871 39.5152 203.613 40.3755C203.354 41.2358 202.9 42.1792 202.25 43.2056C201.6 44.2321 200.725 45.3905 199.625 46.681C198.525 47.9714 197.133 49.5062 195.45 51.2854L194 52.8104Z" fill="white" fill-opacity="0.07"/>
<path d="M194 186.545L192.55 185.02C190.867 183.24 189.475 181.705 188.375 180.415C187.275 179.125 186.4 177.966 185.75 176.94C185.1 175.913 184.646 174.97 184.388 174.11C184.129 173.249 184 172.37 184 171.47C184 169.632 184.525 168.097 185.575 166.866C186.625 165.634 187.933 165.018 189.5 165.018C190.367 165.018 191.192 165.233 191.975 165.663C192.758 166.093 193.433 166.7 194 167.482C194.567 166.7 195.242 166.093 196.025 165.663C196.808 165.233 197.633 165.018 198.5 165.018C200.067 165.018 201.375 165.634 202.425 166.866C203.475 168.097 204 169.632 204 171.47C204 172.37 203.871 173.249 203.613 174.11C203.354 174.97 202.9 175.913 202.25 176.94C201.6 177.966 200.725 179.125 199.625 180.415C198.525 181.705 197.133 183.24 195.45 185.02L194 186.545Z" fill="white" fill-opacity="0.07"/>
<path d="M194 320.279L192.55 318.754C190.867 316.974 189.475 315.44 188.375 314.149C187.275 312.859 186.4 311.7 185.75 310.674C185.1 309.647 184.646 308.704 184.388 307.844C184.129 306.983 184 306.104 184 305.204C184 303.366 184.525 301.832 185.575 300.6C186.625 299.368 187.933 298.752 189.5 298.752C190.367 298.752 191.192 298.967 191.975 299.397C192.758 299.828 193.433 300.434 194 301.216C194.567 300.434 195.242 299.828 196.025 299.397C196.808 298.967 197.633 298.752 198.5 298.752C200.067 298.752 201.375 299.368 202.425 300.6C203.475 301.832 204 303.366 204 305.204C204 306.104 203.871 306.983 203.613 307.844C203.354 308.704 202.9 309.647 202.25 310.674C201.6 311.7 200.725 312.859 199.625 314.149C198.525 315.44 197.133 316.974 195.45 318.754L194 320.279Z" fill="white" fill-opacity="0.07"/>
<path d="M194 454.013L192.55 452.488C190.867 450.708 189.475 449.174 188.375 447.883C187.275 446.593 186.4 445.434 185.75 444.408C185.1 443.381 184.646 442.438 184.388 441.578C184.129 440.717 184 439.838 184 438.938C184 437.1 184.525 435.565 185.575 434.334C186.625 433.102 187.933 432.486 189.5 432.486C190.367 432.486 191.192 432.701 191.975 433.131C192.758 433.561 193.433 434.168 194 434.95C194.567 434.168 195.242 433.561 196.025 433.131C196.808 432.701 197.633 432.486 198.5 432.486C200.067 432.486 201.375 433.102 202.425 434.334C203.475 435.565 204 437.1 204 438.938C204 439.838 203.871 440.717 203.613 441.578C203.354 442.438 202.9 443.381 202.25 444.408C201.6 445.434 200.725 446.593 199.625 447.883C198.525 449.174 197.133 450.708 195.45 452.488L194 454.013Z" fill="white" fill-opacity="0.07"/>
<path d="M194 587.747L192.55 586.222C190.867 584.442 189.475 582.908 188.375 581.617C187.275 580.327 186.4 579.168 185.75 578.142C185.1 577.115 184.646 576.172 184.388 575.312C184.129 574.452 184 573.572 184 572.672C184 570.834 184.525 569.3 185.575 568.068C186.625 566.836 187.933 566.22 189.5 566.22C190.367 566.22 191.192 566.435 191.975 566.865C192.758 567.296 193.433 567.902 194 568.684C194.567 567.902 195.242 567.296 196.025 566.865C196.808 566.435 197.633 566.22 198.5 566.22C200.067 566.22 201.375 566.836 202.425 568.068C203.475 569.3 204 570.834 204 572.672C204 573.572 203.871 574.452 203.613 575.312C203.354 576.172 202.9 577.115 202.25 578.142C201.6 579.168 200.725 580.327 199.625 581.617C198.525 582.908 197.133 584.442 195.45 586.222L194 587.747Z" fill="white" fill-opacity="0.07"/>
<path d="M194 721.481L192.55 719.956C190.867 718.177 189.475 716.642 188.375 715.351C187.275 714.061 186.4 712.903 185.75 711.876C185.1 710.85 184.646 709.906 184.388 709.046C184.129 708.186 184 707.306 184 706.406C184 704.569 184.525 703.034 185.575 701.802C186.625 700.57 187.933 699.954 189.5 699.954C190.367 699.954 191.192 700.169 191.975 700.6C192.758 701.03 193.433 701.636 194 702.418C194.567 701.636 195.242 701.03 196.025 700.6C196.808 700.169 197.633 699.954 198.5 699.954C200.067 699.954 201.375 700.57 202.425 701.802C203.475 703.034 204 704.569 204 706.406C204 707.306 203.871 708.186 203.613 709.046C203.354 709.906 202.9 710.85 202.25 711.876C201.6 712.903 200.725 714.061 199.625 715.351C198.525 716.642 197.133 718.177 195.45 719.956L194 721.481Z" fill="white" fill-opacity="0.07"/>
<path d="M322 52.8104L320.55 51.2854C318.867 49.5062 317.475 47.9714 316.375 46.681C315.275 45.3905 314.4 44.2321 313.75 43.2056C313.1 42.1792 312.646 41.2358 312.388 40.3755C312.129 39.5152 312 38.6354 312 37.736C312 35.8982 312.525 34.3633 313.575 33.1316C314.625 31.8998 315.933 31.2839 317.5 31.2839C318.367 31.2839 319.192 31.499 319.975 31.9291C320.758 32.3593 321.433 32.9654 322 33.7475C322.567 32.9654 323.242 32.3593 324.025 31.9291C324.808 31.499 325.633 31.2839 326.5 31.2839C328.067 31.2839 329.375 31.8998 330.425 33.1316C331.475 34.3633 332 35.8982 332 37.736C332 38.6354 331.871 39.5152 331.613 40.3755C331.354 41.2358 330.9 42.1792 330.25 43.2056C329.6 44.2321 328.725 45.3905 327.625 46.681C326.525 47.9714 325.133 49.5062 323.45 51.2854L322 52.8104Z" fill="white" fill-opacity="0.07"/>
<path d="M322 186.545L320.55 185.02C318.867 183.24 317.475 181.705 316.375 180.415C315.275 179.125 314.4 177.966 313.75 176.94C313.1 175.913 312.646 174.97 312.388 174.11C312.129 173.249 312 172.37 312 171.47C312 169.632 312.525 168.097 313.575 166.866C314.625 165.634 315.933 165.018 317.5 165.018C318.367 165.018 319.192 165.233 319.975 165.663C320.758 166.093 321.433 166.7 322 167.482C322.567 166.7 323.242 166.093 324.025 165.663C324.808 165.233 325.633 165.018 326.5 165.018C328.067 165.018 329.375 165.634 330.425 166.866C331.475 168.097 332 169.632 332 171.47C332 172.37 331.871 173.249 331.613 174.11C331.354 174.97 330.9 175.913 330.25 176.94C329.6 177.966 328.725 179.125 327.625 180.415C326.525 181.705 325.133 183.24 323.45 185.02L322 186.545Z" fill="white" fill-opacity="0.07"/>
<path d="M322 320.279L320.55 318.754C318.867 316.974 317.475 315.44 316.375 314.149C315.275 312.859 314.4 311.7 313.75 310.674C313.1 309.647 312.646 308.704 312.388 307.844C312.129 306.983 312 306.104 312 305.204C312 303.366 312.525 301.832 313.575 300.6C314.625 299.368 315.933 298.752 317.5 298.752C318.367 298.752 319.192 298.967 319.975 299.397C320.758 299.828 321.433 300.434 322 301.216C322.567 300.434 323.242 299.828 324.025 299.397C324.808 298.967 325.633 298.752 326.5 298.752C328.067 298.752 329.375 299.368 330.425 300.6C331.475 301.832 332 303.366 332 305.204C332 306.104 331.871 306.983 331.613 307.844C331.354 308.704 330.9 309.647 330.25 310.674C329.6 311.7 328.725 312.859 327.625 314.149C326.525 315.44 325.133 316.974 323.45 318.754L322 320.279Z" fill="white" fill-opacity="0.07"/>
<path d="M322 454.013L320.55 452.488C318.867 450.708 317.475 449.174 316.375 447.883C315.275 446.593 314.4 445.434 313.75 444.408C313.1 443.381 312.646 442.438 312.388 441.578C312.129 440.717 312 439.838 312 438.938C312 437.1 312.525 435.565 313.575 434.334C314.625 433.102 315.933 432.486 317.5 432.486C318.367 432.486 319.192 432.701 319.975 433.131C320.758 433.561 321.433 434.168 322 434.95C322.567 434.168 323.242 433.561 324.025 433.131C324.808 432.701 325.633 432.486 326.5 432.486C328.067 432.486 329.375 433.102 330.425 434.334C331.475 435.565 332 437.1 332 438.938C332 439.838 331.871 440.717 331.613 441.578C331.354 442.438 330.9 443.381 330.25 444.408C329.6 445.434 328.725 446.593 327.625 447.883C326.525 449.174 325.133 450.708 323.45 452.488L322 454.013Z" fill="white" fill-opacity="0.07"/>
<path d="M322 587.747L320.55 586.222C318.867 584.442 317.475 582.908 316.375 581.617C315.275 580.327 314.4 579.168 313.75 578.142C313.1 577.115 312.646 576.172 312.388 575.312C312.129 574.452 312 573.572 312 572.672C312 570.834 312.525 569.3 313.575 568.068C314.625 566.836 315.933 566.22 317.5 566.22C318.367 566.22 319.192 566.435 319.975 566.865C320.758 567.296 321.433 567.902 322 568.684C322.567 567.902 323.242 567.296 324.025 566.865C324.808 566.435 325.633 566.22 326.5 566.22C328.067 566.22 329.375 566.836 330.425 568.068C331.475 569.3 332 570.834 332 572.672C332 573.572 331.871 574.452 331.613 575.312C331.354 576.172 330.9 577.115 330.25 578.142C329.6 579.168 328.725 580.327 327.625 581.617C326.525 582.908 325.133 584.442 323.45 586.222L322 587.747Z" fill="white" fill-opacity="0.07"/>
<path d="M322 721.481L320.55 719.956C318.867 718.177 317.475 716.642 316.375 715.351C315.275 714.061 314.4 712.903 313.75 711.876C313.1 710.85 312.646 709.906 312.388 709.046C312.129 708.186 312 707.306 312 706.406C312 704.569 312.525 703.034 313.575 701.802C314.625 700.57 315.933 699.954 317.5 699.954C318.367 699.954 319.192 700.169 319.975 700.6C320.758 701.03 321.433 701.636 322 702.418C322.567 701.636 323.242 701.03 324.025 700.6C324.808 700.169 325.633 699.954 326.5 699.954C328.067 699.954 329.375 700.57 330.425 701.802C331.475 703.034 332 704.569 332 706.406C332 707.306 331.871 708.186 331.613 709.046C331.354 709.906 330.9 710.85 330.25 711.876C329.6 712.903 328.725 714.061 327.625 715.351C326.525 716.642 325.133 718.177 323.45 719.956L322 721.481Z" fill="white" fill-opacity="0.07"/>
</g>
<defs>
<clipPath id="clip0_326_2352">
<rect width="375" height="812" fill="white"/>
</clipPath>
</defs>
</svg>
