<svg width="375" height="812" viewBox="0 0 375 812" fill="none" xmlns="http://www.w3.org/2000/svg">
<g clip-path="url(#clip0_326_2473)">
<rect width="375" height="812" fill="#246037"/>
<rect x="54" width="2" height="812" fill="#DB6E75" fill-opacity="0.3"/>
<rect x="11" width="2" height="812" fill="#DB6E75" fill-opacity="0.3"/>
<rect x="68" width="2" height="812" fill="#DB6E75" fill-opacity="0.3"/>
<rect x="112" width="2" height="812" fill="#DB6E75" fill-opacity="0.3"/>
<rect x="126" width="2" height="812" fill="#DB6E75" fill-opacity="0.3"/>
<rect x="90" width="1" height="812" fill="white" fill-opacity="0.05"/>
<rect x="170" width="2" height="812" fill="#DB6E75" fill-opacity="0.3"/>
<rect x="184" width="2" height="812" fill="#DB6E75" fill-opacity="0.3"/>
<rect x="148" width="1" height="812" fill="white" fill-opacity="0.05"/>
<rect x="228" width="2" height="812" fill="#DB6E75" fill-opacity="0.3"/>
<rect x="242" width="2" height="812" fill="#DB6E75" fill-opacity="0.3"/>
<rect x="206" width="1" height="812" fill="white" fill-opacity="0.05"/>
<rect x="286" width="2" height="812" fill="#DB6E75" fill-opacity="0.3"/>
<rect x="300" width="2" height="812" fill="#DB6E75" fill-opacity="0.3"/>
<rect x="264" width="1" height="812" fill="white" fill-opacity="0.05"/>
<rect x="344" width="2" height="812" fill="#DB6E75" fill-opacity="0.3"/>
<rect x="358" width="2" height="812" fill="#DB6E75" fill-opacity="0.3"/>
<rect x="322" width="1" height="812" fill="white" fill-opacity="0.05"/>
<rect x="33" width="1" height="812" fill="white" fill-opacity="0.05"/>
<rect x="1" y="57.4971" width="1.1734" height="374" transform="rotate(-90 1 57.4971)" fill="white" fill-opacity="0.05"/>
<rect y="32.8555" width="2.3468" height="375" transform="rotate(-90 0 32.8555)" fill="#DB6E75" fill-opacity="0.3"/>
<rect y="16.4277" width="2.3468" height="375" transform="rotate(-90 0 16.4277)" fill="#DB6E75" fill-opacity="0.3"/>
<rect x="1" y="124.382" width="1.1734" height="374" transform="rotate(-90 1 124.382)" fill="white" fill-opacity="0.05"/>
<rect y="99.74" width="2.3468" height="375" transform="rotate(-90 0 99.74)" fill="#DB6E75" fill-opacity="0.3"/>
<rect y="83.3123" width="2.3468" height="375" transform="rotate(-90 0 83.3123)" fill="#DB6E75" fill-opacity="0.3"/>
<rect x="1" y="191.266" width="1.1734" height="374" transform="rotate(-90 1 191.266)" fill="white" fill-opacity="0.05"/>
<rect y="166.624" width="2.3468" height="375" transform="rotate(-90 0 166.624)" fill="#DB6E75" fill-opacity="0.3"/>
<rect y="150.197" width="2.3468" height="375" transform="rotate(-90 0 150.197)" fill="#DB6E75" fill-opacity="0.3"/>
<rect x="1" y="258.15" width="1.1734" height="374" transform="rotate(-90 1 258.15)" fill="white" fill-opacity="0.05"/>
<rect y="233.509" width="2.3468" height="375" transform="rotate(-90 0 233.509)" fill="#DB6E75" fill-opacity="0.3"/>
<rect y="217.081" width="2.3468" height="375" transform="rotate(-90 0 217.081)" fill="#DB6E75" fill-opacity="0.3"/>
<rect x="1" y="325.035" width="1.1734" height="374" transform="rotate(-90 1 325.035)" fill="white" fill-opacity="0.05"/>
<rect y="300.393" width="2.3468" height="375" transform="rotate(-90 0 300.393)" fill="#DB6E75" fill-opacity="0.3"/>
<rect y="283.965" width="2.3468" height="375" transform="rotate(-90 0 283.965)" fill="#DB6E75" fill-opacity="0.3"/>
<rect x="1" y="391.919" width="1.1734" height="374" transform="rotate(-90 1 391.919)" fill="white" fill-opacity="0.05"/>
<rect y="367.277" width="2.3468" height="375" transform="rotate(-90 0 367.277)" fill="#DB6E75" fill-opacity="0.3"/>
<rect y="350.85" width="2.3468" height="375" transform="rotate(-90 0 350.85)" fill="#DB6E75" fill-opacity="0.3"/>
<rect x="1" y="458.803" width="1.1734" height="374" transform="rotate(-90 1 458.803)" fill="white" fill-opacity="0.05"/>
<rect y="434.162" width="2.3468" height="375" transform="rotate(-90 0 434.162)" fill="#DB6E75" fill-opacity="0.3"/>
<rect y="417.734" width="2.3468" height="375" transform="rotate(-90 0 417.734)" fill="#DB6E75" fill-opacity="0.3"/>
<rect x="1" y="525.688" width="1.1734" height="374" transform="rotate(-90 1 525.688)" fill="white" fill-opacity="0.05"/>
<rect y="501.046" width="2.3468" height="375" transform="rotate(-90 0 501.046)" fill="#DB6E75" fill-opacity="0.3"/>
<rect y="484.618" width="2.3468" height="375" transform="rotate(-90 0 484.618)" fill="#DB6E75" fill-opacity="0.3"/>
<rect x="1" y="592.572" width="1.1734" height="374" transform="rotate(-90 1 592.572)" fill="white" fill-opacity="0.05"/>
<rect y="567.931" width="2.3468" height="375" transform="rotate(-90 0 567.931)" fill="#DB6E75" fill-opacity="0.3"/>
<rect y="551.503" width="2.3468" height="375" transform="rotate(-90 0 551.503)" fill="#DB6E75" fill-opacity="0.3"/>
<rect x="1" y="659.457" width="1.1734" height="374" transform="rotate(-90 1 659.457)" fill="white" fill-opacity="0.05"/>
<rect y="634.815" width="2.3468" height="375" transform="rotate(-90 0 634.815)" fill="#DB6E75" fill-opacity="0.3"/>
<rect y="618.387" width="2.3468" height="375" transform="rotate(-90 0 618.387)" fill="#DB6E75" fill-opacity="0.3"/>
<rect x="1" y="726.341" width="1.1734" height="374" transform="rotate(-90 1 726.341)" fill="white" fill-opacity="0.05"/>
<rect y="701.699" width="2.3468" height="375" transform="rotate(-90 0 701.699)" fill="#DB6E75" fill-opacity="0.3"/>
<rect y="685.272" width="2.3468" height="375" transform="rotate(-90 0 685.272)" fill="#DB6E75" fill-opacity="0.3"/>
<rect x="1" y="793.226" width="1.1734" height="374" transform="rotate(-90 1 793.226)" fill="white" fill-opacity="0.05"/>
<rect y="768.584" width="2.3468" height="375" transform="rotate(-90 0 768.584)" fill="#DB6E75" fill-opacity="0.3"/>
<rect y="752.156" width="2.3468" height="375" transform="rotate(-90 0 752.156)" fill="#DB6E75" fill-opacity="0.3"/>
</g>
<defs>
<clipPath id="clip0_326_2473">
<rect width="375" height="812" fill="white"/>
</clipPath>
</defs>
</svg>
