<svg width="375" height="812" viewBox="0 0 375 812" fill="none" xmlns="http://www.w3.org/2000/svg">
<g clip-path="url(#clip0_326_1589)">
<rect width="375" height="812" fill="#014B4A"/>
<rect x="18" width="8" height="812" fill="white" fill-opacity="0.05"/>
<rect x="45" width="8" height="812" fill="white" fill-opacity="0.05"/>
<line x1="38.5" x2="38.5" y2="812" stroke="white" stroke-opacity="0.05" stroke-dasharray="4 4"/>
<rect x="79" width="8" height="812" fill="white" fill-opacity="0.05"/>
<rect x="106" width="8" height="812" fill="white" fill-opacity="0.05"/>
<line x1="99.5" x2="99.5" y2="812" stroke="white" stroke-opacity="0.05" stroke-dasharray="4 4"/>
<rect x="140" width="8" height="812" fill="white" fill-opacity="0.05"/>
<rect x="167" width="8" height="812" fill="white" fill-opacity="0.05"/>
<line x1="160.5" x2="160.5" y2="812" stroke="white" stroke-opacity="0.05" stroke-dasharray="4 4"/>
<rect x="201" width="8" height="812" fill="white" fill-opacity="0.05"/>
<rect x="228" width="8" height="812" fill="white" fill-opacity="0.05"/>
<line x1="221.5" x2="221.5" y2="812" stroke="white" stroke-opacity="0.05" stroke-dasharray="4 4"/>
<rect x="262" width="8" height="812" fill="white" fill-opacity="0.05"/>
<rect x="289" width="8" height="812" fill="white" fill-opacity="0.05"/>
<line x1="282.5" x2="282.5" y2="812" stroke="white" stroke-opacity="0.05" stroke-dasharray="4 4"/>
<rect x="323" width="8" height="812" fill="white" fill-opacity="0.05"/>
<rect x="350" width="8" height="812" fill="white" fill-opacity="0.05"/>
<line x1="343.5" x2="343.5" y2="812" stroke="white" stroke-opacity="0.05" stroke-dasharray="4 4"/>
<rect x="375" width="8.00002" height="375" transform="rotate(90 375 0)" fill="white" fill-opacity="0.05"/>
<rect x="375" y="27" width="8.00002" height="375" transform="rotate(90 375 27)" fill="white" fill-opacity="0.05"/>
<rect x="375" y="68" width="30" height="375" transform="rotate(90 375 68)" fill="white" fill-opacity="0.05"/>
<line x1="375" y1="20.5" x2="-2.04897e-08" y2="20.5" stroke="white" stroke-opacity="0.05" stroke-dasharray="4 4"/>
<rect x="375" y="131" width="8.00002" height="375" transform="rotate(90 375 131)" fill="white" fill-opacity="0.05"/>
<rect x="375" y="158" width="8.00002" height="375" transform="rotate(90 375 158)" fill="white" fill-opacity="0.05"/>
<line x1="375" y1="151.5" x2="-2.04897e-08" y2="151.5" stroke="white" stroke-opacity="0.05" stroke-dasharray="4 4"/>
<line x1="375" y1="61.5" x2="-2.04897e-08" y2="61.5" stroke="white" stroke-opacity="0.05" stroke-dasharray="4 4"/>
<line x1="375" y1="105.5" x2="-2.04897e-08" y2="105.5" stroke="white" stroke-opacity="0.05" stroke-dasharray="4 4"/>
<rect x="375" width="8.00002" height="375" transform="rotate(90 375 0)" fill="white" fill-opacity="0.05"/>
<rect x="375" y="27" width="8.00002" height="375" transform="rotate(90 375 27)" fill="white" fill-opacity="0.05"/>
<rect x="375" y="68" width="30" height="375" transform="rotate(90 375 68)" fill="white" fill-opacity="0.05"/>
<line x1="375" y1="20.5" x2="-2.04897e-08" y2="20.5" stroke="white" stroke-opacity="0.05" stroke-dasharray="4 4"/>
<rect x="375" y="131" width="8.00002" height="375" transform="rotate(90 375 131)" fill="white" fill-opacity="0.05"/>
<rect x="375" y="158" width="8.00002" height="375" transform="rotate(90 375 158)" fill="white" fill-opacity="0.05"/>
<line x1="375" y1="151.5" x2="-2.04897e-08" y2="151.5" stroke="white" stroke-opacity="0.05" stroke-dasharray="4 4"/>
<line x1="375" y1="61.5" x2="-2.04897e-08" y2="61.5" stroke="white" stroke-opacity="0.05" stroke-dasharray="4 4"/>
<line x1="375" y1="105.5" x2="-2.04897e-08" y2="105.5" stroke="white" stroke-opacity="0.05" stroke-dasharray="4 4"/>
<rect x="375" y="199" width="30" height="375" transform="rotate(90 375 199)" fill="white" fill-opacity="0.05"/>
<rect x="375" y="262" width="8.00002" height="375" transform="rotate(90 375 262)" fill="white" fill-opacity="0.05"/>
<rect x="375" y="289" width="8.00002" height="375" transform="rotate(90 375 289)" fill="white" fill-opacity="0.05"/>
<line x1="375" y1="282.5" x2="-2.04897e-08" y2="282.5" stroke="white" stroke-opacity="0.05" stroke-dasharray="4 4"/>
<line x1="375" y1="192.5" x2="-2.04897e-08" y2="192.5" stroke="white" stroke-opacity="0.05" stroke-dasharray="4 4"/>
<line x1="375" y1="236.5" x2="-2.04897e-08" y2="236.5" stroke="white" stroke-opacity="0.05" stroke-dasharray="4 4"/>
<rect x="375" y="199" width="30" height="375" transform="rotate(90 375 199)" fill="white" fill-opacity="0.05"/>
<rect x="375" y="262" width="8.00002" height="375" transform="rotate(90 375 262)" fill="white" fill-opacity="0.05"/>
<rect x="375" y="289" width="8.00002" height="375" transform="rotate(90 375 289)" fill="white" fill-opacity="0.05"/>
<line x1="375" y1="282.5" x2="-2.04897e-08" y2="282.5" stroke="white" stroke-opacity="0.05" stroke-dasharray="4 4"/>
<line x1="375" y1="192.5" x2="-2.04897e-08" y2="192.5" stroke="white" stroke-opacity="0.05" stroke-dasharray="4 4"/>
<line x1="375" y1="236.5" x2="-2.04897e-08" y2="236.5" stroke="white" stroke-opacity="0.05" stroke-dasharray="4 4"/>
<rect x="375" y="330" width="30" height="375" transform="rotate(90 375 330)" fill="white" fill-opacity="0.05"/>
<rect x="375" y="393" width="8.00002" height="375" transform="rotate(90 375 393)" fill="white" fill-opacity="0.05"/>
<rect x="375" y="420" width="8.00002" height="375" transform="rotate(90 375 420)" fill="white" fill-opacity="0.05"/>
<line x1="375" y1="413.5" x2="-2.04897e-08" y2="413.5" stroke="white" stroke-opacity="0.05" stroke-dasharray="4 4"/>
<line x1="375" y1="323.5" x2="-2.04897e-08" y2="323.5" stroke="white" stroke-opacity="0.05" stroke-dasharray="4 4"/>
<line x1="375" y1="367.5" x2="-2.04897e-08" y2="367.5" stroke="white" stroke-opacity="0.05" stroke-dasharray="4 4"/>
<rect x="375" y="330" width="30" height="375" transform="rotate(90 375 330)" fill="white" fill-opacity="0.05"/>
<rect x="375" y="393" width="8.00002" height="375" transform="rotate(90 375 393)" fill="white" fill-opacity="0.05"/>
<rect x="375" y="420" width="8.00002" height="375" transform="rotate(90 375 420)" fill="white" fill-opacity="0.05"/>
<line x1="375" y1="413.5" x2="-2.04897e-08" y2="413.5" stroke="white" stroke-opacity="0.05" stroke-dasharray="4 4"/>
<line x1="375" y1="323.5" x2="-2.04897e-08" y2="323.5" stroke="white" stroke-opacity="0.05" stroke-dasharray="4 4"/>
<line x1="375" y1="367.5" x2="-2.04897e-08" y2="367.5" stroke="white" stroke-opacity="0.05" stroke-dasharray="4 4"/>
<rect x="375" y="461" width="30" height="375" transform="rotate(90 375 461)" fill="white" fill-opacity="0.05"/>
<rect x="375" y="524" width="8.00002" height="375" transform="rotate(90 375 524)" fill="white" fill-opacity="0.05"/>
<rect x="375" y="551" width="8.00002" height="375" transform="rotate(90 375 551)" fill="white" fill-opacity="0.05"/>
<line x1="375" y1="544.5" x2="-2.04897e-08" y2="544.5" stroke="white" stroke-opacity="0.05" stroke-dasharray="4 4"/>
<line x1="375" y1="454.5" x2="-2.04897e-08" y2="454.5" stroke="white" stroke-opacity="0.05" stroke-dasharray="4 4"/>
<line x1="375" y1="498.5" x2="-2.04897e-08" y2="498.5" stroke="white" stroke-opacity="0.05" stroke-dasharray="4 4"/>
<rect x="375" y="461" width="30" height="375" transform="rotate(90 375 461)" fill="white" fill-opacity="0.05"/>
<rect x="375" y="524" width="8.00002" height="375" transform="rotate(90 375 524)" fill="white" fill-opacity="0.05"/>
<rect x="375" y="551" width="8.00002" height="375" transform="rotate(90 375 551)" fill="white" fill-opacity="0.05"/>
<line x1="375" y1="544.5" x2="-2.04897e-08" y2="544.5" stroke="white" stroke-opacity="0.05" stroke-dasharray="4 4"/>
<line x1="375" y1="454.5" x2="-2.04897e-08" y2="454.5" stroke="white" stroke-opacity="0.05" stroke-dasharray="4 4"/>
<line x1="375" y1="498.5" x2="-2.04897e-08" y2="498.5" stroke="white" stroke-opacity="0.05" stroke-dasharray="4 4"/>
<rect x="375" y="592" width="30" height="375" transform="rotate(90 375 592)" fill="white" fill-opacity="0.05"/>
<rect x="375" y="655" width="8.00002" height="375" transform="rotate(90 375 655)" fill="white" fill-opacity="0.05"/>
<rect x="375" y="682" width="8.00002" height="375" transform="rotate(90 375 682)" fill="white" fill-opacity="0.05"/>
<line x1="375" y1="675.5" x2="-2.04897e-08" y2="675.5" stroke="white" stroke-opacity="0.05" stroke-dasharray="4 4"/>
<line x1="375" y1="585.5" x2="-2.04897e-08" y2="585.5" stroke="white" stroke-opacity="0.05" stroke-dasharray="4 4"/>
<line x1="375" y1="629.5" x2="-2.04897e-08" y2="629.5" stroke="white" stroke-opacity="0.05" stroke-dasharray="4 4"/>
<rect x="375" y="592" width="30" height="375" transform="rotate(90 375 592)" fill="white" fill-opacity="0.05"/>
<rect x="375" y="655" width="8.00002" height="375" transform="rotate(90 375 655)" fill="white" fill-opacity="0.05"/>
<rect x="375" y="682" width="8.00002" height="375" transform="rotate(90 375 682)" fill="white" fill-opacity="0.05"/>
<line x1="375" y1="675.5" x2="-2.04897e-08" y2="675.5" stroke="white" stroke-opacity="0.05" stroke-dasharray="4 4"/>
<line x1="375" y1="585.5" x2="-2.04897e-08" y2="585.5" stroke="white" stroke-opacity="0.05" stroke-dasharray="4 4"/>
<line x1="375" y1="629.5" x2="-2.04897e-08" y2="629.5" stroke="white" stroke-opacity="0.05" stroke-dasharray="4 4"/>
<rect x="375" y="723" width="30" height="375" transform="rotate(90 375 723)" fill="white" fill-opacity="0.05"/>
<rect x="375" y="786" width="8.00002" height="375" transform="rotate(90 375 786)" fill="white" fill-opacity="0.05"/>
<line x1="375" y1="806.5" x2="-2.04897e-08" y2="806.5" stroke="white" stroke-opacity="0.05" stroke-dasharray="4 4"/>
<line x1="375" y1="716.5" x2="-2.04897e-08" y2="716.5" stroke="white" stroke-opacity="0.05" stroke-dasharray="4 4"/>
<line x1="375" y1="760.5" x2="-2.04897e-08" y2="760.5" stroke="white" stroke-opacity="0.05" stroke-dasharray="4 4"/>
<rect x="375" y="723" width="30" height="375" transform="rotate(90 375 723)" fill="white" fill-opacity="0.05"/>
<rect x="375" y="786" width="8.00002" height="375" transform="rotate(90 375 786)" fill="white" fill-opacity="0.05"/>
<line x1="375" y1="806.5" x2="-2.04897e-08" y2="806.5" stroke="white" stroke-opacity="0.05" stroke-dasharray="4 4"/>
<line x1="375" y1="716.5" x2="-2.04897e-08" y2="716.5" stroke="white" stroke-opacity="0.05" stroke-dasharray="4 4"/>
<line x1="375" y1="760.5" x2="-2.04897e-08" y2="760.5" stroke="white" stroke-opacity="0.05" stroke-dasharray="4 4"/>
</g>
<defs>
<clipPath id="clip0_326_1589">
<rect width="375" height="812" fill="white"/>
</clipPath>
</defs>
</svg>
