<svg width="375" height="812" viewBox="0 0 375 812" fill="none" xmlns="http://www.w3.org/2000/svg">
<g clip-path="url(#clip0_326_1736)">
<rect width="375" height="812" fill="#3E211B"/>
<rect width="375" height="812" fill="#213F1F"/>
<mask id="mask0_326_1736" style="mask-type:alpha" maskUnits="userSpaceOnUse" x="0" y="0" width="375" height="811">
<rect width="375" height="810.827" fill="#144B34"/>
</mask>
<g mask="url(#mask0_326_1736)">
<line y1="-2" x2="1013.85" y2="-2" transform="matrix(0.648627 0.761106 -0.648627 0.761106 210.105 -404.827)" stroke="#552A24" stroke-width="4"/>
<line y1="-2" x2="1013.85" y2="-2" transform="matrix(0.648627 0.761106 -0.648627 0.761106 204.449 -398.189)" stroke="#552A24" stroke-width="4"/>
<line y1="-2" x2="1013.85" y2="-2" transform="matrix(0.648627 0.761106 -0.648627 0.761106 198.793 -391.551)" stroke="#552A24" stroke-width="4"/>
<line y1="-2" x2="1013.85" y2="-2" transform="matrix(0.648627 0.761106 -0.648627 0.761106 193.135 -384.913)" stroke="#552A24" stroke-width="4"/>
<line y1="-2" x2="1013.85" y2="-2" transform="matrix(0.648627 0.761106 -0.648627 0.761106 187.479 -378.275)" stroke="#552A24" stroke-width="4"/>
<line y1="-2" x2="1013.85" y2="-2" transform="matrix(0.648627 0.761106 -0.648627 0.761106 181.822 -371.638)" stroke="#552A24" stroke-width="4"/>
<line y1="-2" x2="1013.85" y2="-2" transform="matrix(0.648627 0.761106 -0.648627 0.761106 176.164 -365)" stroke="#552A24" stroke-width="4"/>
<line y1="-2" x2="1013.85" y2="-2" transform="matrix(0.648627 0.761106 -0.648627 0.761106 170.508 -358.362)" stroke="#552A24" stroke-width="4"/>
<line y1="-2" x2="1013.85" y2="-2" transform="matrix(0.648627 0.761106 -0.648627 0.761106 164.852 -351.724)" stroke="#552A24" stroke-width="4"/>
<line y1="-2" x2="1013.85" y2="-2" transform="matrix(0.648627 0.761106 -0.648627 0.761106 159.195 -345.086)" stroke="#552A24" stroke-width="4"/>
<line y1="-2" x2="1013.85" y2="-2" transform="matrix(0.648627 0.761106 -0.648627 0.761106 153.537 -338.448)" stroke="#552A24" stroke-width="4"/>
<line y1="-2" x2="1013.85" y2="-2" transform="matrix(0.648627 0.761106 -0.648627 0.761106 147.881 -331.811)" stroke="#552A24" stroke-width="4"/>
<line y1="-2" x2="1013.85" y2="-2" transform="matrix(0.648627 0.761106 -0.648627 0.761106 142.225 -325.173)" stroke="#552A24" stroke-width="4"/>
<line y1="-2" x2="1013.85" y2="-2" transform="matrix(0.648627 0.761106 -0.648627 0.761106 136.566 -318.535)" stroke="#552A24" stroke-width="4"/>
<line y1="-2" x2="1013.85" y2="-2" transform="matrix(0.648627 0.761106 -0.648627 0.761106 130.91 -311.897)" stroke="#552A24" stroke-width="4"/>
<line y1="-2" x2="1013.85" y2="-2" transform="matrix(0.648627 0.761106 -0.648627 0.761106 125.254 -305.26)" stroke="#552A24" stroke-width="4"/>
<line y1="-2" x2="1013.85" y2="-2" transform="matrix(0.648627 0.761106 -0.648627 0.761106 119.596 -298.622)" stroke="#552A24" stroke-width="4"/>
<line y1="-2" x2="1013.85" y2="-2" transform="matrix(0.648627 0.761106 -0.648627 0.761106 113.939 -291.984)" stroke="#552A24" stroke-width="4"/>
<line y1="-2" x2="1013.85" y2="-2" transform="matrix(0.648627 0.761106 -0.648627 0.761106 108.283 -285.346)" stroke="#552A24" stroke-width="4"/>
<line y1="-2" x2="1013.85" y2="-2" transform="matrix(0.648627 0.761106 -0.648627 0.761106 102.625 -278.708)" stroke="#552A24" stroke-width="4"/>
<line y1="-2" x2="1013.85" y2="-2" transform="matrix(0.648627 0.761106 -0.648627 0.761106 96.9688 -272.07)" stroke="#552A24" stroke-width="4"/>
<line y1="-2" x2="1013.85" y2="-2" transform="matrix(0.648627 0.761106 -0.648627 0.761106 91.3125 -265.433)" stroke="#552A24" stroke-width="4"/>
<line y1="-2" x2="1013.85" y2="-2" transform="matrix(0.648627 0.761106 -0.648627 0.761106 85.6562 -258.795)" stroke="#552A24" stroke-width="4"/>
<line y1="-2" x2="1013.85" y2="-2" transform="matrix(0.648627 0.761106 -0.648627 0.761106 79.998 -252.157)" stroke="#552A24" stroke-width="4"/>
<line y1="-2" x2="1013.85" y2="-2" transform="matrix(0.648627 0.761106 -0.648627 0.761106 74.3418 -245.519)" stroke="#552A24" stroke-width="4"/>
<line y1="-2" x2="1013.85" y2="-2" transform="matrix(0.648627 0.761106 -0.648627 0.761106 68.6855 -238.881)" stroke="#552A24" stroke-width="4"/>
<line y1="-2" x2="1013.85" y2="-2" transform="matrix(0.648627 0.761106 -0.648627 0.761106 63.0273 -232.244)" stroke="#552A24" stroke-width="4"/>
<line y1="-2" x2="1013.85" y2="-2" transform="matrix(0.648627 0.761106 -0.648627 0.761106 57.3711 -225.606)" stroke="#552A24" stroke-width="4"/>
<line y1="-2" x2="1013.85" y2="-2" transform="matrix(0.648627 0.761106 -0.648627 0.761106 51.7148 -218.968)" stroke="#552A24" stroke-width="4"/>
<line y1="-2" x2="1013.85" y2="-2" transform="matrix(0.648627 0.761106 -0.648627 0.761106 46.0566 -212.33)" stroke="#552A24" stroke-width="4"/>
<line y1="-2" x2="1013.85" y2="-2" transform="matrix(0.648627 0.761106 -0.648627 0.761106 40.4004 -205.692)" stroke="#552A24" stroke-width="4"/>
<line y1="-2" x2="1013.85" y2="-2" transform="matrix(0.648627 0.761106 -0.648627 0.761106 34.7441 -199.054)" stroke="#552A24" stroke-width="4"/>
<line y1="-2" x2="1013.85" y2="-2" transform="matrix(0.648627 0.761106 -0.648627 0.761106 34.7441 -199.054)" stroke="#552A24" stroke-width="4"/>
<line y1="-2" x2="1013.85" y2="-2" transform="matrix(0.648627 0.761106 -0.648627 0.761106 29.0859 -192.417)" stroke="#552A24" stroke-width="4"/>
<line y1="-2" x2="1013.85" y2="-2" transform="matrix(0.648627 0.761106 -0.648627 0.761106 23.4297 -185.779)" stroke="#552A24" stroke-width="4"/>
<line y1="-2" x2="1013.85" y2="-2" transform="matrix(0.648627 0.761106 -0.648627 0.761106 17.7734 -179.141)" stroke="#552A24" stroke-width="4"/>
<line y1="-2" x2="1013.85" y2="-2" transform="matrix(0.648627 0.761106 -0.648627 0.761106 12.1172 -172.503)" stroke="#552A24" stroke-width="4"/>
<line y1="-2" x2="1013.85" y2="-2" transform="matrix(0.648627 0.761106 -0.648627 0.761106 6.45898 -165.865)" stroke="#552A24" stroke-width="4"/>
<line y1="-2" x2="1013.85" y2="-2" transform="matrix(0.648627 0.761106 -0.648627 0.761106 0.802734 -159.228)" stroke="#552A24" stroke-width="4"/>
<line y1="-2" x2="1013.85" y2="-2" transform="matrix(0.648627 0.761106 -0.648627 0.761106 -4.85352 -152.59)" stroke="#552A24" stroke-width="4"/>
<line y1="-2" x2="1013.85" y2="-2" transform="matrix(0.648627 0.761106 -0.648627 0.761106 -10.5117 -145.952)" stroke="#552A24" stroke-width="4"/>
<line y1="-2" x2="1013.85" y2="-2" transform="matrix(0.648627 0.761106 -0.648627 0.761106 -16.168 -139.314)" stroke="#552A24" stroke-width="4"/>
<line y1="-2" x2="1013.85" y2="-2" transform="matrix(0.648627 0.761106 -0.648627 0.761106 -21.8242 -132.676)" stroke="#552A24" stroke-width="4"/>
<line y1="-2" x2="1013.85" y2="-2" transform="matrix(0.648627 0.761106 -0.648627 0.761106 -27.4824 -126.039)" stroke="#552A24" stroke-width="4"/>
<line y1="-2" x2="1013.85" y2="-2" transform="matrix(0.648627 0.761106 -0.648627 0.761106 -33.1387 -119.4)" stroke="#552A24" stroke-width="4"/>
<line y1="-2" x2="1013.85" y2="-2" transform="matrix(0.648627 0.761106 -0.648627 0.761106 -38.7949 -112.763)" stroke="#552A24" stroke-width="4"/>
<line y1="-2" x2="1013.85" y2="-2" transform="matrix(0.648627 0.761106 -0.648627 0.761106 -44.4531 -106.125)" stroke="#552A24" stroke-width="4"/>
<line y1="-2" x2="1013.85" y2="-2" transform="matrix(0.648627 0.761106 -0.648627 0.761106 -50.1094 -99.4873)" stroke="#552A24" stroke-width="4"/>
<line y1="-2" x2="1013.85" y2="-2" transform="matrix(0.648627 0.761106 -0.648627 0.761106 -55.7656 -92.8496)" stroke="#552A24" stroke-width="4"/>
<line y1="-2" x2="1013.85" y2="-2" transform="matrix(0.648627 0.761106 -0.648627 0.761106 -61.4219 -86.2117)" stroke="#552A24" stroke-width="4"/>
<line y1="-2" x2="1013.85" y2="-2" transform="matrix(0.648627 0.761106 -0.648627 0.761106 -67.0801 -79.574)" stroke="#552A24" stroke-width="4"/>
<line y1="-2" x2="1013.85" y2="-2" transform="matrix(0.648627 0.761106 -0.648627 0.761106 -72.7363 -72.936)" stroke="#552A24" stroke-width="4"/>
<line y1="-2" x2="1013.85" y2="-2" transform="matrix(0.648627 0.761106 -0.648627 0.761106 -78.3926 -66.2983)" stroke="#552A24" stroke-width="4"/>
<line y1="-2" x2="1013.85" y2="-2" transform="matrix(0.648627 0.761106 -0.648627 0.761106 -84.0508 -59.6604)" stroke="#552A24" stroke-width="4"/>
<line y1="-2" x2="1013.85" y2="-2" transform="matrix(0.648627 0.761106 -0.648627 0.761106 -89.707 -53.0225)" stroke="#552A24" stroke-width="4"/>
<line y1="-2" x2="1013.85" y2="-2" transform="matrix(0.648627 0.761106 -0.648627 0.761106 -95.3633 -46.3848)" stroke="#552A24" stroke-width="4"/>
<line y1="-2" x2="1013.85" y2="-2" transform="matrix(0.648627 0.761106 -0.648627 0.761106 -101.021 -39.7471)" stroke="#552A24" stroke-width="4"/>
<line y1="-2" x2="1013.85" y2="-2" transform="matrix(0.648627 0.761106 -0.648627 0.761106 -106.678 -33.1091)" stroke="#552A24" stroke-width="4"/>
<line y1="-2" x2="1013.85" y2="-2" transform="matrix(0.648627 0.761106 -0.648627 0.761106 -112.334 -26.4714)" stroke="#552A24" stroke-width="4"/>
<line y1="-2" x2="1013.85" y2="-2" transform="matrix(0.648627 0.761106 -0.648627 0.761106 -117.992 -19.8335)" stroke="#552A24" stroke-width="4"/>
<line y1="-2" x2="1013.85" y2="-2" transform="matrix(0.648627 0.761106 -0.648627 0.761106 -123.648 -13.1956)" stroke="#552A24" stroke-width="4"/>
<line y1="-2" x2="1013.85" y2="-2" transform="matrix(0.648627 0.761106 -0.648627 0.761106 -129.305 -6.55786)" stroke="#552A24" stroke-width="4"/>
<line y1="-2" x2="1013.85" y2="-2" transform="matrix(0.648627 0.761106 -0.648627 0.761106 -134.963 0.079834)" stroke="#552A24" stroke-width="4"/>
<line y1="-2" x2="1013.85" y2="-2" transform="matrix(0.648627 0.761106 -0.648627 0.761106 -140.619 6.71777)" stroke="#552A24" stroke-width="4"/>
<line y1="-2" x2="1013.85" y2="-2" transform="matrix(0.648627 0.761106 -0.648627 0.761106 -146.275 13.3555)" stroke="#552A24" stroke-width="4"/>
<line y1="-2" x2="1013.85" y2="-2" transform="matrix(0.648627 0.761106 -0.648627 0.761106 -151.932 19.9934)" stroke="#552A24" stroke-width="4"/>
<line y1="-2" x2="1013.85" y2="-2" transform="matrix(0.648627 0.761106 -0.648627 0.761106 -157.59 26.6311)" stroke="#552A24" stroke-width="4"/>
<line y1="-2" x2="1013.85" y2="-2" transform="matrix(0.648627 0.761106 -0.648627 0.761106 -163.246 33.269)" stroke="#552A24" stroke-width="4"/>
<line y1="-2" x2="1013.85" y2="-2" transform="matrix(0.648627 0.761106 -0.648627 0.761106 -168.902 39.9067)" stroke="#552A24" stroke-width="4"/>
<line y1="-2" x2="1013.85" y2="-2" transform="matrix(0.648627 0.761106 -0.648627 0.761106 -174.561 46.5444)" stroke="#552A24" stroke-width="4"/>
<line y1="-2" x2="1013.85" y2="-2" transform="matrix(0.648627 0.761106 -0.648627 0.761106 -180.217 53.1824)" stroke="#552A24" stroke-width="4"/>
<line y1="-2" x2="1013.85" y2="-2" transform="matrix(0.648627 0.761106 -0.648627 0.761106 -185.873 59.8201)" stroke="#552A24" stroke-width="4"/>
<line y1="-2" x2="1013.85" y2="-2" transform="matrix(0.648627 0.761106 -0.648627 0.761106 -191.531 66.458)" stroke="#552A24" stroke-width="4"/>
<line y1="-2" x2="1013.85" y2="-2" transform="matrix(0.648627 0.761106 -0.648627 0.761106 -197.188 73.0959)" stroke="#552A24" stroke-width="4"/>
<line y1="-2" x2="1013.85" y2="-2" transform="matrix(0.648627 0.761106 -0.648627 0.761106 -202.844 79.7334)" stroke="#552A24" stroke-width="4"/>
<line y1="-2" x2="1013.85" y2="-2" transform="matrix(0.648627 0.761106 -0.648627 0.761106 -208.502 86.3713)" stroke="#552A24" stroke-width="4"/>
<line y1="-2" x2="1013.85" y2="-2" transform="matrix(0.648627 0.761106 -0.648627 0.761106 -214.158 93.0093)" stroke="#552A24" stroke-width="4"/>
<line y1="-2" x2="1013.85" y2="-2" transform="matrix(0.648627 0.761106 -0.648627 0.761106 -219.814 99.647)" stroke="#552A24" stroke-width="4"/>
<line y1="-2" x2="1013.85" y2="-2" transform="matrix(0.648627 0.761106 -0.648627 0.761106 -225.471 106.285)" stroke="#552A24" stroke-width="4"/>
<line y1="-2" x2="1013.85" y2="-2" transform="matrix(0.648627 0.761106 -0.648627 0.761106 -231.129 112.923)" stroke="#552A24" stroke-width="4"/>
<line y1="-2" x2="1013.85" y2="-2" transform="matrix(0.648627 0.761106 -0.648627 0.761106 -236.785 119.561)" stroke="#552A24" stroke-width="4"/>
<line y1="-2" x2="1013.85" y2="-2" transform="matrix(0.648627 0.761106 -0.648627 0.761106 -242.441 126.198)" stroke="#552A24" stroke-width="4"/>
<line y1="-2" x2="1013.85" y2="-2" transform="matrix(0.648627 0.761106 -0.648627 0.761106 -248.1 132.836)" stroke="#552A24" stroke-width="4"/>
<line y1="-2" x2="1013.85" y2="-2" transform="matrix(0.648627 0.761106 -0.648627 0.761106 -253.756 139.474)" stroke="#552A24" stroke-width="4"/>
<line y1="-2" x2="1013.85" y2="-2" transform="matrix(0.648627 0.761106 -0.648627 0.761106 -259.412 146.112)" stroke="#552A24" stroke-width="4"/>
<line y1="-2" x2="1013.85" y2="-2" transform="matrix(0.648627 0.761106 -0.648627 0.761106 -265.07 152.75)" stroke="#552A24" stroke-width="4"/>
<line y1="-2" x2="1013.85" y2="-2" transform="matrix(0.648627 0.761106 -0.648627 0.761106 -270.727 159.387)" stroke="#552A24" stroke-width="4"/>
<line y1="-2" x2="1013.85" y2="-2" transform="matrix(0.648627 0.761106 -0.648627 0.761106 -276.383 166.025)" stroke="#552A24" stroke-width="4"/>
<line y1="-2" x2="1013.85" y2="-2" transform="matrix(0.648627 0.761106 -0.648627 0.761106 -282.041 172.663)" stroke="#552A24" stroke-width="4"/>
<line y1="-2" x2="1013.85" y2="-2" transform="matrix(0.648627 0.761106 -0.648627 0.761106 -287.697 179.301)" stroke="#552A24" stroke-width="4"/>
<line y1="-2" x2="1013.85" y2="-2" transform="matrix(0.648627 0.761106 -0.648627 0.761106 -293.354 185.938)" stroke="#552A24" stroke-width="4"/>
<line y1="-2" x2="1013.85" y2="-2" transform="matrix(0.648627 0.761106 -0.648627 0.761106 -299.01 192.576)" stroke="#552A24" stroke-width="4"/>
<line y1="-2" x2="1013.85" y2="-2" transform="matrix(0.648627 0.761106 -0.648627 0.761106 -304.668 199.214)" stroke="#552A24" stroke-width="4"/>
<line y1="-2" x2="1013.85" y2="-2" transform="matrix(0.648627 0.761106 -0.648627 0.761106 -310.324 205.852)" stroke="#552A24" stroke-width="4"/>
<line y1="-2" x2="1013.85" y2="-2" transform="matrix(0.648627 0.761106 -0.648627 0.761106 -315.98 212.49)" stroke="#552A24" stroke-width="4"/>
<line y1="-2" x2="1013.85" y2="-2" transform="matrix(0.648627 0.761106 -0.648627 0.761106 -321.639 219.127)" stroke="#552A24" stroke-width="4"/>
<line y1="-2" x2="1013.85" y2="-2" transform="matrix(0.648627 0.761106 -0.648627 0.761106 -321.639 219.127)" stroke="#552A24" stroke-width="4"/>
<line y1="-2" x2="1013.85" y2="-2" transform="matrix(0.648627 0.761106 -0.648627 0.761106 -327.295 225.765)" stroke="#552A24" stroke-width="4"/>
<line y1="-2" x2="1013.85" y2="-2" transform="matrix(0.648627 0.761106 -0.648627 0.761106 -332.951 232.403)" stroke="#552A24" stroke-width="4"/>
<line y1="-2" x2="1013.85" y2="-2" transform="matrix(0.648627 0.761106 -0.648627 0.761106 -338.609 239.041)" stroke="#552A24" stroke-width="4"/>
<line y1="-2" x2="1013.85" y2="-2" transform="matrix(0.648627 0.761106 -0.648627 0.761106 -344.266 245.679)" stroke="#552A24" stroke-width="4"/>
<line y1="-2" x2="1013.85" y2="-2" transform="matrix(0.648627 0.761106 -0.648627 0.761106 -349.922 252.317)" stroke="#552A24" stroke-width="4"/>
<line y1="-2" x2="1013.85" y2="-2" transform="matrix(0.648627 0.761106 -0.648627 0.761106 -355.58 258.955)" stroke="#552A24" stroke-width="4"/>
<line y1="-2" x2="1013.85" y2="-2" transform="matrix(0.648627 0.761106 -0.648627 0.761106 -361.236 265.592)" stroke="#552A24" stroke-width="4"/>
<line y1="-2" x2="1013.85" y2="-2" transform="matrix(0.648627 0.761106 -0.648627 0.761106 -366.893 272.23)" stroke="#552A24" stroke-width="4"/>
<line y1="-2" x2="1013.85" y2="-2" transform="matrix(0.648627 0.761106 -0.648627 0.761106 -372.551 278.868)" stroke="#552A24" stroke-width="4"/>
<line y1="-2" x2="1013.85" y2="-2" transform="matrix(0.648627 0.761106 -0.648627 0.761106 -378.207 285.506)" stroke="#552A24" stroke-width="4"/>
<line y1="-2" x2="1013.85" y2="-2" transform="matrix(0.648627 0.761106 -0.648627 0.761106 -383.863 292.144)" stroke="#552A24" stroke-width="4"/>
<line y1="-2" x2="1013.85" y2="-2" transform="matrix(0.648627 0.761106 -0.648627 0.761106 -389.521 298.782)" stroke="#552A24" stroke-width="4"/>
<line y1="-2" x2="1013.85" y2="-2" transform="matrix(0.648627 0.761106 -0.648627 0.761106 -395.178 305.419)" stroke="#552A24" stroke-width="4"/>
<line y1="-2" x2="1013.85" y2="-2" transform="matrix(0.648627 0.761106 -0.648627 0.761106 -400.834 312.057)" stroke="#552A24" stroke-width="4"/>
<line y1="-2" x2="1013.85" y2="-2" transform="matrix(0.648627 0.761106 -0.648627 0.761106 -406.49 318.695)" stroke="#552A24" stroke-width="4"/>
<line y1="-2" x2="1013.85" y2="-2" transform="matrix(0.648627 0.761106 -0.648627 0.761106 -412.148 325.333)" stroke="#552A24" stroke-width="4"/>
<line y1="-2" x2="1013.85" y2="-2" transform="matrix(0.648627 0.761106 -0.648627 0.761106 -417.805 331.97)" stroke="#552A24" stroke-width="4"/>
<line y1="-2" x2="1013.85" y2="-2" transform="matrix(0.648627 0.761106 -0.648627 0.761106 -423.461 338.608)" stroke="#552A24" stroke-width="4"/>
<line y1="-2" x2="1013.85" y2="-2" transform="matrix(0.648627 0.761106 -0.648627 0.761106 -429.119 345.246)" stroke="#552A24" stroke-width="4"/>
<line y1="-2" x2="1013.85" y2="-2" transform="matrix(0.648627 0.761106 -0.648627 0.761106 -434.775 351.884)" stroke="#552A24" stroke-width="4"/>
<line y1="-2" x2="1013.85" y2="-2" transform="matrix(0.648627 0.761106 -0.648627 0.761106 -440.432 358.521)" stroke="#552A24" stroke-width="4"/>
<line y1="-2" x2="1013.85" y2="-2" transform="matrix(0.648627 0.761106 -0.648627 0.761106 -446.09 365.16)" stroke="#552A24" stroke-width="4"/>
<line y1="-2" x2="1013.85" y2="-2" transform="matrix(0.648627 0.761106 -0.648627 0.761106 -451.746 371.797)" stroke="#552A24" stroke-width="4"/>
<line y1="-2" x2="1013.85" y2="-2" transform="matrix(0.648627 0.761106 -0.648627 0.761106 -457.402 378.435)" stroke="#552A24" stroke-width="4"/>
<line y1="-2" x2="1013.85" y2="-2" transform="matrix(0.648627 0.761106 -0.648627 0.761106 -463.061 385.073)" stroke="#552A24" stroke-width="4"/>
<line y1="-2" x2="1013.85" y2="-2" transform="matrix(0.648627 0.761106 -0.648627 0.761106 -468.717 391.711)" stroke="#552A24" stroke-width="4"/>
<line y1="-2" x2="1013.85" y2="-2" transform="matrix(0.648627 0.761106 -0.648627 0.761106 -474.373 398.349)" stroke="#552A24" stroke-width="4"/>
<line y1="-2" x2="1013.85" y2="-2" transform="matrix(0.648627 0.761106 -0.648627 0.761106 -480.031 404.987)" stroke="#552A24" stroke-width="4"/>
<line y1="-2" x2="1013.85" y2="-2" transform="matrix(0.648627 0.761106 -0.648627 0.761106 -485.688 411.624)" stroke="#552A24" stroke-width="4"/>
<line y1="-2" x2="1013.85" y2="-2" transform="matrix(0.648627 0.761106 -0.648627 0.761106 -491.344 418.262)" stroke="#552A24" stroke-width="4"/>
<line y1="-2" x2="1013.85" y2="-2" transform="matrix(0.648627 0.761106 -0.648627 0.761106 -497 424.9)" stroke="#552A24" stroke-width="4"/>
</g>
<rect width="63" height="44.5896" fill="#552A24"/>
<rect y="114.994" width="63" height="44.5896" fill="#552A24"/>
<rect y="229.989" width="63" height="44.5896" fill="#552A24"/>
<rect y="344.983" width="63" height="44.5896" fill="#552A24"/>
<rect y="459.977" width="63" height="44.5896" fill="#552A24"/>
<rect y="574.971" width="63" height="44.5896" fill="#552A24"/>
<rect y="689.965" width="63" height="44.5896" fill="#552A24"/>
<rect y="804.959" width="63" height="7.04046" fill="#552A24"/>
<rect x="147" y="804.959" width="63" height="7.04046" fill="#552A24"/>
<rect x="294" y="804.959" width="63" height="7.04046" fill="#552A24"/>
<mask id="mask1_326_1736" style="mask-type:alpha" maskUnits="userSpaceOnUse" x="0" y="0" width="23" height="811">
<rect width="23" height="810.827" fill="black"/>
</mask>
<g mask="url(#mask1_326_1736)">
<line y1="-2" x2="1013.85" y2="-2" transform="matrix(0.648627 0.761106 -0.648627 0.761106 17.7734 -179.141)" stroke="#342727" stroke-width="4"/>
<line y1="-2" x2="1013.85" y2="-2" transform="matrix(0.648627 0.761106 -0.648627 0.761106 12.1172 -172.503)" stroke="#342727" stroke-width="4"/>
<line y1="-2" x2="1013.85" y2="-2" transform="matrix(0.648627 0.761106 -0.648627 0.761106 6.45898 -165.865)" stroke="#342727" stroke-width="4"/>
<line y1="-2" x2="1013.85" y2="-2" transform="matrix(0.648627 0.761106 -0.648627 0.761106 0.802734 -159.228)" stroke="#342727" stroke-width="4"/>
<line y1="-2" x2="1013.85" y2="-2" transform="matrix(0.648627 0.761106 -0.648627 0.761106 -4.85352 -152.59)" stroke="#342727" stroke-width="4"/>
<line y1="-2" x2="1013.85" y2="-2" transform="matrix(0.648627 0.761106 -0.648627 0.761106 -10.5117 -145.952)" stroke="#342727" stroke-width="4"/>
<line y1="-2" x2="1013.85" y2="-2" transform="matrix(0.648627 0.761106 -0.648627 0.761106 -16.168 -139.314)" stroke="#342727" stroke-width="4"/>
<line y1="-2" x2="1013.85" y2="-2" transform="matrix(0.648627 0.761106 -0.648627 0.761106 -21.8242 -132.676)" stroke="#342727" stroke-width="4"/>
<line y1="-2" x2="1013.85" y2="-2" transform="matrix(0.648627 0.761106 -0.648627 0.761106 -27.4824 -126.039)" stroke="#342727" stroke-width="4"/>
<line y1="-2" x2="1013.85" y2="-2" transform="matrix(0.648627 0.761106 -0.648627 0.761106 -33.1387 -119.4)" stroke="#342727" stroke-width="4"/>
<line y1="-2" x2="1013.85" y2="-2" transform="matrix(0.648627 0.761106 -0.648627 0.761106 -38.7949 -112.763)" stroke="#342727" stroke-width="4"/>
<line y1="-2" x2="1013.85" y2="-2" transform="matrix(0.648627 0.761106 -0.648627 0.761106 -44.4531 -106.125)" stroke="#342727" stroke-width="4"/>
<line y1="-2" x2="1013.85" y2="-2" transform="matrix(0.648627 0.761106 -0.648627 0.761106 -50.1094 -99.4873)" stroke="#342727" stroke-width="4"/>
<line y1="-2" x2="1013.85" y2="-2" transform="matrix(0.648627 0.761106 -0.648627 0.761106 -55.7656 -92.8496)" stroke="#342727" stroke-width="4"/>
<line y1="-2" x2="1013.85" y2="-2" transform="matrix(0.648627 0.761106 -0.648627 0.761106 -61.4219 -86.2117)" stroke="#342727" stroke-width="4"/>
<line y1="-2" x2="1013.85" y2="-2" transform="matrix(0.648627 0.761106 -0.648627 0.761106 -67.0801 -79.574)" stroke="#342727" stroke-width="4"/>
<line y1="-2" x2="1013.85" y2="-2" transform="matrix(0.648627 0.761106 -0.648627 0.761106 -72.7363 -72.936)" stroke="#342727" stroke-width="4"/>
<line y1="-2" x2="1013.85" y2="-2" transform="matrix(0.648627 0.761106 -0.648627 0.761106 -78.3926 -66.2983)" stroke="#342727" stroke-width="4"/>
<line y1="-2" x2="1013.85" y2="-2" transform="matrix(0.648627 0.761106 -0.648627 0.761106 -84.0508 -59.6604)" stroke="#342727" stroke-width="4"/>
<line y1="-2" x2="1013.85" y2="-2" transform="matrix(0.648627 0.761106 -0.648627 0.761106 -89.707 -53.0225)" stroke="#342727" stroke-width="4"/>
<line y1="-2" x2="1013.85" y2="-2" transform="matrix(0.648627 0.761106 -0.648627 0.761106 -95.3633 -46.3848)" stroke="#342727" stroke-width="4"/>
<line y1="-2" x2="1013.85" y2="-2" transform="matrix(0.648627 0.761106 -0.648627 0.761106 -101.021 -39.7471)" stroke="#342727" stroke-width="4"/>
<line y1="-2" x2="1013.85" y2="-2" transform="matrix(0.648627 0.761106 -0.648627 0.761106 -106.678 -33.1091)" stroke="#342727" stroke-width="4"/>
<line y1="-2" x2="1013.85" y2="-2" transform="matrix(0.648627 0.761106 -0.648627 0.761106 -112.334 -26.4714)" stroke="#342727" stroke-width="4"/>
<line y1="-2" x2="1013.85" y2="-2" transform="matrix(0.648627 0.761106 -0.648627 0.761106 -117.992 -19.8335)" stroke="#342727" stroke-width="4"/>
<line y1="-2" x2="1013.85" y2="-2" transform="matrix(0.648627 0.761106 -0.648627 0.761106 -123.648 -13.1956)" stroke="#342727" stroke-width="4"/>
<line y1="-2" x2="1013.85" y2="-2" transform="matrix(0.648627 0.761106 -0.648627 0.761106 -129.305 -6.55786)" stroke="#342727" stroke-width="4"/>
<line y1="-2" x2="1013.85" y2="-2" transform="matrix(0.648627 0.761106 -0.648627 0.761106 -134.963 0.079834)" stroke="#342727" stroke-width="4"/>
<line y1="-2" x2="1013.85" y2="-2" transform="matrix(0.648627 0.761106 -0.648627 0.761106 -140.619 6.71777)" stroke="#342727" stroke-width="4"/>
<line y1="-2" x2="1013.85" y2="-2" transform="matrix(0.648627 0.761106 -0.648627 0.761106 -146.275 13.3555)" stroke="#342727" stroke-width="4"/>
<line y1="-2" x2="1013.85" y2="-2" transform="matrix(0.648627 0.761106 -0.648627 0.761106 -151.932 19.9934)" stroke="#342727" stroke-width="4"/>
<line y1="-2" x2="1013.85" y2="-2" transform="matrix(0.648627 0.761106 -0.648627 0.761106 -157.59 26.6311)" stroke="#342727" stroke-width="4"/>
<line y1="-2" x2="1013.85" y2="-2" transform="matrix(0.648627 0.761106 -0.648627 0.761106 -163.246 33.269)" stroke="#342727" stroke-width="4"/>
<line y1="-2" x2="1013.85" y2="-2" transform="matrix(0.648627 0.761106 -0.648627 0.761106 -168.902 39.9067)" stroke="#342727" stroke-width="4"/>
<line y1="-2" x2="1013.85" y2="-2" transform="matrix(0.648627 0.761106 -0.648627 0.761106 -174.561 46.5444)" stroke="#342727" stroke-width="4"/>
<line y1="-2" x2="1013.85" y2="-2" transform="matrix(0.648627 0.761106 -0.648627 0.761106 -180.217 53.1824)" stroke="#342727" stroke-width="4"/>
<line y1="-2" x2="1013.85" y2="-2" transform="matrix(0.648627 0.761106 -0.648627 0.761106 -185.873 59.8201)" stroke="#342727" stroke-width="4"/>
<line y1="-2" x2="1013.85" y2="-2" transform="matrix(0.648627 0.761106 -0.648627 0.761106 -191.531 66.458)" stroke="#342727" stroke-width="4"/>
<line y1="-2" x2="1013.85" y2="-2" transform="matrix(0.648627 0.761106 -0.648627 0.761106 -197.188 73.0959)" stroke="#342727" stroke-width="4"/>
<line y1="-2" x2="1013.85" y2="-2" transform="matrix(0.648627 0.761106 -0.648627 0.761106 -202.844 79.7334)" stroke="#342727" stroke-width="4"/>
<line y1="-2" x2="1013.85" y2="-2" transform="matrix(0.648627 0.761106 -0.648627 0.761106 -208.502 86.3713)" stroke="#342727" stroke-width="4"/>
<line y1="-2" x2="1013.85" y2="-2" transform="matrix(0.648627 0.761106 -0.648627 0.761106 -214.158 93.0093)" stroke="#342727" stroke-width="4"/>
<line y1="-2" x2="1013.85" y2="-2" transform="matrix(0.648627 0.761106 -0.648627 0.761106 -219.814 99.647)" stroke="#342727" stroke-width="4"/>
<line y1="-2" x2="1013.85" y2="-2" transform="matrix(0.648627 0.761106 -0.648627 0.761106 -225.471 106.285)" stroke="#342727" stroke-width="4"/>
<line y1="-2" x2="1013.85" y2="-2" transform="matrix(0.648627 0.761106 -0.648627 0.761106 -231.129 112.923)" stroke="#342727" stroke-width="4"/>
<line y1="-2" x2="1013.85" y2="-2" transform="matrix(0.648627 0.761106 -0.648627 0.761106 -236.785 119.561)" stroke="#342727" stroke-width="4"/>
<line y1="-2" x2="1013.85" y2="-2" transform="matrix(0.648627 0.761106 -0.648627 0.761106 -242.441 126.198)" stroke="#342727" stroke-width="4"/>
<line y1="-2" x2="1013.85" y2="-2" transform="matrix(0.648627 0.761106 -0.648627 0.761106 -248.1 132.836)" stroke="#342727" stroke-width="4"/>
<line y1="-2" x2="1013.85" y2="-2" transform="matrix(0.648627 0.761106 -0.648627 0.761106 -253.756 139.474)" stroke="#342727" stroke-width="4"/>
<line y1="-2" x2="1013.85" y2="-2" transform="matrix(0.648627 0.761106 -0.648627 0.761106 -259.412 146.112)" stroke="#342727" stroke-width="4"/>
<line y1="-2" x2="1013.85" y2="-2" transform="matrix(0.648627 0.761106 -0.648627 0.761106 -265.07 152.75)" stroke="#342727" stroke-width="4"/>
<line y1="-2" x2="1013.85" y2="-2" transform="matrix(0.648627 0.761106 -0.648627 0.761106 -270.727 159.387)" stroke="#342727" stroke-width="4"/>
<line y1="-2" x2="1013.85" y2="-2" transform="matrix(0.648627 0.761106 -0.648627 0.761106 -276.383 166.025)" stroke="#342727" stroke-width="4"/>
<line y1="-2" x2="1013.85" y2="-2" transform="matrix(0.648627 0.761106 -0.648627 0.761106 -282.041 172.663)" stroke="#342727" stroke-width="4"/>
<line y1="-2" x2="1013.85" y2="-2" transform="matrix(0.648627 0.761106 -0.648627 0.761106 -287.697 179.301)" stroke="#342727" stroke-width="4"/>
<line y1="-2" x2="1013.85" y2="-2" transform="matrix(0.648627 0.761106 -0.648627 0.761106 -293.354 185.938)" stroke="#342727" stroke-width="4"/>
<line y1="-2" x2="1013.85" y2="-2" transform="matrix(0.648627 0.761106 -0.648627 0.761106 -299.01 192.576)" stroke="#342727" stroke-width="4"/>
<line y1="-2" x2="1013.85" y2="-2" transform="matrix(0.648627 0.761106 -0.648627 0.761106 -304.668 199.214)" stroke="#342727" stroke-width="4"/>
<line y1="-2" x2="1013.85" y2="-2" transform="matrix(0.648627 0.761106 -0.648627 0.761106 -310.324 205.852)" stroke="#342727" stroke-width="4"/>
<line y1="-2" x2="1013.85" y2="-2" transform="matrix(0.648627 0.761106 -0.648627 0.761106 -315.98 212.49)" stroke="#342727" stroke-width="4"/>
<line y1="-2" x2="1013.85" y2="-2" transform="matrix(0.648627 0.761106 -0.648627 0.761106 -321.639 219.127)" stroke="#342727" stroke-width="4"/>
<line y1="-2" x2="1013.85" y2="-2" transform="matrix(0.648627 0.761106 -0.648627 0.761106 -321.639 219.127)" stroke="#342727" stroke-width="4"/>
<line y1="-2" x2="1013.85" y2="-2" transform="matrix(0.648627 0.761106 -0.648627 0.761106 -327.295 225.765)" stroke="#342727" stroke-width="4"/>
<line y1="-2" x2="1013.85" y2="-2" transform="matrix(0.648627 0.761106 -0.648627 0.761106 -332.951 232.403)" stroke="#342727" stroke-width="4"/>
<line y1="-2" x2="1013.85" y2="-2" transform="matrix(0.648627 0.761106 -0.648627 0.761106 -338.609 239.041)" stroke="#342727" stroke-width="4"/>
<line y1="-2" x2="1013.85" y2="-2" transform="matrix(0.648627 0.761106 -0.648627 0.761106 -344.266 245.679)" stroke="#342727" stroke-width="4"/>
<line y1="-2" x2="1013.85" y2="-2" transform="matrix(0.648627 0.761106 -0.648627 0.761106 -349.922 252.317)" stroke="#342727" stroke-width="4"/>
<line y1="-2" x2="1013.85" y2="-2" transform="matrix(0.648627 0.761106 -0.648627 0.761106 -355.58 258.955)" stroke="#342727" stroke-width="4"/>
<line y1="-2" x2="1013.85" y2="-2" transform="matrix(0.648627 0.761106 -0.648627 0.761106 -361.236 265.592)" stroke="#342727" stroke-width="4"/>
<line y1="-2" x2="1013.85" y2="-2" transform="matrix(0.648627 0.761106 -0.648627 0.761106 -366.893 272.23)" stroke="#342727" stroke-width="4"/>
<line y1="-2" x2="1013.85" y2="-2" transform="matrix(0.648627 0.761106 -0.648627 0.761106 -372.551 278.868)" stroke="#342727" stroke-width="4"/>
<line y1="-2" x2="1013.85" y2="-2" transform="matrix(0.648627 0.761106 -0.648627 0.761106 -378.207 285.506)" stroke="#342727" stroke-width="4"/>
<line y1="-2" x2="1013.85" y2="-2" transform="matrix(0.648627 0.761106 -0.648627 0.761106 -383.863 292.144)" stroke="#342727" stroke-width="4"/>
<line y1="-2" x2="1013.85" y2="-2" transform="matrix(0.648627 0.761106 -0.648627 0.761106 -389.521 298.782)" stroke="#342727" stroke-width="4"/>
<line y1="-2" x2="1013.85" y2="-2" transform="matrix(0.648627 0.761106 -0.648627 0.761106 -395.178 305.419)" stroke="#342727" stroke-width="4"/>
<line y1="-2" x2="1013.85" y2="-2" transform="matrix(0.648627 0.761106 -0.648627 0.761106 -400.834 312.057)" stroke="#342727" stroke-width="4"/>
<line y1="-2" x2="1013.85" y2="-2" transform="matrix(0.648627 0.761106 -0.648627 0.761106 -406.49 318.695)" stroke="#342727" stroke-width="4"/>
<line y1="-2" x2="1013.85" y2="-2" transform="matrix(0.648627 0.761106 -0.648627 0.761106 -412.148 325.333)" stroke="#342727" stroke-width="4"/>
<line y1="-2" x2="1013.85" y2="-2" transform="matrix(0.648627 0.761106 -0.648627 0.761106 -417.805 331.97)" stroke="#342727" stroke-width="4"/>
<line y1="-2" x2="1013.85" y2="-2" transform="matrix(0.648627 0.761106 -0.648627 0.761106 -423.461 338.608)" stroke="#342727" stroke-width="4"/>
<line y1="-2" x2="1013.85" y2="-2" transform="matrix(0.648627 0.761106 -0.648627 0.761106 -429.119 345.246)" stroke="#342727" stroke-width="4"/>
<line y1="-2" x2="1013.85" y2="-2" transform="matrix(0.648627 0.761106 -0.648627 0.761106 -434.775 351.884)" stroke="#342727" stroke-width="4"/>
<line y1="-2" x2="1013.85" y2="-2" transform="matrix(0.648627 0.761106 -0.648627 0.761106 -440.432 358.521)" stroke="#342727" stroke-width="4"/>
<line y1="-2" x2="1013.85" y2="-2" transform="matrix(0.648627 0.761106 -0.648627 0.761106 -446.09 365.16)" stroke="#342727" stroke-width="4"/>
<line y1="-2" x2="1013.85" y2="-2" transform="matrix(0.648627 0.761106 -0.648627 0.761106 -451.746 371.797)" stroke="#342727" stroke-width="4"/>
<line y1="-2" x2="1013.85" y2="-2" transform="matrix(0.648627 0.761106 -0.648627 0.761106 -457.402 378.435)" stroke="#342727" stroke-width="4"/>
<line y1="-2" x2="1013.85" y2="-2" transform="matrix(0.648627 0.761106 -0.648627 0.761106 -463.061 385.073)" stroke="#342727" stroke-width="4"/>
<line y1="-2" x2="1013.85" y2="-2" transform="matrix(0.648627 0.761106 -0.648627 0.761106 -468.717 391.711)" stroke="#342727" stroke-width="4"/>
<line y1="-2" x2="1013.85" y2="-2" transform="matrix(0.648627 0.761106 -0.648627 0.761106 -474.373 398.349)" stroke="#342727" stroke-width="4"/>
<line y1="-2" x2="1013.85" y2="-2" transform="matrix(0.648627 0.761106 -0.648627 0.761106 -480.031 404.987)" stroke="#342727" stroke-width="4"/>
<line y1="-2" x2="1013.85" y2="-2" transform="matrix(0.648627 0.761106 -0.648627 0.761106 -485.688 411.624)" stroke="#342727" stroke-width="4"/>
<line y1="-2" x2="1013.85" y2="-2" transform="matrix(0.648627 0.761106 -0.648627 0.761106 -491.344 418.262)" stroke="#342727" stroke-width="4"/>
<line y1="-2" x2="1013.85" y2="-2" transform="matrix(0.648627 0.761106 -0.648627 0.761106 -497 424.9)" stroke="#342727" stroke-width="4"/>
</g>
<rect x="147" width="63" height="44.5896" fill="#552A24"/>
<rect x="147" y="114.994" width="63" height="44.5896" fill="#552A24"/>
<rect x="147" y="229.989" width="63" height="44.5896" fill="#552A24"/>
<rect x="147" y="344.983" width="63" height="44.5896" fill="#552A24"/>
<rect x="147" y="459.977" width="63" height="44.5896" fill="#552A24"/>
<rect x="147" y="574.971" width="63" height="44.5896" fill="#552A24"/>
<rect x="147" y="689.965" width="63" height="44.5896" fill="#552A24"/>
<mask id="mask2_326_1736" style="mask-type:alpha" maskUnits="userSpaceOnUse" x="147" y="0" width="23" height="811">
<rect x="147" width="23" height="810.827" fill="black"/>
</mask>
<g mask="url(#mask2_326_1736)">
<line y1="-2" x2="1013.85" y2="-2" transform="matrix(0.648627 0.761106 -0.648627 0.761106 164.773 -179.141)" stroke="#342727" stroke-width="4"/>
<line y1="-2" x2="1013.85" y2="-2" transform="matrix(0.648627 0.761106 -0.648627 0.761106 159.117 -172.503)" stroke="#342727" stroke-width="4"/>
<line y1="-2" x2="1013.85" y2="-2" transform="matrix(0.648627 0.761106 -0.648627 0.761106 153.459 -165.865)" stroke="#342727" stroke-width="4"/>
<line y1="-2" x2="1013.85" y2="-2" transform="matrix(0.648627 0.761106 -0.648627 0.761106 147.803 -159.228)" stroke="#342727" stroke-width="4"/>
<line y1="-2" x2="1013.85" y2="-2" transform="matrix(0.648627 0.761106 -0.648627 0.761106 142.146 -152.59)" stroke="#342727" stroke-width="4"/>
<line y1="-2" x2="1013.85" y2="-2" transform="matrix(0.648627 0.761106 -0.648627 0.761106 136.488 -145.952)" stroke="#342727" stroke-width="4"/>
<line y1="-2" x2="1013.85" y2="-2" transform="matrix(0.648627 0.761106 -0.648627 0.761106 130.832 -139.314)" stroke="#342727" stroke-width="4"/>
<line y1="-2" x2="1013.85" y2="-2" transform="matrix(0.648627 0.761106 -0.648627 0.761106 125.176 -132.676)" stroke="#342727" stroke-width="4"/>
<line y1="-2" x2="1013.85" y2="-2" transform="matrix(0.648627 0.761106 -0.648627 0.761106 119.518 -126.039)" stroke="#342727" stroke-width="4"/>
<line y1="-2" x2="1013.85" y2="-2" transform="matrix(0.648627 0.761106 -0.648627 0.761106 113.861 -119.4)" stroke="#342727" stroke-width="4"/>
<line y1="-2" x2="1013.85" y2="-2" transform="matrix(0.648627 0.761106 -0.648627 0.761106 108.205 -112.763)" stroke="#342727" stroke-width="4"/>
<line y1="-2" x2="1013.85" y2="-2" transform="matrix(0.648627 0.761106 -0.648627 0.761106 102.547 -106.125)" stroke="#342727" stroke-width="4"/>
<line y1="-2" x2="1013.85" y2="-2" transform="matrix(0.648627 0.761106 -0.648627 0.761106 96.8906 -99.4873)" stroke="#342727" stroke-width="4"/>
<line y1="-2" x2="1013.85" y2="-2" transform="matrix(0.648627 0.761106 -0.648627 0.761106 91.2344 -92.8496)" stroke="#342727" stroke-width="4"/>
<line y1="-2" x2="1013.85" y2="-2" transform="matrix(0.648627 0.761106 -0.648627 0.761106 85.5781 -86.2117)" stroke="#342727" stroke-width="4"/>
<line y1="-2" x2="1013.85" y2="-2" transform="matrix(0.648627 0.761106 -0.648627 0.761106 79.9199 -79.574)" stroke="#342727" stroke-width="4"/>
<line y1="-2" x2="1013.85" y2="-2" transform="matrix(0.648627 0.761106 -0.648627 0.761106 74.2637 -72.936)" stroke="#342727" stroke-width="4"/>
<line y1="-2" x2="1013.85" y2="-2" transform="matrix(0.648627 0.761106 -0.648627 0.761106 68.6074 -66.2983)" stroke="#342727" stroke-width="4"/>
<line y1="-2" x2="1013.85" y2="-2" transform="matrix(0.648627 0.761106 -0.648627 0.761106 62.9492 -59.6604)" stroke="#342727" stroke-width="4"/>
<line y1="-2" x2="1013.85" y2="-2" transform="matrix(0.648627 0.761106 -0.648627 0.761106 57.293 -53.0225)" stroke="#342727" stroke-width="4"/>
<line y1="-2" x2="1013.85" y2="-2" transform="matrix(0.648627 0.761106 -0.648627 0.761106 51.6367 -46.3848)" stroke="#342727" stroke-width="4"/>
<line y1="-2" x2="1013.85" y2="-2" transform="matrix(0.648627 0.761106 -0.648627 0.761106 45.9785 -39.7471)" stroke="#342727" stroke-width="4"/>
<line y1="-2" x2="1013.85" y2="-2" transform="matrix(0.648627 0.761106 -0.648627 0.761106 40.3223 -33.1091)" stroke="#342727" stroke-width="4"/>
<line y1="-2" x2="1013.85" y2="-2" transform="matrix(0.648627 0.761106 -0.648627 0.761106 34.666 -26.4714)" stroke="#342727" stroke-width="4"/>
<line y1="-2" x2="1013.85" y2="-2" transform="matrix(0.648627 0.761106 -0.648627 0.761106 29.0078 -19.8335)" stroke="#342727" stroke-width="4"/>
<line y1="-2" x2="1013.85" y2="-2" transform="matrix(0.648627 0.761106 -0.648627 0.761106 23.3516 -13.1956)" stroke="#342727" stroke-width="4"/>
<line y1="-2" x2="1013.85" y2="-2" transform="matrix(0.648627 0.761106 -0.648627 0.761106 17.6953 -6.55786)" stroke="#342727" stroke-width="4"/>
<line y1="-2" x2="1013.85" y2="-2" transform="matrix(0.648627 0.761106 -0.648627 0.761106 12.0371 0.079834)" stroke="#342727" stroke-width="4"/>
<line y1="-2" x2="1013.85" y2="-2" transform="matrix(0.648627 0.761106 -0.648627 0.761106 6.38086 6.71777)" stroke="#342727" stroke-width="4"/>
<line y1="-2" x2="1013.85" y2="-2" transform="matrix(0.648627 0.761106 -0.648627 0.761106 0.724609 13.3555)" stroke="#342727" stroke-width="4"/>
<line y1="-2" x2="1013.85" y2="-2" transform="matrix(0.648627 0.761106 -0.648627 0.761106 -4.93164 19.9934)" stroke="#342727" stroke-width="4"/>
<line y1="-2" x2="1013.85" y2="-2" transform="matrix(0.648627 0.761106 -0.648627 0.761106 -10.5898 26.6311)" stroke="#342727" stroke-width="4"/>
<line y1="-2" x2="1013.85" y2="-2" transform="matrix(0.648627 0.761106 -0.648627 0.761106 -16.2461 33.269)" stroke="#342727" stroke-width="4"/>
<line y1="-2" x2="1013.85" y2="-2" transform="matrix(0.648627 0.761106 -0.648627 0.761106 -21.9023 39.9067)" stroke="#342727" stroke-width="4"/>
<line y1="-2" x2="1013.85" y2="-2" transform="matrix(0.648627 0.761106 -0.648627 0.761106 -27.5605 46.5444)" stroke="#342727" stroke-width="4"/>
<line y1="-2" x2="1013.85" y2="-2" transform="matrix(0.648627 0.761106 -0.648627 0.761106 -33.2168 53.1824)" stroke="#342727" stroke-width="4"/>
<line y1="-2" x2="1013.85" y2="-2" transform="matrix(0.648627 0.761106 -0.648627 0.761106 -38.873 59.8201)" stroke="#342727" stroke-width="4"/>
<line y1="-2" x2="1013.85" y2="-2" transform="matrix(0.648627 0.761106 -0.648627 0.761106 -44.5312 66.458)" stroke="#342727" stroke-width="4"/>
<line y1="-2" x2="1013.85" y2="-2" transform="matrix(0.648627 0.761106 -0.648627 0.761106 -50.1875 73.0959)" stroke="#342727" stroke-width="4"/>
<line y1="-2" x2="1013.85" y2="-2" transform="matrix(0.648627 0.761106 -0.648627 0.761106 -55.8438 79.7334)" stroke="#342727" stroke-width="4"/>
<line y1="-2" x2="1013.85" y2="-2" transform="matrix(0.648627 0.761106 -0.648627 0.761106 -61.502 86.3713)" stroke="#342727" stroke-width="4"/>
<line y1="-2" x2="1013.85" y2="-2" transform="matrix(0.648627 0.761106 -0.648627 0.761106 -67.1582 93.0093)" stroke="#342727" stroke-width="4"/>
<line y1="-2" x2="1013.85" y2="-2" transform="matrix(0.648627 0.761106 -0.648627 0.761106 -72.8145 99.647)" stroke="#342727" stroke-width="4"/>
<line y1="-2" x2="1013.85" y2="-2" transform="matrix(0.648627 0.761106 -0.648627 0.761106 -78.4707 106.285)" stroke="#342727" stroke-width="4"/>
<line y1="-2" x2="1013.85" y2="-2" transform="matrix(0.648627 0.761106 -0.648627 0.761106 -84.1289 112.923)" stroke="#342727" stroke-width="4"/>
<line y1="-2" x2="1013.85" y2="-2" transform="matrix(0.648627 0.761106 -0.648627 0.761106 -89.7852 119.561)" stroke="#342727" stroke-width="4"/>
<line y1="-2" x2="1013.85" y2="-2" transform="matrix(0.648627 0.761106 -0.648627 0.761106 -95.4414 126.198)" stroke="#342727" stroke-width="4"/>
<line y1="-2" x2="1013.85" y2="-2" transform="matrix(0.648627 0.761106 -0.648627 0.761106 -101.1 132.836)" stroke="#342727" stroke-width="4"/>
<line y1="-2" x2="1013.85" y2="-2" transform="matrix(0.648627 0.761106 -0.648627 0.761106 -106.756 139.474)" stroke="#342727" stroke-width="4"/>
<line y1="-2" x2="1013.85" y2="-2" transform="matrix(0.648627 0.761106 -0.648627 0.761106 -112.412 146.112)" stroke="#342727" stroke-width="4"/>
<line y1="-2" x2="1013.85" y2="-2" transform="matrix(0.648627 0.761106 -0.648627 0.761106 -118.07 152.75)" stroke="#342727" stroke-width="4"/>
<line y1="-2" x2="1013.85" y2="-2" transform="matrix(0.648627 0.761106 -0.648627 0.761106 -123.727 159.387)" stroke="#342727" stroke-width="4"/>
<line y1="-2" x2="1013.85" y2="-2" transform="matrix(0.648627 0.761106 -0.648627 0.761106 -129.383 166.025)" stroke="#342727" stroke-width="4"/>
<line y1="-2" x2="1013.85" y2="-2" transform="matrix(0.648627 0.761106 -0.648627 0.761106 -135.041 172.663)" stroke="#342727" stroke-width="4"/>
<line y1="-2" x2="1013.85" y2="-2" transform="matrix(0.648627 0.761106 -0.648627 0.761106 -140.697 179.301)" stroke="#342727" stroke-width="4"/>
<line y1="-2" x2="1013.85" y2="-2" transform="matrix(0.648627 0.761106 -0.648627 0.761106 -146.354 185.938)" stroke="#342727" stroke-width="4"/>
<line y1="-2" x2="1013.85" y2="-2" transform="matrix(0.648627 0.761106 -0.648627 0.761106 -152.01 192.576)" stroke="#342727" stroke-width="4"/>
<line y1="-2" x2="1013.85" y2="-2" transform="matrix(0.648627 0.761106 -0.648627 0.761106 -157.668 199.214)" stroke="#342727" stroke-width="4"/>
<line y1="-2" x2="1013.85" y2="-2" transform="matrix(0.648627 0.761106 -0.648627 0.761106 -163.324 205.852)" stroke="#342727" stroke-width="4"/>
<line y1="-2" x2="1013.85" y2="-2" transform="matrix(0.648627 0.761106 -0.648627 0.761106 -168.98 212.49)" stroke="#342727" stroke-width="4"/>
<line y1="-2" x2="1013.85" y2="-2" transform="matrix(0.648627 0.761106 -0.648627 0.761106 -174.639 219.127)" stroke="#342727" stroke-width="4"/>
<line y1="-2" x2="1013.85" y2="-2" transform="matrix(0.648627 0.761106 -0.648627 0.761106 -174.639 219.127)" stroke="#342727" stroke-width="4"/>
<line y1="-2" x2="1013.85" y2="-2" transform="matrix(0.648627 0.761106 -0.648627 0.761106 -180.295 225.765)" stroke="#342727" stroke-width="4"/>
<line y1="-2" x2="1013.85" y2="-2" transform="matrix(0.648627 0.761106 -0.648627 0.761106 -185.951 232.403)" stroke="#342727" stroke-width="4"/>
<line y1="-2" x2="1013.85" y2="-2" transform="matrix(0.648627 0.761106 -0.648627 0.761106 -191.609 239.041)" stroke="#342727" stroke-width="4"/>
<line y1="-2" x2="1013.85" y2="-2" transform="matrix(0.648627 0.761106 -0.648627 0.761106 -197.266 245.679)" stroke="#342727" stroke-width="4"/>
<line y1="-2" x2="1013.85" y2="-2" transform="matrix(0.648627 0.761106 -0.648627 0.761106 -202.922 252.317)" stroke="#342727" stroke-width="4"/>
<line y1="-2" x2="1013.85" y2="-2" transform="matrix(0.648627 0.761106 -0.648627 0.761106 -208.58 258.955)" stroke="#342727" stroke-width="4"/>
<line y1="-2" x2="1013.85" y2="-2" transform="matrix(0.648627 0.761106 -0.648627 0.761106 -214.236 265.592)" stroke="#342727" stroke-width="4"/>
<line y1="-2" x2="1013.85" y2="-2" transform="matrix(0.648627 0.761106 -0.648627 0.761106 -219.893 272.23)" stroke="#342727" stroke-width="4"/>
<line y1="-2" x2="1013.85" y2="-2" transform="matrix(0.648627 0.761106 -0.648627 0.761106 -225.551 278.868)" stroke="#342727" stroke-width="4"/>
<line y1="-2" x2="1013.85" y2="-2" transform="matrix(0.648627 0.761106 -0.648627 0.761106 -231.207 285.506)" stroke="#342727" stroke-width="4"/>
<line y1="-2" x2="1013.85" y2="-2" transform="matrix(0.648627 0.761106 -0.648627 0.761106 -236.863 292.144)" stroke="#342727" stroke-width="4"/>
<line y1="-2" x2="1013.85" y2="-2" transform="matrix(0.648627 0.761106 -0.648627 0.761106 -242.521 298.782)" stroke="#342727" stroke-width="4"/>
<line y1="-2" x2="1013.85" y2="-2" transform="matrix(0.648627 0.761106 -0.648627 0.761106 -248.178 305.419)" stroke="#342727" stroke-width="4"/>
<line y1="-2" x2="1013.85" y2="-2" transform="matrix(0.648627 0.761106 -0.648627 0.761106 -253.834 312.057)" stroke="#342727" stroke-width="4"/>
<line y1="-2" x2="1013.85" y2="-2" transform="matrix(0.648627 0.761106 -0.648627 0.761106 -259.49 318.695)" stroke="#342727" stroke-width="4"/>
<line y1="-2" x2="1013.85" y2="-2" transform="matrix(0.648627 0.761106 -0.648627 0.761106 -265.148 325.333)" stroke="#342727" stroke-width="4"/>
<line y1="-2" x2="1013.85" y2="-2" transform="matrix(0.648627 0.761106 -0.648627 0.761106 -270.805 331.97)" stroke="#342727" stroke-width="4"/>
<line y1="-2" x2="1013.85" y2="-2" transform="matrix(0.648627 0.761106 -0.648627 0.761106 -276.461 338.608)" stroke="#342727" stroke-width="4"/>
<line y1="-2" x2="1013.85" y2="-2" transform="matrix(0.648627 0.761106 -0.648627 0.761106 -282.119 345.246)" stroke="#342727" stroke-width="4"/>
<line y1="-2" x2="1013.85" y2="-2" transform="matrix(0.648627 0.761106 -0.648627 0.761106 -287.775 351.884)" stroke="#342727" stroke-width="4"/>
<line y1="-2" x2="1013.85" y2="-2" transform="matrix(0.648627 0.761106 -0.648627 0.761106 -293.432 358.521)" stroke="#342727" stroke-width="4"/>
<line y1="-2" x2="1013.85" y2="-2" transform="matrix(0.648627 0.761106 -0.648627 0.761106 -299.09 365.16)" stroke="#342727" stroke-width="4"/>
<line y1="-2" x2="1013.85" y2="-2" transform="matrix(0.648627 0.761106 -0.648627 0.761106 -304.746 371.797)" stroke="#342727" stroke-width="4"/>
<line y1="-2" x2="1013.85" y2="-2" transform="matrix(0.648627 0.761106 -0.648627 0.761106 -310.402 378.435)" stroke="#342727" stroke-width="4"/>
<line y1="-2" x2="1013.85" y2="-2" transform="matrix(0.648627 0.761106 -0.648627 0.761106 -316.061 385.073)" stroke="#342727" stroke-width="4"/>
<line y1="-2" x2="1013.85" y2="-2" transform="matrix(0.648627 0.761106 -0.648627 0.761106 -321.717 391.711)" stroke="#342727" stroke-width="4"/>
<line y1="-2" x2="1013.85" y2="-2" transform="matrix(0.648627 0.761106 -0.648627 0.761106 -327.373 398.349)" stroke="#342727" stroke-width="4"/>
<line y1="-2" x2="1013.85" y2="-2" transform="matrix(0.648627 0.761106 -0.648627 0.761106 -333.031 404.987)" stroke="#342727" stroke-width="4"/>
<line y1="-2" x2="1013.85" y2="-2" transform="matrix(0.648627 0.761106 -0.648627 0.761106 -338.688 411.624)" stroke="#342727" stroke-width="4"/>
<line y1="-2" x2="1013.85" y2="-2" transform="matrix(0.648627 0.761106 -0.648627 0.761106 -344.344 418.262)" stroke="#342727" stroke-width="4"/>
<line y1="-2" x2="1013.85" y2="-2" transform="matrix(0.648627 0.761106 -0.648627 0.761106 -350 424.9)" stroke="#342727" stroke-width="4"/>
</g>
<rect x="294" width="63" height="44.5896" fill="#552A24"/>
<rect x="294" y="114.994" width="63" height="44.5896" fill="#552A24"/>
<rect x="294" y="229.989" width="63" height="44.5896" fill="#552A24"/>
<rect x="294" y="344.983" width="63" height="44.5896" fill="#552A24"/>
<rect x="294" y="459.977" width="63" height="44.5896" fill="#552A24"/>
<rect x="294" y="574.971" width="63" height="44.5896" fill="#552A24"/>
<rect x="294" y="689.965" width="63" height="44.5896" fill="#552A24"/>
<mask id="mask3_326_1736" style="mask-type:alpha" maskUnits="userSpaceOnUse" x="294" y="0" width="23" height="811">
<rect x="294" width="23" height="810.827" fill="black"/>
</mask>
<g mask="url(#mask3_326_1736)">
<line y1="-2" x2="1013.85" y2="-2" transform="matrix(0.648627 0.761106 -0.648627 0.761106 311.773 -179.141)" stroke="#342727" stroke-width="4"/>
<line y1="-2" x2="1013.85" y2="-2" transform="matrix(0.648627 0.761106 -0.648627 0.761106 306.117 -172.503)" stroke="#342727" stroke-width="4"/>
<line y1="-2" x2="1013.85" y2="-2" transform="matrix(0.648627 0.761106 -0.648627 0.761106 300.459 -165.865)" stroke="#342727" stroke-width="4"/>
<line y1="-2" x2="1013.85" y2="-2" transform="matrix(0.648627 0.761106 -0.648627 0.761106 294.803 -159.228)" stroke="#342727" stroke-width="4"/>
<line y1="-2" x2="1013.85" y2="-2" transform="matrix(0.648627 0.761106 -0.648627 0.761106 289.146 -152.59)" stroke="#342727" stroke-width="4"/>
<line y1="-2" x2="1013.85" y2="-2" transform="matrix(0.648627 0.761106 -0.648627 0.761106 283.488 -145.952)" stroke="#342727" stroke-width="4"/>
<line y1="-2" x2="1013.85" y2="-2" transform="matrix(0.648627 0.761106 -0.648627 0.761106 277.832 -139.314)" stroke="#342727" stroke-width="4"/>
<line y1="-2" x2="1013.85" y2="-2" transform="matrix(0.648627 0.761106 -0.648627 0.761106 272.176 -132.676)" stroke="#342727" stroke-width="4"/>
<line y1="-2" x2="1013.85" y2="-2" transform="matrix(0.648627 0.761106 -0.648627 0.761106 266.518 -126.039)" stroke="#342727" stroke-width="4"/>
<line y1="-2" x2="1013.85" y2="-2" transform="matrix(0.648627 0.761106 -0.648627 0.761106 260.861 -119.4)" stroke="#342727" stroke-width="4"/>
<line y1="-2" x2="1013.85" y2="-2" transform="matrix(0.648627 0.761106 -0.648627 0.761106 255.205 -112.763)" stroke="#342727" stroke-width="4"/>
<line y1="-2" x2="1013.85" y2="-2" transform="matrix(0.648627 0.761106 -0.648627 0.761106 249.547 -106.125)" stroke="#342727" stroke-width="4"/>
<line y1="-2" x2="1013.85" y2="-2" transform="matrix(0.648627 0.761106 -0.648627 0.761106 243.891 -99.4873)" stroke="#342727" stroke-width="4"/>
<line y1="-2" x2="1013.85" y2="-2" transform="matrix(0.648627 0.761106 -0.648627 0.761106 238.234 -92.8496)" stroke="#342727" stroke-width="4"/>
<line y1="-2" x2="1013.85" y2="-2" transform="matrix(0.648627 0.761106 -0.648627 0.761106 232.578 -86.2117)" stroke="#342727" stroke-width="4"/>
<line y1="-2" x2="1013.85" y2="-2" transform="matrix(0.648627 0.761106 -0.648627 0.761106 226.92 -79.574)" stroke="#342727" stroke-width="4"/>
<line y1="-2" x2="1013.85" y2="-2" transform="matrix(0.648627 0.761106 -0.648627 0.761106 221.264 -72.936)" stroke="#342727" stroke-width="4"/>
<line y1="-2" x2="1013.85" y2="-2" transform="matrix(0.648627 0.761106 -0.648627 0.761106 215.607 -66.2983)" stroke="#342727" stroke-width="4"/>
<line y1="-2" x2="1013.85" y2="-2" transform="matrix(0.648627 0.761106 -0.648627 0.761106 209.949 -59.6604)" stroke="#342727" stroke-width="4"/>
<line y1="-2" x2="1013.85" y2="-2" transform="matrix(0.648627 0.761106 -0.648627 0.761106 204.293 -53.0225)" stroke="#342727" stroke-width="4"/>
<line y1="-2" x2="1013.85" y2="-2" transform="matrix(0.648627 0.761106 -0.648627 0.761106 198.637 -46.3848)" stroke="#342727" stroke-width="4"/>
<line y1="-2" x2="1013.85" y2="-2" transform="matrix(0.648627 0.761106 -0.648627 0.761106 192.979 -39.7471)" stroke="#342727" stroke-width="4"/>
<line y1="-2" x2="1013.85" y2="-2" transform="matrix(0.648627 0.761106 -0.648627 0.761106 187.322 -33.1091)" stroke="#342727" stroke-width="4"/>
<line y1="-2" x2="1013.85" y2="-2" transform="matrix(0.648627 0.761106 -0.648627 0.761106 181.666 -26.4714)" stroke="#342727" stroke-width="4"/>
<line y1="-2" x2="1013.85" y2="-2" transform="matrix(0.648627 0.761106 -0.648627 0.761106 176.008 -19.8335)" stroke="#342727" stroke-width="4"/>
<line y1="-2" x2="1013.85" y2="-2" transform="matrix(0.648627 0.761106 -0.648627 0.761106 170.352 -13.1956)" stroke="#342727" stroke-width="4"/>
<line y1="-2" x2="1013.85" y2="-2" transform="matrix(0.648627 0.761106 -0.648627 0.761106 164.695 -6.55786)" stroke="#342727" stroke-width="4"/>
<line y1="-2" x2="1013.85" y2="-2" transform="matrix(0.648627 0.761106 -0.648627 0.761106 159.037 0.079834)" stroke="#342727" stroke-width="4"/>
<line y1="-2" x2="1013.85" y2="-2" transform="matrix(0.648627 0.761106 -0.648627 0.761106 153.381 6.71777)" stroke="#342727" stroke-width="4"/>
<line y1="-2" x2="1013.85" y2="-2" transform="matrix(0.648627 0.761106 -0.648627 0.761106 147.725 13.3555)" stroke="#342727" stroke-width="4"/>
<line y1="-2" x2="1013.85" y2="-2" transform="matrix(0.648627 0.761106 -0.648627 0.761106 142.068 19.9934)" stroke="#342727" stroke-width="4"/>
<line y1="-2" x2="1013.85" y2="-2" transform="matrix(0.648627 0.761106 -0.648627 0.761106 136.41 26.6311)" stroke="#342727" stroke-width="4"/>
<line y1="-2" x2="1013.85" y2="-2" transform="matrix(0.648627 0.761106 -0.648627 0.761106 130.754 33.269)" stroke="#342727" stroke-width="4"/>
<line y1="-2" x2="1013.85" y2="-2" transform="matrix(0.648627 0.761106 -0.648627 0.761106 125.098 39.9067)" stroke="#342727" stroke-width="4"/>
<line y1="-2" x2="1013.85" y2="-2" transform="matrix(0.648627 0.761106 -0.648627 0.761106 119.439 46.5444)" stroke="#342727" stroke-width="4"/>
<line y1="-2" x2="1013.85" y2="-2" transform="matrix(0.648627 0.761106 -0.648627 0.761106 113.783 53.1824)" stroke="#342727" stroke-width="4"/>
<line y1="-2" x2="1013.85" y2="-2" transform="matrix(0.648627 0.761106 -0.648627 0.761106 108.127 59.8201)" stroke="#342727" stroke-width="4"/>
<line y1="-2" x2="1013.85" y2="-2" transform="matrix(0.648627 0.761106 -0.648627 0.761106 102.469 66.458)" stroke="#342727" stroke-width="4"/>
<line y1="-2" x2="1013.85" y2="-2" transform="matrix(0.648627 0.761106 -0.648627 0.761106 96.8125 73.0959)" stroke="#342727" stroke-width="4"/>
<line y1="-2" x2="1013.85" y2="-2" transform="matrix(0.648627 0.761106 -0.648627 0.761106 91.1562 79.7334)" stroke="#342727" stroke-width="4"/>
<line y1="-2" x2="1013.85" y2="-2" transform="matrix(0.648627 0.761106 -0.648627 0.761106 85.498 86.3713)" stroke="#342727" stroke-width="4"/>
<line y1="-2" x2="1013.85" y2="-2" transform="matrix(0.648627 0.761106 -0.648627 0.761106 79.8418 93.0093)" stroke="#342727" stroke-width="4"/>
<line y1="-2" x2="1013.85" y2="-2" transform="matrix(0.648627 0.761106 -0.648627 0.761106 74.1855 99.647)" stroke="#342727" stroke-width="4"/>
<line y1="-2" x2="1013.85" y2="-2" transform="matrix(0.648627 0.761106 -0.648627 0.761106 68.5293 106.285)" stroke="#342727" stroke-width="4"/>
<line y1="-2" x2="1013.85" y2="-2" transform="matrix(0.648627 0.761106 -0.648627 0.761106 62.8711 112.923)" stroke="#342727" stroke-width="4"/>
<line y1="-2" x2="1013.85" y2="-2" transform="matrix(0.648627 0.761106 -0.648627 0.761106 57.2148 119.561)" stroke="#342727" stroke-width="4"/>
<line y1="-2" x2="1013.85" y2="-2" transform="matrix(0.648627 0.761106 -0.648627 0.761106 51.5586 126.198)" stroke="#342727" stroke-width="4"/>
<line y1="-2" x2="1013.85" y2="-2" transform="matrix(0.648627 0.761106 -0.648627 0.761106 45.9004 132.836)" stroke="#342727" stroke-width="4"/>
<line y1="-2" x2="1013.85" y2="-2" transform="matrix(0.648627 0.761106 -0.648627 0.761106 40.2441 139.474)" stroke="#342727" stroke-width="4"/>
<line y1="-2" x2="1013.85" y2="-2" transform="matrix(0.648627 0.761106 -0.648627 0.761106 34.5879 146.112)" stroke="#342727" stroke-width="4"/>
<line y1="-2" x2="1013.85" y2="-2" transform="matrix(0.648627 0.761106 -0.648627 0.761106 28.9297 152.75)" stroke="#342727" stroke-width="4"/>
<line y1="-2" x2="1013.85" y2="-2" transform="matrix(0.648627 0.761106 -0.648627 0.761106 23.2734 159.387)" stroke="#342727" stroke-width="4"/>
<line y1="-2" x2="1013.85" y2="-2" transform="matrix(0.648627 0.761106 -0.648627 0.761106 17.6172 166.025)" stroke="#342727" stroke-width="4"/>
<line y1="-2" x2="1013.85" y2="-2" transform="matrix(0.648627 0.761106 -0.648627 0.761106 11.959 172.663)" stroke="#342727" stroke-width="4"/>
<line y1="-2" x2="1013.85" y2="-2" transform="matrix(0.648627 0.761106 -0.648627 0.761106 6.30273 179.301)" stroke="#342727" stroke-width="4"/>
<line y1="-2" x2="1013.85" y2="-2" transform="matrix(0.648627 0.761106 -0.648627 0.761106 0.646484 185.938)" stroke="#342727" stroke-width="4"/>
<line y1="-2" x2="1013.85" y2="-2" transform="matrix(0.648627 0.761106 -0.648627 0.761106 -5.00977 192.576)" stroke="#342727" stroke-width="4"/>
<line y1="-2" x2="1013.85" y2="-2" transform="matrix(0.648627 0.761106 -0.648627 0.761106 -10.668 199.214)" stroke="#342727" stroke-width="4"/>
<line y1="-2" x2="1013.85" y2="-2" transform="matrix(0.648627 0.761106 -0.648627 0.761106 -16.3242 205.852)" stroke="#342727" stroke-width="4"/>
<line y1="-2" x2="1013.85" y2="-2" transform="matrix(0.648627 0.761106 -0.648627 0.761106 -21.9805 212.49)" stroke="#342727" stroke-width="4"/>
<line y1="-2" x2="1013.85" y2="-2" transform="matrix(0.648627 0.761106 -0.648627 0.761106 -27.6387 219.127)" stroke="#342727" stroke-width="4"/>
<line y1="-2" x2="1013.85" y2="-2" transform="matrix(0.648627 0.761106 -0.648627 0.761106 -27.6387 219.127)" stroke="#342727" stroke-width="4"/>
<line y1="-2" x2="1013.85" y2="-2" transform="matrix(0.648627 0.761106 -0.648627 0.761106 -33.2949 225.765)" stroke="#342727" stroke-width="4"/>
<line y1="-2" x2="1013.85" y2="-2" transform="matrix(0.648627 0.761106 -0.648627 0.761106 -38.9512 232.403)" stroke="#342727" stroke-width="4"/>
<line y1="-2" x2="1013.85" y2="-2" transform="matrix(0.648627 0.761106 -0.648627 0.761106 -44.6094 239.041)" stroke="#342727" stroke-width="4"/>
<line y1="-2" x2="1013.85" y2="-2" transform="matrix(0.648627 0.761106 -0.648627 0.761106 -50.2656 245.679)" stroke="#342727" stroke-width="4"/>
<line y1="-2" x2="1013.85" y2="-2" transform="matrix(0.648627 0.761106 -0.648627 0.761106 -55.9219 252.317)" stroke="#342727" stroke-width="4"/>
<line y1="-2" x2="1013.85" y2="-2" transform="matrix(0.648627 0.761106 -0.648627 0.761106 -61.5801 258.955)" stroke="#342727" stroke-width="4"/>
<line y1="-2" x2="1013.85" y2="-2" transform="matrix(0.648627 0.761106 -0.648627 0.761106 -67.2363 265.592)" stroke="#342727" stroke-width="4"/>
<line y1="-2" x2="1013.85" y2="-2" transform="matrix(0.648627 0.761106 -0.648627 0.761106 -72.8926 272.23)" stroke="#342727" stroke-width="4"/>
<line y1="-2" x2="1013.85" y2="-2" transform="matrix(0.648627 0.761106 -0.648627 0.761106 -78.5508 278.868)" stroke="#342727" stroke-width="4"/>
<line y1="-2" x2="1013.85" y2="-2" transform="matrix(0.648627 0.761106 -0.648627 0.761106 -84.207 285.506)" stroke="#342727" stroke-width="4"/>
<line y1="-2" x2="1013.85" y2="-2" transform="matrix(0.648627 0.761106 -0.648627 0.761106 -89.8633 292.144)" stroke="#342727" stroke-width="4"/>
<line y1="-2" x2="1013.85" y2="-2" transform="matrix(0.648627 0.761106 -0.648627 0.761106 -95.5215 298.782)" stroke="#342727" stroke-width="4"/>
<line y1="-2" x2="1013.85" y2="-2" transform="matrix(0.648627 0.761106 -0.648627 0.761106 -101.178 305.419)" stroke="#342727" stroke-width="4"/>
<line y1="-2" x2="1013.85" y2="-2" transform="matrix(0.648627 0.761106 -0.648627 0.761106 -106.834 312.057)" stroke="#342727" stroke-width="4"/>
<line y1="-2" x2="1013.85" y2="-2" transform="matrix(0.648627 0.761106 -0.648627 0.761106 -112.49 318.695)" stroke="#342727" stroke-width="4"/>
<line y1="-2" x2="1013.85" y2="-2" transform="matrix(0.648627 0.761106 -0.648627 0.761106 -118.148 325.333)" stroke="#342727" stroke-width="4"/>
<line y1="-2" x2="1013.85" y2="-2" transform="matrix(0.648627 0.761106 -0.648627 0.761106 -123.805 331.97)" stroke="#342727" stroke-width="4"/>
<line y1="-2" x2="1013.85" y2="-2" transform="matrix(0.648627 0.761106 -0.648627 0.761106 -129.461 338.608)" stroke="#342727" stroke-width="4"/>
<line y1="-2" x2="1013.85" y2="-2" transform="matrix(0.648627 0.761106 -0.648627 0.761106 -135.119 345.246)" stroke="#342727" stroke-width="4"/>
<line y1="-2" x2="1013.85" y2="-2" transform="matrix(0.648627 0.761106 -0.648627 0.761106 -140.775 351.884)" stroke="#342727" stroke-width="4"/>
<line y1="-2" x2="1013.85" y2="-2" transform="matrix(0.648627 0.761106 -0.648627 0.761106 -146.432 358.521)" stroke="#342727" stroke-width="4"/>
<line y1="-2" x2="1013.85" y2="-2" transform="matrix(0.648627 0.761106 -0.648627 0.761106 -152.09 365.16)" stroke="#342727" stroke-width="4"/>
<line y1="-2" x2="1013.85" y2="-2" transform="matrix(0.648627 0.761106 -0.648627 0.761106 -157.746 371.797)" stroke="#342727" stroke-width="4"/>
<line y1="-2" x2="1013.85" y2="-2" transform="matrix(0.648627 0.761106 -0.648627 0.761106 -163.402 378.435)" stroke="#342727" stroke-width="4"/>
<line y1="-2" x2="1013.85" y2="-2" transform="matrix(0.648627 0.761106 -0.648627 0.761106 -169.061 385.073)" stroke="#342727" stroke-width="4"/>
<line y1="-2" x2="1013.85" y2="-2" transform="matrix(0.648627 0.761106 -0.648627 0.761106 -174.717 391.711)" stroke="#342727" stroke-width="4"/>
<line y1="-2" x2="1013.85" y2="-2" transform="matrix(0.648627 0.761106 -0.648627 0.761106 -180.373 398.349)" stroke="#342727" stroke-width="4"/>
<line y1="-2" x2="1013.85" y2="-2" transform="matrix(0.648627 0.761106 -0.648627 0.761106 -186.031 404.987)" stroke="#342727" stroke-width="4"/>
<line y1="-2" x2="1013.85" y2="-2" transform="matrix(0.648627 0.761106 -0.648627 0.761106 -191.688 411.624)" stroke="#342727" stroke-width="4"/>
<line y1="-2" x2="1013.85" y2="-2" transform="matrix(0.648627 0.761106 -0.648627 0.761106 -197.344 418.262)" stroke="#342727" stroke-width="4"/>
<line y1="-2" x2="1013.85" y2="-2" transform="matrix(0.648627 0.761106 -0.648627 0.761106 -203 424.9)" stroke="#342727" stroke-width="4"/>
</g>
<rect x="63" y="44.5896" width="84" height="70.4046" fill="#213F1F"/>
<rect x="63" y="159.584" width="84" height="70.4046" fill="#213F1F"/>
<rect x="63" y="274.578" width="84" height="70.4046" fill="#213F1F"/>
<rect x="63" y="389.572" width="84" height="70.4046" fill="#213F1F"/>
<rect x="63" y="504.566" width="84" height="70.4046" fill="#213F1F"/>
<rect x="63" y="619.561" width="84" height="70.4046" fill="#213F1F"/>
<rect x="63" y="734.555" width="84" height="70.4046" fill="#213F1F"/>
<rect x="210" y="44.5896" width="84" height="70.4046" fill="#213F1F"/>
<rect x="210" y="159.584" width="84" height="70.4046" fill="#213F1F"/>
<rect x="210" y="274.578" width="84" height="70.4046" fill="#213F1F"/>
<rect x="210" y="389.572" width="84" height="70.4046" fill="#213F1F"/>
<rect x="210" y="504.566" width="84" height="70.4046" fill="#213F1F"/>
<rect x="210" y="619.561" width="84" height="70.4046" fill="#213F1F"/>
<rect x="210" y="734.555" width="84" height="70.4046" fill="#213F1F"/>
<rect x="357" y="44.5896" width="18" height="70.4046" fill="#213F1F"/>
<rect x="357" y="159.584" width="18" height="70.4046" fill="#213F1F"/>
<rect x="357" y="274.578" width="18" height="70.4046" fill="#213F1F"/>
<rect x="357" y="389.572" width="18" height="70.4046" fill="#213F1F"/>
<rect x="357" y="504.566" width="18" height="70.4046" fill="#213F1F"/>
<rect x="357" y="619.561" width="18" height="70.4046" fill="#213F1F"/>
<rect x="357" y="734.555" width="18" height="70.4046" fill="#213F1F"/>
</g>
<defs>
<clipPath id="clip0_326_1736">
<rect width="375" height="812" fill="white"/>
</clipPath>
</defs>
</svg>
