<svg width="88" height="112" viewBox="0 0 88 112" fill="none" xmlns="http://www.w3.org/2000/svg">
<path fill-rule="evenodd" clip-rule="evenodd" d="M63.0699 35.3109C65.4078 31.731 66.7656 27.4605 66.7656 22.8749C66.7656 10.2414 56.4599 0 43.7472 0C31.0345 0 20.7289 10.2414 20.7289 22.8749C20.7289 26.5172 21.5855 29.9608 23.1095 33.0174L22.3106 32.6021C14.8657 28.7318 5.66023 31.6167 1.74962 39.0457C-2.16099 46.4746 0.704125 55.6345 8.14905 59.5048L16.6999 63.95C17.4919 64.3618 18.3039 64.697 19.1272 64.9585C18.6951 68.5769 18.3 72.7355 18.1318 76.6651C16.9073 77.5132 15.7801 78.5437 14.7917 79.7524L10.0923 85.4985C4.4101 92.4464 5.46314 102.65 12.4443 108.288C19.4255 113.927 29.6912 112.865 35.3734 105.917L40.0728 100.171C41.7039 98.1765 42.78 95.9139 43.3202 93.5679C43.7982 95.5335 44.6562 97.4434 45.9118 99.1907L50.2256 105.194C55.4659 112.486 65.6488 114.186 72.9698 108.99C80.2907 103.795 81.9774 93.6714 76.737 86.379L72.4233 80.3761C71.28 78.7852 69.9015 77.4605 68.3689 76.4154C68.3916 73.3817 68.2329 69.312 67.6573 65.9302C68.111 65.8094 68.5631 65.6666 69.0124 65.5012L78.1001 62.1553C85.9682 59.2585 89.9705 50.5369 87.0395 42.675C84.1086 34.8132 75.3542 30.7882 67.4862 33.685L63.0699 35.3109Z" fill="#A76A29"/>
<path fill-rule="evenodd" clip-rule="evenodd" d="M71.2838 35.1352C71.408 34.9019 71.6976 34.8135 71.9307 34.9379C73.199 35.6144 74.8501 36.8774 75.5014 38.4799C75.8357 39.3025 75.9075 40.2203 75.5209 41.1667C75.2286 41.8823 74.6868 42.5837 73.8559 43.2623C75.1696 43.6776 76.6011 44.4653 77.3582 45.7596C77.8501 46.6006 78.0383 47.627 77.7506 48.831C77.4942 49.9039 76.8642 51.1034 75.765 52.4442C76.2629 52.7513 76.774 53.1292 77.2293 53.5635C77.8394 54.1454 78.3766 54.8548 78.6226 55.6575C78.8747 56.4802 78.8109 57.3736 78.2609 58.261C77.7228 59.1292 76.7393 59.961 75.2123 60.7413C74.9771 60.8615 74.6891 60.7681 74.569 60.5326C74.4489 60.2972 74.5422 60.0089 74.7774 59.8887C76.2226 59.1502 77.0375 58.4191 77.4482 57.7563C77.8471 57.1127 77.8825 56.507 77.7082 55.9382C77.5278 55.3494 77.113 54.7749 76.5695 54.2565C76.0295 53.7414 75.389 53.3072 74.8038 52.995L74.2711 52.7109L74.6692 52.2569C75.9429 50.8042 76.5846 49.595 76.8204 48.6083C77.0528 47.6357 76.8956 46.8635 76.5328 46.2433C75.7834 44.9619 74.0816 44.2146 72.6629 43.9467L71.4984 43.7269L72.4892 43.0762C73.7103 42.2742 74.3516 41.4996 74.6356 40.8044C74.9145 40.1217 74.8695 39.4656 74.6155 38.8406C74.0901 37.548 72.6781 36.4213 71.4809 35.7827C71.2478 35.6584 71.1596 35.3685 71.2838 35.1352Z" fill="white"/>
<path fill-rule="evenodd" clip-rule="evenodd" d="M73.9855 85.7958C74.2496 85.7946 74.4647 86.0079 74.466 86.2723C74.4729 87.7773 74.1275 89.9369 72.9903 91.4134C72.4109 92.1658 71.6184 92.7488 70.5688 92.956C69.7474 93.1182 68.8032 93.0434 67.7243 92.6837C68.0155 94.0936 68.0175 95.8409 67.1918 97.2679C66.1781 99.02 64.0352 100.108 60.2275 99.6994C60.1546 101.136 59.7572 102.934 58.7012 104.096C58.086 104.774 57.2507 105.23 56.1676 105.262C55.1019 105.295 53.8425 104.917 52.3575 104.03C52.1307 103.894 52.0565 103.6 52.1919 103.373C52.3272 103.146 52.6208 103.072 52.8476 103.208C54.2426 104.041 55.3198 104.33 56.1386 104.306C56.94 104.281 57.5371 103.955 57.9935 103.452C58.9429 102.407 59.2904 100.583 59.2838 99.1622L59.2812 98.6104L59.8273 98.6858C63.7692 99.2299 65.5784 98.1463 66.3642 96.7882C67.188 95.3642 67.0218 93.4302 66.5664 92.0439L66.2284 91.015L67.216 91.4575C68.5574 92.0584 69.5917 92.1732 70.3838 92.0168C71.1682 91.862 71.7696 91.4305 72.2329 90.8289C73.1812 89.5976 73.5161 87.6914 73.5096 86.2767C73.5083 86.0123 73.7215 85.797 73.9855 85.7958Z" fill="white"/>
<path fill-rule="evenodd" clip-rule="evenodd" d="M12.3856 85.7958C12.1215 85.7946 11.9064 86.0079 11.9052 86.2723C11.8982 87.7773 12.2437 89.9369 13.3808 91.4134C13.9603 92.1658 14.7528 92.7488 15.8024 92.956C16.6237 93.1182 17.568 93.0434 18.6469 92.6837C18.3557 94.0936 18.3537 95.8409 19.1794 97.2679C20.1931 99.02 22.3359 100.108 26.1437 99.6994C26.2165 101.136 26.614 102.934 27.67 104.096C28.2851 104.774 29.1204 105.23 30.2036 105.262C31.2692 105.295 32.5287 104.917 34.0137 104.03C34.2405 103.894 34.3146 103.6 34.1793 103.373C34.044 103.146 33.7504 103.072 33.5236 103.208C32.1286 104.041 31.0514 104.33 30.2326 104.306C29.4311 104.281 28.834 103.955 28.3776 103.452C27.4283 102.407 27.0808 100.583 27.0874 99.1622L27.0899 98.6104L26.5439 98.6858C22.602 99.2299 20.7928 98.1463 20.007 96.7882C19.1831 95.3642 19.3494 93.4302 19.8048 92.0439L20.1428 91.015L19.1552 91.4575C17.8138 92.0584 16.7794 92.1732 15.9874 92.0168C15.203 91.862 14.6015 91.4305 14.1383 90.8289C13.19 89.5976 12.855 87.6914 12.8616 86.2767C12.8628 86.0123 12.6497 85.797 12.3856 85.7958Z" fill="white"/>
<path fill-rule="evenodd" clip-rule="evenodd" d="M18.1513 33.9839C18.032 33.7481 17.7443 33.6537 17.5086 33.7732C16.2265 34.4231 14.5495 35.6515 13.865 37.24C13.5137 38.0554 13.4228 38.9715 13.7897 39.9258C14.067 40.6473 14.5941 41.3599 15.4107 42.0557C14.0886 42.4435 12.641 43.2011 11.8572 44.4794C11.3479 45.31 11.1384 46.3322 11.401 47.542C11.635 48.62 12.2399 49.8323 13.311 51.1957C12.8068 51.4925 12.288 51.8596 11.8237 52.2843C11.2016 52.8534 10.6498 53.5514 10.3871 54.3488C10.118 55.1661 10.1632 56.0606 10.6945 56.9593C11.2144 57.8386 12.1805 58.6906 13.6909 59.5026C13.9235 59.6277 14.2135 59.5403 14.3384 59.3074C14.4634 59.0745 14.3761 58.7843 14.1434 58.6592C12.7139 57.8907 11.9144 57.1428 11.5176 56.4717C11.1322 55.8199 11.1094 55.2135 11.2955 54.6485C11.4881 54.0636 11.9148 53.4979 12.4689 52.9909C13.0195 52.4872 13.6689 52.0664 14.2605 51.7665L14.7989 51.4936L14.4104 51.0313C13.1672 49.5525 12.5508 48.3301 12.3356 47.3387C12.1234 46.3615 12.2967 45.5927 12.6723 44.9802C13.4483 43.7147 15.1652 43.003 16.5891 42.7648L17.758 42.5693L16.7809 41.8981C15.5768 41.0709 14.9517 40.283 14.6823 39.582C14.4177 38.8937 14.4763 38.2387 14.7432 37.6191C15.2954 36.3377 16.7306 35.2407 17.9408 34.6272C18.1764 34.5078 18.2706 34.2198 18.1513 33.9839Z" fill="white"/>
<path d="M54.5148 19.1463C54.5148 20.2037 53.6584 21.0609 52.602 21.0609C51.5456 21.0609 50.6892 20.2037 50.6892 19.1463C50.6892 18.0888 51.5456 17.2316 52.602 17.2316C53.6584 17.2316 54.5148 18.0888 54.5148 19.1463Z" fill="black"/>
<path d="M45.9072 22.0182C45.9072 23.0756 45.0508 23.9328 43.9944 23.9328C42.938 23.9328 42.0816 23.0756 42.0816 22.0182C42.0816 20.9608 42.938 20.1036 43.9944 20.1036C45.0508 20.1036 45.9072 20.9608 45.9072 22.0182Z" fill="#A76A29"/>
<path d="M46.8636 56.4815C46.8636 58.0676 45.579 59.3534 43.9944 59.3534C42.4098 59.3534 41.1252 58.0676 41.1252 56.4815C41.1252 54.8953 42.4098 53.6095 43.9944 53.6095C45.579 53.6095 46.8636 54.8953 46.8636 56.4815Z" fill="white"/>
<path d="M46.8636 68.9265C46.8636 70.5127 45.579 71.7985 43.9944 71.7985C42.4098 71.7985 41.1252 70.5127 41.1252 68.9265C41.1252 67.3404 42.4098 66.0546 43.9944 66.0546C45.579 66.0546 46.8636 67.3404 46.8636 68.9265Z" fill="white"/>
<path d="M37.2996 19.1463C37.2996 20.2037 36.4432 21.0609 35.3868 21.0609C34.3304 21.0609 33.474 20.2037 33.474 19.1463C33.474 18.0888 34.3304 17.2316 35.3868 17.2316C36.4432 17.2316 37.2996 18.0888 37.2996 19.1463Z" fill="black"/>
<path fill-rule="evenodd" clip-rule="evenodd" d="M37.2996 26.3261C38.0919 26.3261 38.7342 26.969 38.7342 27.7621C38.7342 28.0818 38.9738 28.6519 39.9722 29.223C40.9301 29.7709 42.3491 30.1554 43.9944 30.1554C45.6397 30.1554 47.0588 29.7709 48.0166 29.223C49.015 28.6519 49.2546 28.0818 49.2546 27.7621C49.2546 26.969 49.8969 26.3261 50.6892 26.3261C51.4815 26.3261 52.1238 26.969 52.1238 27.7621C52.1238 29.5572 50.8647 30.9017 49.4401 31.7165C47.9749 32.5546 46.0465 33.0273 43.9944 33.0273C41.9423 33.0273 40.0139 32.5546 38.5487 31.7165C37.1241 30.9017 35.865 29.5572 35.865 27.7621C35.865 26.969 36.5073 26.3261 37.2996 26.3261Z" fill="black"/>
<path d="M37.6124 48.7553C36.0238 47.2719 36.1794 45.1416 36.7215 43.5462C37.015 42.6821 37.9903 42.3428 38.8489 42.6498L44.0673 44.5151V47.3871L39.1833 49.0166C38.642 49.1971 38.0296 49.1449 37.6124 48.7553Z" fill="#57A552"/>
<path d="M50.5221 48.7553C52.1107 47.2719 51.9551 45.1416 51.4131 43.5462C51.1195 42.6821 50.1443 42.3428 49.2856 42.6498L44.0673 44.5151V47.3871L48.9513 49.0166C49.4925 49.1971 50.1049 49.1449 50.5221 48.7553Z" fill="#57A552"/>
</svg>
