<svg width="130" height="104" viewBox="0 0 130 104" fill="none" xmlns="http://www.w3.org/2000/svg">
<mask id="mask0_326_1420" style="mask-type:alpha" maskUnits="userSpaceOnUse" x="0" y="0" width="130" height="104">
<rect width="130" height="104" fill="#D9D9D9"/>
</mask>
<g mask="url(#mask0_326_1420)">
<path d="M98.8159 51.3333C98.8159 68.6677 85.6445 82.72 69.3969 82.72C53.1492 82.72 39.9779 68.6677 39.9779 51.3333C39.9779 33.999 53.1492 19.9467 69.3969 19.9467C85.6445 19.9467 98.8159 33.999 98.8159 51.3333Z" fill="#FEAE80"/>
<path d="M69.4536 58.6885C34.544 58.6885 27.453 95.8295 28.2712 114.4H79.1356H130C127.164 62.5206 88.4539 55.6426 69.4536 58.6885Z" fill="#FA482C"/>
<path d="M103.195 91.1196C103.051 90.6552 103.312 90.1626 103.778 90.0194C104.244 89.8761 104.738 90.1365 104.881 90.6009L112.164 114.4H110.5L103.195 91.1196Z" fill="#0C0C0C"/>
<path d="M12.324 45.8416C12.324 63.3349 25.0096 82.8005 31.3525 90.3467L47.6268 65.9074C31.6028 57.6753 24.5569 42.5924 24.9742 38.1333L12.324 45.8416Z" fill="#FA482C"/>
<path d="M22.2581 16.2365C27.1505 16.9352 26.205 30.8264 25.1206 37.6846L10.5983 43.6112C7.10437 41.4528 3.73638 36.2107 2.48914 33.8595C-1.70124 24.9639 0.331258 19.2288 1.8713 17.4733C6.66617 12.2316 13.271 17.4223 15.9741 20.6728C18.5053 16.2931 21.2181 15.8904 22.2581 16.2365Z" fill="#FA482C"/>
<path d="M22.0879 36.1611C24.5953 34.8168 25.8065 36.6608 26.5429 37.7204C26.9603 38.3211 27.7373 39.6457 28.3488 41.3094C28.594 41.9765 28.5769 43.2869 28.4493 43.9043C28.0523 45.8242 23.873 47.0394 21.929 47.7124C18.3943 48.7877 14.404 49.705 12.8507 50.0293C9.86563 50.6524 9.33744 48.721 9.13647 47.9861L9.13432 47.9782C8.40879 45.3258 7.88017 44.2882 7.88923 43.2174C7.90493 41.3609 11.6323 40.5182 13.3653 39.8383L22.0879 36.1611Z" fill="white"/>
<path d="M36.2482 49.7421C30.9602 39.1969 40.491 33.8145 45.8617 32.8533C44.2092 35.8192 46.9895 39.4441 52.7733 41.0918C55.0868 41.7509 57.3176 43.8379 58.1439 44.7991C62.4404 50.0717 67.0949 51.1152 68.8851 50.9779C72.1901 51.3074 76.3214 47.8198 77.9739 46.0348C80.6433 43.1514 84.997 41.7783 86.6495 41.0918C92.3447 39.0322 93.2595 34.3637 93.6727 32.8533C102.596 34.1715 103.175 42.1902 102.348 46.0348C107.967 53.6142 102.211 60.4521 98.6302 62.9237C101.274 74.787 91.7447 78.3021 86.6495 78.5767C84.0055 89.781 73.7049 87.639 68.8851 85.1674C57.6481 89.1219 53.4618 83.5198 52.7733 80.2244C42.1972 79.8949 40.9304 72.6725 41.6189 69.1025C31.3734 64.8185 33.7695 54.4106 36.2482 49.7421Z" fill="white"/>
<path d="M92.3437 31.3536H48.2152C49.7635 1.71147 88.0857 1.50562 107.053 5.10796L103.182 9.73954C92.6534 14.0623 91.5695 25.9501 92.3437 31.3536Z" fill="#FA482C"/>
<path d="M54.9787 27.9406C61.2015 28.6654 75.5588 28.3169 82.113 27.9406C86.832 27.72 90.1092 27.8487 91.1579 27.9406C94.2346 28.2103 94.6972 29.822 94.6972 30.7627V33.0203C94.6972 36.0028 75.2968 35.0898 67.5628 34.9958C64.1022 34.9958 53.2746 34.4313 48.2934 34.1491C44.8328 33.9234 44.492 32.55 44.7541 31.8915L45.9339 29.3517C47.0444 26.69 51.8327 27.7525 54.9787 27.9406Z" fill="white"/>
<path d="M111.76 7.04C111.76 10.9281 108.599 14.08 104.7 14.08C100.8 14.08 97.6391 10.9281 97.6391 7.04C97.6391 3.15192 100.8 0 104.7 0C108.599 0 111.76 3.15192 111.76 7.04Z" fill="white"/>
<path d="M74.6923 49.28C74.6923 51.548 72.3214 53.3867 69.3969 53.3867C66.4723 53.3867 64.1014 51.548 64.1014 49.28C64.1014 47.0119 66.4723 45.1733 69.3969 45.1733C72.3214 45.1733 74.6923 47.0119 74.6923 49.28Z" fill="#FA482C"/>
<path d="M75.0007 36.9263C75.1553 36.2969 75.7924 35.9116 76.4236 36.0658L83.2815 37.7405C83.9127 37.8947 84.2991 38.5299 84.1445 39.1593C83.9899 39.7887 83.3529 40.174 82.7216 40.0198L75.8638 38.3451C75.2325 38.1909 74.8461 37.5557 75.0007 36.9263Z" fill="white"/>
<path d="M92.9321 48.6933C92.9321 50.6374 89.7709 52.2133 85.8715 52.2133C81.9721 52.2133 78.8109 50.6374 78.8109 48.6933C78.8109 46.7493 81.9721 45.1733 85.8715 45.1733C89.7709 45.1733 92.9321 46.7493 92.9321 48.6933Z" fill="url(#paint0_radial_326_1420)"/>
<path d="M59.9828 48.6933C59.9828 50.6374 56.8217 52.2133 52.9222 52.2133C49.0228 52.2133 45.8617 50.6374 45.8617 48.6933C45.8617 46.7493 49.0228 45.1733 52.9222 45.1733C56.8217 45.1733 59.9828 46.7493 59.9828 48.6933Z" fill="url(#paint1_radial_326_1420)"/>
<path d="M79.3993 42.24C79.3993 43.536 78.3456 44.5867 77.0458 44.5867C75.746 44.5867 74.6923 43.536 74.6923 42.24C74.6923 40.944 75.746 39.8933 77.0458 39.8933C78.3456 39.8933 79.3993 40.944 79.3993 42.24Z" fill="#0C0C0C"/>
<path d="M64.0773 36.9263C63.9227 36.2969 63.2856 35.9116 62.6544 36.0658L55.7965 37.7405C55.1652 37.8947 54.7788 38.5299 54.9334 39.1593C55.0881 39.7887 55.7251 40.174 56.3564 40.0198L63.2142 38.3451C63.8455 38.1909 64.2319 37.5557 64.0773 36.9263Z" fill="white"/>
<path d="M59.6787 42.24C59.6787 43.536 60.7324 44.5867 62.0322 44.5867C63.332 44.5867 64.3857 43.536 64.3857 42.24C64.3857 40.944 63.332 39.8933 62.0322 39.8933C60.7324 39.8933 59.6787 40.944 59.6787 42.24Z" fill="#0C0C0C"/>
<path fill-rule="evenodd" clip-rule="evenodd" d="M66.455 55.44C66.9424 55.44 67.3375 55.834 67.3375 56.32C67.3375 56.9569 68.0656 57.7867 69.3969 57.7867C70.7281 57.7867 71.4562 56.9569 71.4562 56.32C71.4562 55.834 71.8513 55.44 72.3388 55.44C72.8262 55.44 73.2213 55.834 73.2213 56.32C73.2213 58.2751 71.3151 59.5467 69.3969 59.5467C67.4786 59.5467 65.5724 58.2751 65.5724 56.32C65.5724 55.834 65.9675 55.44 66.455 55.44Z" fill="black"/>
</g>
<defs>
<radialGradient id="paint0_radial_326_1420" cx="0" cy="0" r="1" gradientUnits="userSpaceOnUse" gradientTransform="translate(65 57.2) rotate(90) scale(57.2 65)">
<stop stop-color="#FF418A" stop-opacity="0.3"/>
<stop offset="0.495" stop-color="#FF418A" stop-opacity="0.15"/>
<stop offset="0.795" stop-color="#FF418A" stop-opacity="0.05"/>
<stop offset="1" stop-color="#FF418A" stop-opacity="0"/>
</radialGradient>
<radialGradient id="paint1_radial_326_1420" cx="0" cy="0" r="1" gradientUnits="userSpaceOnUse" gradientTransform="translate(65 57.2) rotate(90) scale(57.2 65)">
<stop stop-color="#FF418A" stop-opacity="0.3"/>
<stop offset="0.495" stop-color="#FF418A" stop-opacity="0.15"/>
<stop offset="0.795" stop-color="#FF418A" stop-opacity="0.05"/>
<stop offset="1" stop-color="#FF418A" stop-opacity="0"/>
</radialGradient>
</defs>
</svg>
