<svg width="24" height="24" viewBox="0 0 24 24" fill="none" xmlns="http://www.w3.org/2000/svg">
<path d="M11.4178 2.28909C11.8074 1.90364 12.4347 1.90364 12.8243 2.28909L22.9434 12.2995C23.5786 12.9279 23.1336 14.0104 22.2401 14.0104H2.00201C1.1085 14.0104 0.66352 12.9279 1.29873 12.2995L11.4178 2.28909Z" fill="white"/>
<path fill-rule="evenodd" clip-rule="evenodd" d="M5.87448 10.5082C5.3222 10.5082 4.87448 10.9559 4.87448 11.5082V20.97C4.87448 21.5223 5.3222 21.97 5.87448 21.97H18.3681C18.9204 21.97 19.3681 21.5223 19.3681 20.97V11.5082C19.3681 10.9559 18.9204 10.5082 18.3681 10.5082H5.87448ZM12.1211 16.8758C10.787 16.8758 9.70554 17.9573 9.70554 19.2914V21.97H14.5367V19.2914C14.5367 17.9573 13.4552 16.8758 12.1211 16.8758Z" fill="white"/>
</svg>
