<svg width="92" height="112" viewBox="0 0 92 112" fill="none" xmlns="http://www.w3.org/2000/svg">
<path d="M89.5716 49.3015H67.9883L76.8914 62.6986C87.4673 59.4833 89.7515 52.4275 89.5716 49.3015Z" fill="#C8935A"/>
<path fill-rule="evenodd" clip-rule="evenodd" d="M87.8076 55.1668C85.1012 54.6221 78.4899 53.6128 74.4629 56.1387C74.6754 56.4377 74.9528 56.8194 75.263 57.246C76.5227 58.979 78.3223 61.4548 78.5077 62.1547C83.3544 60.3571 86.2129 57.7058 87.8076 55.1668Z" fill="#A96C2C"/>
<path d="M2.1681 49.3015H23.7515L14.8483 62.6986C4.27248 59.4833 1.98824 52.4275 2.1681 49.3015Z" fill="#C8935A"/>
<path fill-rule="evenodd" clip-rule="evenodd" d="M3.93216 55.1668C6.63858 54.6221 13.2499 53.6128 17.2769 56.1387C17.0643 56.4377 16.7869 56.8194 16.4768 57.246C15.217 58.979 13.4174 61.4548 13.2321 62.1547C8.38534 60.3571 5.52686 57.7058 3.93216 55.1668Z" fill="#A96C2C"/>
<path d="M80.9384 75.5598C80.9384 95.6852 65.2357 112 45.8655 112C26.4952 112 10.7925 95.6852 10.7925 75.5598C10.7925 55.4345 26.4952 39.1196 45.8655 39.1196C65.2357 39.1196 80.9384 55.4345 80.9384 75.5598Z" fill="#C8935A"/>
<path fill-rule="evenodd" clip-rule="evenodd" d="M76.8888 2.57238C76.8293 1.09375 75.5741 -0.0569635 74.0852 0.00218157C72.5964 0.0613263 71.4377 1.30794 71.4973 2.78656C71.6661 6.97689 71.1307 14.1076 68.9328 21.5672C68.2154 24.002 67.3286 26.4459 66.2455 28.8191C65.3147 28.2098 64.3137 27.3212 63.5276 26.1376C62.3155 24.3125 61.51 21.6394 62.4897 17.8078C62.8565 16.3735 61.983 14.9156 60.5388 14.5513C59.0947 14.1871 57.6266 15.0546 57.2599 16.4889C55.9112 21.7636 56.9652 25.9893 59.0234 29.0882C60.3675 31.1119 62.0952 32.5917 63.7298 33.5784C61.8443 36.6695 59.5492 39.521 56.7732 41.9222C55.6496 42.8941 55.5321 44.5866 56.5107 45.7025C57.4893 46.8184 59.1935 46.9351 60.3171 45.9632C61.9905 44.5157 63.5022 42.9408 64.8668 41.2752C67.2435 42.1158 70.3724 42.4968 73.7706 41.6683C78.3165 40.56 83.0476 37.3641 87.0211 30.8643C87.7944 29.5994 87.3888 27.9514 86.1151 27.1834C84.8415 26.4154 83.1821 26.8183 82.4088 28.0832C79.044 33.5873 75.4115 35.7502 72.4842 36.4639C70.8904 36.8525 69.416 36.8344 68.1828 36.6189C70.8755 32.2689 72.7832 27.5801 74.1115 23.0722C74.1995 22.7734 74.2851 22.4751 74.3683 22.1774C76.9724 22.2749 80.169 21.7945 83.1799 20.1539C87.2938 17.9123 90.7571 13.6671 91.9614 6.61048C92.2104 5.15148 91.2213 3.76826 89.7523 3.52097C88.2832 3.27369 86.8904 4.25597 86.6414 5.71497C85.6874 11.3053 83.1253 14.0712 80.5844 15.4557C78.939 16.3523 77.1781 16.7351 75.637 16.815C76.7428 11.1594 77.0293 6.06116 76.8888 2.57238Z" fill="black"/>
<path fill-rule="evenodd" clip-rule="evenodd" d="M15.1112 2.57238C15.1707 1.09375 16.4259 -0.0569635 17.9148 0.00218157C19.4036 0.0613263 20.5623 1.30794 20.5027 2.78656C20.3339 6.97689 20.8693 14.1076 23.0672 21.5672C23.7789 23.9826 24.6573 26.4069 25.7286 28.7623C26.7419 28.1401 27.8158 27.2442 28.6538 26.0665C29.9447 24.2525 30.7888 21.6273 29.7545 17.8518C29.3633 16.4239 30.2118 14.9514 31.6495 14.5629C33.0873 14.1744 34.5699 15.017 34.9611 16.4449C36.4215 21.7758 35.2733 26.0493 33.0603 29.1593C31.6705 31.1123 29.9069 32.5471 28.2337 33.5184C30.126 36.6326 32.4329 39.5054 35.2268 41.9222C36.3504 42.8941 36.4679 44.5866 35.4893 45.7025C34.5107 46.8184 32.8065 46.9351 31.6829 45.9632C30.0095 44.5157 28.4978 42.9408 27.1332 41.2752C24.7565 42.1158 21.6276 42.4968 18.2294 41.6683C13.6835 40.56 8.95243 37.3641 4.97891 30.8643C4.20562 29.5994 4.61124 27.9514 5.88489 27.1834C7.15854 26.4154 8.81791 26.8183 9.5912 28.0832C12.956 33.5873 16.5885 35.7502 19.5158 36.4639C21.1096 36.8525 22.584 36.8344 23.8172 36.6189C21.1245 32.2689 19.2168 27.5801 17.8885 23.0722C17.8005 22.7734 17.7149 22.4751 17.6317 22.1774C15.0276 22.2749 11.831 21.7945 8.82015 20.1539C4.70621 17.9123 1.2429 13.6671 0.0386076 6.61048C-0.210387 5.15148 0.778679 3.76826 2.24775 3.52097C3.71681 3.27369 5.10958 4.25597 5.35857 5.71497C6.31262 11.3053 8.87466 14.0712 11.4156 15.4557C13.061 16.3523 14.8219 16.7351 16.363 16.815C15.2572 11.1594 14.9707 6.06116 15.1112 2.57238Z" fill="black"/>
<path d="M64.2108 87.8851C64.2108 97.0599 55.997 104.498 45.8649 104.498C35.7328 104.498 27.519 97.0599 27.519 87.8851C27.519 78.7103 35.7328 71.2727 45.8649 71.2727C55.997 71.2727 64.2108 78.7103 64.2108 87.8851Z" fill="#EDC688"/>
<path d="M64.2113 67.5215C64.2113 69.2972 62.7619 70.7368 60.9738 70.7368C59.1858 70.7368 57.7363 69.2972 57.7363 67.5215C57.7363 65.7457 59.1858 64.3062 60.9738 64.3062C62.7619 64.3062 64.2113 65.7457 64.2113 67.5215Z" fill="black"/>
<path d="M33.9941 67.5215C33.9941 69.2972 32.5446 70.7368 30.7565 70.7368C28.9685 70.7368 27.519 69.2972 27.519 67.5215C27.519 65.7457 28.9685 64.3062 30.7565 64.3062C32.5446 64.3062 33.9941 65.7457 33.9941 67.5215Z" fill="black"/>
<path fill-rule="evenodd" clip-rule="evenodd" d="M45.6214 80.1194C46.0658 80.0721 46.4647 80.3917 46.5123 80.8331C46.6121 81.7595 46.5746 83.1736 46.0903 84.395C45.8448 85.014 45.4689 85.6225 44.8987 86.0787C44.3225 86.5396 43.5939 86.8077 42.7185 86.8133C41.9437 86.8616 40.8055 86.7014 39.8314 86.0353C38.7974 85.3282 38.041 84.1124 38.041 82.2584C38.041 81.8144 38.4034 81.4545 38.8504 81.4545C39.2974 81.4545 39.6598 81.8144 39.6598 82.2584C39.6598 83.6196 40.1833 84.324 40.7494 84.7111C41.3632 85.1309 42.1289 85.2429 42.6336 85.2077L42.662 85.2057H42.6904C43.2288 85.2057 43.6038 85.0503 43.8832 84.8267C44.1746 84.5936 44.409 84.2476 44.5841 83.8059C44.9409 82.9061 44.9857 81.7747 44.9027 81.0042C44.8551 80.5628 45.1769 80.1666 45.6214 80.1194Z" fill="black"/>
<path fill-rule="evenodd" clip-rule="evenodd" d="M46.1086 80.1194C45.6641 80.0721 45.2653 80.3917 45.2177 80.8331C45.1179 81.7595 45.1554 83.1736 45.6397 84.395C45.8851 85.014 46.261 85.6225 46.8313 86.0787C47.4074 86.5396 48.1361 86.8077 49.0114 86.8133C49.7863 86.8616 50.9245 86.7014 51.8986 86.0353C52.9325 85.3282 53.689 84.1124 53.689 82.2584C53.689 81.8144 53.3266 81.4545 52.8796 81.4545C52.4326 81.4545 52.0702 81.8144 52.0702 82.2584C52.0702 83.6196 51.5467 84.324 50.9806 84.7111C50.3667 85.1309 49.6011 85.2429 49.0963 85.2077L49.068 85.2057H49.0396C48.5012 85.2057 48.1262 85.0503 47.8468 84.8267C47.5554 84.5936 47.321 84.2476 47.1459 83.8059C46.7891 82.9061 46.7442 81.7747 46.8273 81.0042C46.8748 80.5628 46.5531 80.1666 46.1086 80.1194Z" fill="black"/>
<path d="M52.8793 75.0239C52.8793 78.2795 49.7387 80.9186 45.8647 80.9186C41.9906 80.9186 38.8501 78.2795 38.8501 75.0239C38.8501 71.7683 41.9906 69.1292 45.8647 69.1292C49.7387 69.1292 52.8793 71.7683 52.8793 75.0239Z" fill="#DC432C"/>
<path d="M33.4548 75.5598C33.4548 78.2234 29.1064 80.3827 23.7423 80.3827C18.3782 80.3827 14.0298 78.2234 14.0298 75.5598C14.0298 72.8961 18.3782 70.7368 23.7423 70.7368C29.1064 70.7368 33.4548 72.8961 33.4548 75.5598Z" fill="url(#paint0_radial_326_2435)"/>
<path d="M77.7004 75.5598C77.7004 78.2234 73.352 80.3827 67.9879 80.3827C62.6238 80.3827 58.2754 78.2234 58.2754 75.5598C58.2754 72.8961 62.6238 70.7368 67.9879 70.7368C73.352 70.7368 77.7004 72.8961 77.7004 75.5598Z" fill="url(#paint1_radial_326_2435)"/>
<defs>
<radialGradient id="paint0_radial_326_2435" cx="0" cy="0" r="1" gradientUnits="userSpaceOnUse" gradientTransform="translate(23.7423 75.5598) rotate(90) scale(4.82297 9.71251)">
<stop stop-color="#FF418A" stop-opacity="0.3"/>
<stop offset="0.495" stop-color="#FF418A" stop-opacity="0.15"/>
<stop offset="0.795" stop-color="#FF418A" stop-opacity="0.05"/>
<stop offset="1" stop-color="#FF418A" stop-opacity="0"/>
</radialGradient>
<radialGradient id="paint1_radial_326_2435" cx="0" cy="0" r="1" gradientUnits="userSpaceOnUse" gradientTransform="translate(67.9879 75.5598) rotate(90) scale(4.82297 9.71251)">
<stop stop-color="#FF418A" stop-opacity="0.3"/>
<stop offset="0.495" stop-color="#FF418A" stop-opacity="0.15"/>
<stop offset="0.795" stop-color="#FF418A" stop-opacity="0.05"/>
<stop offset="1" stop-color="#FF418A" stop-opacity="0"/>
</radialGradient>
</defs>
</svg>
