<svg width="100" height="112" viewBox="0 0 100 112" fill="none" xmlns="http://www.w3.org/2000/svg">
<path d="M83.3333 65.975C83.3333 88.2536 66.3744 106.314 45.4545 106.314C24.5347 106.314 7.57576 88.2536 7.57576 65.975C7.57576 43.6964 24.5347 25.636 45.4545 25.636C66.3744 25.636 83.3333 43.6964 83.3333 65.975Z" fill="#FEAE80"/>
<path d="M2.77365 63.9299C-4.03499 50.3769 8.2365 43.4593 15.1515 42.224C13.0238 46.0358 16.6037 50.6946 24.0506 52.8123C27.0294 53.6593 29.9018 56.3417 30.9656 57.577C36.4977 64.3535 42.4907 65.6946 44.7957 65.5182C49.0511 65.9417 54.3703 61.4593 56.498 59.1652C59.9351 55.4593 65.5407 53.6946 67.6684 52.8123C75.0014 50.1652 76.1792 44.1652 76.7112 42.224C88.2007 43.9181 88.9454 54.224 87.8816 59.1652C95.1157 68.9064 87.7043 77.6947 83.0942 80.8712C86.4986 96.1183 74.2288 100.636 67.6684 100.989C64.2641 115.389 51.0015 112.636 44.7957 109.459C30.3273 114.542 24.9372 107.342 24.0506 103.107C10.4334 102.683 8.80219 93.4006 9.68876 88.8124C-3.50297 83.3065 -0.41787 69.93 2.77365 63.9299Z" fill="white"/>
<path d="M75 40.2965H18.1818C20.1754 2.19963 69.5175 1.93507 93.9394 6.56489L88.9553 12.5175C75.3987 18.0733 74.0032 33.3517 75 40.2965Z" fill="#FA482C"/>
<path d="M26.8902 35.91C34.9025 36.8416 53.3885 36.3936 61.8274 35.91C67.9034 35.6265 72.123 35.7919 73.4733 35.91C77.4347 36.2567 78.0303 38.328 78.0303 39.537V42.4386C78.0303 46.2717 53.0511 45.0984 43.0931 44.9775C38.6374 44.9775 24.6962 44.2521 18.2825 43.8894C13.8268 43.5992 13.388 41.8341 13.7255 40.9878L15.2445 37.7235C16.6744 34.3027 22.8395 35.6682 26.8902 35.91Z" fill="white"/>
<path d="M100 9.048C100 14.0451 95.9299 18.096 90.9091 18.096C85.8883 18.096 81.8182 14.0451 81.8182 9.048C81.8182 4.05093 85.8883 0 90.9091 0C95.9299 0 100 4.05093 100 9.048Z" fill="white"/>
<path d="M52.2727 63.336C52.2727 66.2509 49.2201 68.614 45.4545 68.614C41.689 68.614 38.6364 66.2509 38.6364 63.336C38.6364 60.421 41.689 58.058 45.4545 58.058C49.2201 58.058 52.2727 60.421 52.2727 63.336Z" fill="#FA482C"/>
<path d="M52.6699 47.4587C52.8689 46.6497 53.6892 46.1546 54.502 46.3527L63.3319 48.5051C64.1447 48.7033 64.6422 49.5197 64.4431 50.3286C64.244 51.1375 63.4238 51.6327 62.611 51.4346L53.7811 49.2821C52.9683 49.084 52.4708 48.2676 52.6699 47.4587Z" fill="white"/>
<path d="M75.7576 62.582C75.7576 65.0805 71.6874 67.106 66.6667 67.106C61.6459 67.106 57.5758 65.0805 57.5758 62.582C57.5758 60.0834 61.6459 58.058 66.6667 58.058C71.6874 58.058 75.7576 60.0834 75.7576 62.582Z" fill="url(#paint0_radial_326_1696)"/>
<path d="M33.3333 62.582C33.3333 65.0805 29.2632 67.106 24.2424 67.106C19.2217 67.106 15.1515 65.0805 15.1515 62.582C15.1515 60.0834 19.2217 58.058 24.2424 58.058C29.2632 58.058 33.3333 60.0834 33.3333 62.582Z" fill="url(#paint1_radial_326_1696)"/>
<path d="M58.3333 54.288C58.3333 55.9537 56.9766 57.304 55.303 57.304C53.6294 57.304 52.2727 55.9537 52.2727 54.288C52.2727 52.6223 53.6294 51.272 55.303 51.272C56.9766 51.272 58.3333 52.6223 58.3333 54.288Z" fill="#0C0C0C"/>
<path d="M38.6054 47.4587C38.4064 46.6497 37.5861 46.1546 36.7733 46.3527L27.9434 48.5051C27.1306 48.7033 26.6331 49.5197 26.8322 50.3286C27.0313 51.1375 27.8515 51.6327 28.6643 51.4346L37.4942 49.2821C38.307 49.084 38.8045 48.2676 38.6054 47.4587Z" fill="white"/>
<path d="M32.942 54.288C32.942 55.9537 34.2987 57.304 35.9723 57.304C37.6459 57.304 39.0026 55.9537 39.0026 54.288C39.0026 52.6223 37.6459 51.272 35.9723 51.272C34.2987 51.272 32.942 52.6223 32.942 54.288Z" fill="#0C0C0C"/>
<path fill-rule="evenodd" clip-rule="evenodd" d="M41.6667 71.253C42.2943 71.253 42.803 71.7593 42.803 72.384C42.803 73.2026 43.7404 74.269 45.4545 74.269C47.1687 74.269 48.1061 73.2026 48.1061 72.384C48.1061 71.7593 48.6148 71.253 49.2424 71.253C49.87 71.253 50.3788 71.7593 50.3788 72.384C50.3788 74.8968 47.9244 76.531 45.4545 76.531C42.9847 76.531 40.5303 74.8968 40.5303 72.384C40.5303 71.7593 41.0391 71.253 41.6667 71.253Z" fill="black"/>
<defs>
<radialGradient id="paint0_radial_326_1696" cx="0" cy="0" r="1" gradientUnits="userSpaceOnUse" gradientTransform="translate(50 56) rotate(90) scale(56 50)">
<stop stop-color="#FF418A" stop-opacity="0.3"/>
<stop offset="0.495" stop-color="#FF418A" stop-opacity="0.15"/>
<stop offset="0.795" stop-color="#FF418A" stop-opacity="0.05"/>
<stop offset="1" stop-color="#FF418A" stop-opacity="0"/>
</radialGradient>
<radialGradient id="paint1_radial_326_1696" cx="0" cy="0" r="1" gradientUnits="userSpaceOnUse" gradientTransform="translate(50 56) rotate(90) scale(56 50)">
<stop stop-color="#FF418A" stop-opacity="0.3"/>
<stop offset="0.495" stop-color="#FF418A" stop-opacity="0.15"/>
<stop offset="0.795" stop-color="#FF418A" stop-opacity="0.05"/>
<stop offset="1" stop-color="#FF418A" stop-opacity="0"/>
</radialGradient>
</defs>
</svg>
