<svg width="80" height="112" viewBox="0 0 80 112" fill="none" xmlns="http://www.w3.org/2000/svg">
<path d="M78.5698 74.5071C78.5698 95.2795 61.8189 110.842 41.1556 110.842C20.4923 110.842 3.74142 95.2795 3.74142 74.5071C3.74142 53.7347 20.4923 36.8954 41.1556 36.8954C61.8189 36.8954 78.5698 53.7347 78.5698 74.5071Z" fill="white"/>
<path d="M63.6041 21.4924C63.6041 33.3624 53.5536 42.9849 41.1556 42.9849C28.7576 42.9849 18.7071 33.3624 18.7071 21.4924C18.7071 9.62249 28.7576 0 41.1556 0C53.5536 0 63.6041 9.62249 63.6041 21.4924Z" fill="white"/>
<path d="M0.595567 82.5477C-3.5168 65.0322 14.6792 44.793 24.1354 36.8954L37.4142 43.252C25.3425 51.1112 21.1174 74.6501 20.5138 85.4371C20.1905 91.2159 16.2887 95.261 14.478 91.7938C11.0979 86.2461 11.4601 86.015 7.23496 85.4371C1.92342 84.9748 0.866921 83.7035 0.595567 82.5477Z" fill="#D63378"/>
<path d="M19.4554 37.2536C19.4554 34.4839 21.8005 32.2387 24.6934 32.2387H57.6179C60.5107 32.2387 62.8559 34.4839 62.8559 37.2536V41.552C62.8559 44.3217 60.5107 46.567 57.6179 46.567H24.6934C21.8005 46.567 19.4554 44.3217 19.4554 41.552V37.2536Z" fill="#EA4389"/>
<path d="M49.3867 15.0447C49.3867 16.2317 48.3817 17.194 47.1419 17.194C45.9021 17.194 44.897 16.2317 44.897 15.0447C44.897 13.8577 45.9021 12.8955 47.1419 12.8955C48.3817 12.8955 49.3867 13.8577 49.3867 15.0447Z" fill="#0C0C0C"/>
<path d="M44.5229 61.6117C44.5229 63.3922 43.0153 64.8355 41.1556 64.8355C39.2959 64.8355 37.7883 63.3922 37.7883 61.6117C37.7883 59.8312 39.2959 58.3878 41.1556 58.3878C43.0153 58.3878 44.5229 59.8312 44.5229 61.6117Z" fill="#0C0C0C"/>
<path d="M44.5229 74.5071C44.5229 76.2876 43.0153 77.731 41.1556 77.731C39.2959 77.731 37.7883 76.2876 37.7883 74.5071C37.7883 72.7266 39.2959 71.2833 41.1556 71.2833C43.0153 71.2833 44.5229 72.7266 44.5229 74.5071Z" fill="#0C0C0C"/>
<path d="M44.5229 87.4026C44.5229 89.1831 43.0153 90.6264 41.1556 90.6264C39.2959 90.6264 37.7883 89.1831 37.7883 87.4026C37.7883 85.6221 39.2959 84.1787 41.1556 84.1787C43.0153 84.1787 44.5229 85.6221 44.5229 87.4026Z" fill="#0C0C0C"/>
<path d="M37.4142 15.0447C37.4142 16.2317 36.4091 17.194 35.1693 17.194C33.9296 17.194 32.9245 16.2317 32.9245 15.0447C32.9245 13.8577 33.9296 12.8955 35.1693 12.8955C36.4091 12.8955 37.4142 13.8577 37.4142 15.0447Z" fill="#0C0C0C"/>
<path d="M56.4954 21.8506C56.4954 24.0268 44.297 25.7909 41.9813 25.7909C39.6656 25.7909 37.7883 24.0268 37.7883 21.8506C37.7883 19.6745 39.6656 17.9104 41.9813 17.9104C44.297 17.9104 56.4954 19.6745 56.4954 21.8506Z" fill="#FF5200"/>
<path d="M23.5858 111.988L66.959 110.998C76.4756 109.85 78.966 106.815 79.4942 105.243C82.3006 96.8933 72.7446 92.8341 67.6391 97.8033C62.2117 103.086 58.7799 105.075 53.5145 100.664C44.8222 93.3827 35.9298 97.9837 32.496 100.115C23.8564 105.476 18.0895 101.853 16.2859 99.3707C6.70613 87.8608 2.00965 103.511 6.52928 107.875C10.221 111.441 19.4385 112.103 23.5858 111.988Z" fill="#E2CCB3"/>
</svg>
