<svg width="239" height="142" viewBox="0 0 239 142" fill="none" xmlns="http://www.w3.org/2000/svg">
<path d="M154.57 104.507C154.57 125.28 137.819 140.842 117.156 140.842C96.4923 140.842 79.7414 125.28 79.7414 104.507C79.7414 83.7347 96.4923 66.8954 117.156 66.8954C137.819 66.8954 154.57 83.7347 154.57 104.507Z" fill="white"/>
<path d="M139.604 51.4924C139.604 63.3624 129.554 72.9849 117.156 72.9849C104.758 72.9849 94.7071 63.3624 94.7071 51.4924C94.7071 39.6225 104.758 30 117.156 30C129.554 30 139.604 39.6225 139.604 51.4924Z" fill="white"/>
<path d="M76.5956 112.548C72.4832 95.0322 90.6792 74.793 100.135 66.8954L113.414 73.252C101.343 81.1112 97.1174 104.65 96.5138 115.437C96.1905 121.216 92.2887 125.261 90.478 121.794C87.0979 116.246 87.4601 116.015 83.235 115.437C77.9234 114.975 76.8669 113.703 76.5956 112.548Z" fill="#D63378"/>
<path d="M95.4554 67.2536C95.4554 64.4839 97.8005 62.2387 100.693 62.2387H133.618C136.511 62.2387 138.856 64.4839 138.856 67.2536V71.552C138.856 74.3217 136.511 76.567 133.618 76.567H100.693C97.8005 76.567 95.4554 74.3217 95.4554 71.552V67.2536Z" fill="#EA4389"/>
<path d="M125.387 45.0447C125.387 46.2317 124.382 47.194 123.142 47.194C121.902 47.194 120.897 46.2317 120.897 45.0447C120.897 43.8577 121.902 42.8955 123.142 42.8955C124.382 42.8955 125.387 43.8577 125.387 45.0447Z" fill="#0C0C0C"/>
<path d="M120.523 91.6117C120.523 93.3922 119.015 94.8355 117.156 94.8355C115.296 94.8355 113.788 93.3922 113.788 91.6117C113.788 89.8312 115.296 88.3878 117.156 88.3878C119.015 88.3878 120.523 89.8312 120.523 91.6117Z" fill="#0C0C0C"/>
<path d="M120.523 104.507C120.523 106.288 119.015 107.731 117.156 107.731C115.296 107.731 113.788 106.288 113.788 104.507C113.788 102.727 115.296 101.283 117.156 101.283C119.015 101.283 120.523 102.727 120.523 104.507Z" fill="#0C0C0C"/>
<path d="M120.523 117.403C120.523 119.183 119.015 120.626 117.156 120.626C115.296 120.626 113.788 119.183 113.788 117.403C113.788 115.622 115.296 114.179 117.156 114.179C119.015 114.179 120.523 115.622 120.523 117.403Z" fill="#0C0C0C"/>
<path d="M113.414 45.0447C113.414 46.2317 112.409 47.194 111.169 47.194C109.93 47.194 108.924 46.2317 108.924 45.0447C108.924 43.8577 109.93 42.8955 111.169 42.8955C112.409 42.8955 113.414 43.8577 113.414 45.0447Z" fill="#0C0C0C"/>
<path d="M132.495 51.8506C132.495 54.0268 120.297 55.7909 117.981 55.7909C115.666 55.7909 113.788 54.0268 113.788 51.8506C113.788 49.6745 115.666 47.9104 117.981 47.9104C120.297 47.9104 132.495 49.6745 132.495 51.8506Z" fill="#FF5200"/>
<path d="M99.5858 141.988L142.959 140.998C152.476 139.85 154.966 136.815 155.494 135.243C158.301 126.893 148.745 122.834 143.639 127.803C138.212 133.086 134.78 135.075 129.514 130.664C120.822 123.383 111.93 127.984 108.496 130.115C99.8564 135.476 94.0895 131.853 92.2859 129.371C82.7061 117.861 78.0096 133.511 82.5293 137.875C86.221 141.441 95.4385 142.103 99.5858 141.988Z" fill="#E2CCB3"/>
<path d="M10.0575 105.529C11.023 98.7626 3.75479 94.1176 0 92.6409C9.01149 92.9631 12.8736 89.2847 13.6782 87.4052C15.2874 91.5937 22.931 90.4929 26.5517 89.4189C27.5172 101.018 39.2912 99.8903 45.0575 97.8765C44.092 101.421 47.069 104.455 48.6782 105.529L46.2644 110.764C42.7241 110.442 41.0345 114.121 40.6322 116C38.0575 111.811 30.1724 112.107 26.5517 112.778C22.046 100.212 13.6782 102.709 10.0575 105.529Z" fill="#103C1E"/>
<path fill-rule="evenodd" clip-rule="evenodd" d="M12.5457 95.1217C12.7324 94.718 13.2106 94.5422 13.6139 94.7291C14.7342 95.2484 16.0118 95.8677 17.4188 96.5497C20.617 98.1001 24.4839 99.9745 28.6923 101.735C34.7426 104.265 41.395 106.512 47.5534 107.144C47.9954 107.189 48.317 107.585 48.2717 108.027C48.2263 108.47 47.8312 108.792 47.3892 108.746C40.9958 108.09 34.1712 105.772 28.072 103.221C23.8223 101.444 19.8742 99.5301 16.6615 97.9729C15.2707 97.2988 14.0178 96.6915 12.9378 96.191C12.5346 96.0041 12.359 95.5254 12.5457 95.1217Z" fill="#086030"/>
<path d="M37.7444 60.378C44.3262 58.5618 45.677 50.0359 45.5296 46C48.8338 54.3994 53.7448 56.4748 55.7873 56.4626C52.5943 59.6124 56.6553 66.188 59.0849 69.0821C48.8486 74.6009 54.5838 84.9565 58.7309 89.4445C55.0997 89.9738 53.5103 93.9179 53.1695 95.8237L47.4108 95.6995C46.2919 92.3216 42.2485 92.24 40.3666 92.6215C43.174 88.5855 39.7543 81.4666 37.6935 78.4117C47.401 69.2577 41.7722 62.5751 37.7444 60.378Z" fill="#103C1E"/>
<path fill-rule="evenodd" clip-rule="evenodd" d="M48.2941 58.0051C48.7384 58.0152 49.0903 58.3839 49.0802 58.8287C49.0411 60.5549 48.9192 62.489 48.7875 64.5784C48.2985 72.3395 47.6745 82.2432 50.6516 91.5907C50.7866 92.0145 50.5528 92.4677 50.1295 92.6028C49.7061 92.7379 49.2535 92.5039 49.1185 92.0801C46.038 82.4079 46.6938 72.0809 47.1873 64.3119C47.3165 62.2773 47.4346 60.4181 47.4715 58.7921C47.4816 58.3473 47.8499 57.995 48.2941 58.0051Z" fill="#086030"/>
<path d="M59.5402 95.4601C59.5402 99.0189 56.6584 101.904 53.1034 101.904C49.5485 101.904 46.6667 99.0189 46.6667 95.4601C46.6667 91.9012 49.5485 89.0162 53.1034 89.0162C56.6584 89.0162 59.5402 91.9012 59.5402 95.4601Z" fill="#DC432C"/>
<path d="M57.1264 109.153C57.1264 112.712 54.2446 115.597 50.6897 115.597C47.1347 115.597 44.2529 112.712 44.2529 109.153C44.2529 105.594 47.1347 102.709 50.6897 102.709C54.2446 102.709 57.1264 105.594 57.1264 109.153Z" fill="#DC432C"/>
<path d="M70 105.126C70 108.685 67.1182 111.57 63.5632 111.57C60.0083 111.57 57.1264 108.685 57.1264 105.126C57.1264 101.567 60.0083 98.682 63.5632 98.682C67.1182 98.682 70 101.567 70 105.126Z" fill="#DC432C"/>
<line x1="189" y1="4.37115e-08" x2="189" y2="32" stroke="#8BBE9B" stroke-width="2"/>
<line x1="224" y1="4.37115e-08" x2="224" y2="50" stroke="#8BBE9B" stroke-width="2"/>
<path d="M204 49.5C204 57.7843 197.284 64.5 189 64.5C180.716 64.5 174 57.7843 174 49.5C174 41.2157 180.716 34.5 189 34.5C197.284 34.5 204 41.2157 204 49.5Z" fill="#00A987"/>
<path fill-rule="evenodd" clip-rule="evenodd" d="M203.111 54.6C203.686 53.0079 204 51.2906 204 49.5C204 47.7094 203.686 45.9921 203.111 44.4H174.889C174.314 45.9921 174 47.7094 174 49.5C174 51.2906 174.314 53.0079 174.889 54.6H203.111Z" fill="#96C5FF"/>
<path fill-rule="evenodd" clip-rule="evenodd" d="M198.4 44.3086L203.49 53.176C203.614 53.3915 203.54 53.6665 203.324 53.7903C203.108 53.914 202.833 53.8396 202.71 53.624L198.5 46.2914L194.786 54.611L188.914 46.1789L184.709 54.5883L179.009 46.1883L175.302 53.6012C175.191 53.8235 174.921 53.9136 174.699 53.8025C174.476 53.6913 174.386 53.421 174.498 53.1988L178.891 44.4117L184.591 52.8117L188.786 44.4211L194.614 52.789L198.4 44.3086Z" fill="#DCECFF"/>
<path d="M183.6 31.2C183.6 30.5373 184.137 30 184.8 30H193.2C193.863 30 194.4 30.5373 194.4 31.2V35.1C194.4 35.7627 193.863 36.3 193.2 36.3H184.8C184.137 36.3 183.6 35.7627 183.6 35.1V31.2Z" fill="#0067FF"/>
<path d="M239 67.5C239 75.7843 232.284 82.5 224 82.5C215.716 82.5 209 75.7843 209 67.5C209 59.2157 215.716 52.5 224 52.5C232.284 52.5 239 59.2157 239 67.5Z" fill="#E5BA08"/>
<path d="M218.6 49.2C218.6 48.5373 219.137 48 219.8 48H228.2C228.863 48 229.4 48.5373 229.4 49.2V53.1C229.4 53.7627 228.863 54.3 228.2 54.3H219.8C219.137 54.3 218.6 53.7627 218.6 53.1V49.2Z" fill="#E54850"/>
<mask id="mask0_326_2592" style="mask-type:alpha" maskUnits="userSpaceOnUse" x="209" y="52" width="30" height="31">
<path d="M239 67.5C239 75.7843 232.284 82.5 224 82.5C215.716 82.5 209 75.7843 209 67.5C209 59.2157 215.716 52.5 224 52.5C232.284 52.5 239 59.2157 239 67.5Z" fill="#E5BA08"/>
</mask>
<g mask="url(#mask0_326_2592)">
<path fill-rule="evenodd" clip-rule="evenodd" d="M208.55 61.5C208.55 61.2515 208.751 61.05 209 61.05L239 61.0501C239.248 61.0501 239.45 61.2515 239.45 61.5001C239.45 61.7486 239.248 61.9501 239 61.9501L209 61.95C208.751 61.95 208.55 61.7486 208.55 61.5Z" fill="white"/>
<path fill-rule="evenodd" clip-rule="evenodd" d="M208.55 73.5C208.55 73.2515 208.751 73.05 209 73.05L239 73.0501C239.248 73.0501 239.45 73.2515 239.45 73.5001C239.45 73.7486 239.248 73.9501 239 73.9501L209 73.95C208.751 73.95 208.55 73.7486 208.55 73.5Z" fill="white"/>
</g>
<path d="M211.655 66.9619C214.621 66.4185 214.877 64.6012 214.634 63.7605C215.715 67.5077 217.496 68.2689 218.251 68.181C214.986 68.8353 214.187 70.5251 214.178 71.4709C214.183 71.5442 214.187 71.6187 214.191 71.6943C214.182 71.6259 214.177 71.5511 214.178 71.4709C213.916 67.6668 212.396 66.8757 211.655 66.9619Z" fill="white"/>
<path d="M220.724 66.9619C223.689 66.4185 223.946 64.6012 223.703 63.7605C224.784 67.5077 226.565 68.2689 227.32 68.181C224.055 68.8353 223.255 70.5251 223.246 71.4709C223.251 71.5442 223.256 71.6187 223.26 71.6943C223.251 71.6259 223.246 71.5511 223.246 71.4709C222.985 67.6668 221.465 66.8757 220.724 66.9619Z" fill="white"/>
<path d="M229.724 66.9619C232.689 66.4185 232.946 64.6012 232.703 63.7605C233.784 67.5077 235.565 68.2689 236.32 68.181C233.055 68.8353 232.255 70.5251 232.246 71.4709C232.251 71.5442 232.256 71.6187 232.26 71.6943C232.251 71.6259 232.246 71.5511 232.246 71.4709C231.985 67.6668 230.465 66.8757 229.724 66.9619Z" fill="white"/>
</svg>
