<svg width="24" height="24" viewBox="0 0 24 24" fill="none" xmlns="http://www.w3.org/2000/svg">
<path fill-rule="evenodd" clip-rule="evenodd" d="M9.27273 1C8.77065 1 8.36364 1.40701 8.36364 1.90909V2.81818H2.90909C2.40701 2.81818 2 3.2252 2 3.72727V4.63636C2 5.13844 2.40701 5.54545 2.90909 5.54545H3.81818L4.81818 21.9091C4.81818 22.4112 5.2252 22.8182 5.72727 22.8182H18.2727C18.7748 22.8182 19.1818 22.4112 19.1818 21.9091L20.1818 5.54545H21.0909C21.593 5.54545 22 5.13844 22 4.63636V3.72727C22 3.2252 21.593 2.81818 21.0909 2.81818H15.6364V1.90909C15.6364 1.40701 15.2293 1 14.7273 1H9.27273ZM9.27273 9.18182C9.77481 9.18182 10.1818 9.58883 10.1818 10.0909V17.3636C10.1818 17.8657 9.7748 18.2727 9.27273 18.2727C8.77065 18.2727 8.36364 17.8657 8.36364 17.3636L8.36364 10.0909C8.36364 9.58883 8.77065 9.18182 9.27273 9.18182ZM15.6364 10.0909C15.6364 9.58883 15.2294 9.18182 14.7273 9.18182C14.2252 9.18182 13.8182 9.58883 13.8182 10.0909V17.3636C13.8182 17.8657 14.2252 18.2727 14.7273 18.2727C15.2293 18.2727 15.6364 17.8657 15.6364 17.3636V10.0909Z" fill="white"/>
</svg>
