<svg width="37" height="38" viewBox="0 0 37 38" fill="none" xmlns="http://www.w3.org/2000/svg">
<path fill-rule="evenodd" clip-rule="evenodd" d="M9.18919 1.08108C9.18919 0.484016 9.67321 0 10.2703 0C10.8673 0 11.3514 0.484016 11.3514 1.08108C11.3514 1.58482 11.0068 2.00809 10.5405 2.1281V8.96505L10.5463 8.96713L11.2433 8.27021V6.91891H11.7838V7.72967L12.8649 6.64859V4.75675H13.4054V6.10805L15.1351 4.37835V3.4054H15.6757V4.21621H16.4865V4.75675H15.5212L13.6293 6.64864H15.2973V7.18918H13.0887L12.0077 8.27026H13.1352V8.8108H11.4671L10.9656 9.31237C10.9934 9.3586 11.0167 9.40783 11.0349 9.45946H17.8719C17.9919 8.99318 18.4152 8.64865 18.9189 8.64865C19.516 8.64865 20 9.13267 20 9.72973C20 10.3268 19.516 10.8108 18.9189 10.8108C18.4152 10.8108 17.9919 10.4663 17.8719 10H11.0349C11.0123 10.0641 10.9818 10.1246 10.9446 10.1802L12.0076 11.2432H13.5135V11.7838H12.5482L13.6292 12.8649H15.6757V13.4054H14.1698L15.5211 14.7567H16.4865V15.2973H15.744L15.6757 15.3656V16.1081H15.1351V15.1352L13.7838 13.7838V15.2973H13.2432V13.2433L12.1622 12.1622V13.1351H11.6216V11.6217L10.5405 10.5406V17.8719C11.0068 17.9919 11.3514 18.4152 11.3514 18.9189C11.3514 19.516 10.8673 20 10.2703 20C9.67321 20 9.18919 19.516 9.18919 18.9189C9.18919 18.4152 9.53372 17.9919 10 17.8719V10.4944C9.94837 10.4762 9.89914 10.4528 9.85291 10.425L8.10811 12.1698V13.6757H7.56757V12.7104L6.48649 13.7914L6.48649 15.8378H5.94595V14.332L4.59459 15.6833V16.6486H4.05405V15.9062L3.98572 15.8378H3.24324L3.24324 15.2973H4.21619L5.56754 13.9459H4.05405V13.4054H6.10808L7.18917 12.3243H6.21622V11.7838H7.72971L9.50767 10.0058L9.5056 10H2.1281C2.00809 10.4663 1.58482 10.8108 1.08108 10.8108C0.484016 10.8108 0 10.3268 0 9.72973C0 9.13267 0.484016 8.64865 1.08108 8.64865C1.58482 8.64865 2.00809 8.99318 2.1281 9.45946H9.45941L8.10806 8.10811H6.75676V7.56757H7.56752L6.48644 6.48649H4.59459V5.94595H5.9459L4.21616 4.21621H3.24324V3.67567H4.05405V2.86486H4.59459V3.8302L6.48649 5.7221V4.05405H7.02703V6.26264L8.10811 7.34372V6.21622H8.64865V7.88426L9.81984 9.05544C9.87542 9.01824 9.93586 8.98773 10 8.96506V2.1281C9.53372 2.00809 9.18919 1.58482 9.18919 1.08108ZM10.2703 0.540541C9.97174 0.540541 9.72973 0.782549 9.72973 1.08108C9.72973 1.37961 9.97174 1.62162 10.2703 1.62162C10.5688 1.62162 10.8108 1.37961 10.8108 1.08108C10.8108 0.782549 10.5688 0.540541 10.2703 0.540541ZM1.08108 9.18919C0.782549 9.18919 0.540541 9.4312 0.540541 9.72973C0.540541 10.0283 0.782549 10.2703 1.08108 10.2703C1.37961 10.2703 1.62162 10.0283 1.62162 9.72973C1.62162 9.4312 1.37961 9.18919 1.08108 9.18919ZM18.3784 9.72973C18.3784 9.4312 18.6204 9.18919 18.9189 9.18919C19.2175 9.18919 19.4595 9.4312 19.4595 9.72973C19.4595 10.0283 19.2175 10.2703 18.9189 10.2703C18.6204 10.2703 18.3784 10.0283 18.3784 9.72973ZM9.72973 18.9189C9.72973 18.6204 9.97174 18.3784 10.2703 18.3784C10.5688 18.3784 10.8108 18.6204 10.8108 18.9189C10.8108 19.2175 10.5688 19.4595 10.2703 19.4595C9.97174 19.4595 9.72973 19.2175 9.72973 18.9189Z" fill="white"/>
<path d="M31 32.3659V38H31.4V32.4L35.0853 36.0853L35.3681 35.8024L31.699 32.1333C31.7265 32.0922 31.7491 32.0475 31.7659 32H37V31.6H31.7659C31.7491 31.5525 31.7265 31.5078 31.699 31.4667L35.2828 27.8828L35 27.6L31.4 31.2V26H31V31.2341C30.9525 31.2509 30.9078 31.2735 30.8667 31.301L26.8828 27.3172L26.6 27.6L30.6 31.6H25V32H30.6L26.5147 36.0853L26.7975 36.3681L30.8667 32.299C30.9078 32.3265 30.9525 32.3491 31 32.3659Z" fill="white"/>
</svg>
