<svg width="30" height="30" viewBox="0 0 30 30" fill="none" xmlns="http://www.w3.org/2000/svg">
<path d="M15 15.9146V30H16V16.0001L25.2131 25.2132L25.9202 24.5061L16.7474 15.3333C16.8163 15.2305 16.8727 15.1187 16.9146 15H30V14H16.9146C16.8727 13.8813 16.8163 13.7695 16.7474 13.6667L25.707 4.70711L24.9999 4L16 12.9999V0H15V13.0854C14.8813 13.1273 14.7695 13.1837 14.6667 13.2526L4.70703 3.29289L3.99992 4L13.9999 14H0V15H13.9999L3.78672 25.2132L4.49383 25.9203L14.6667 15.7474C14.7695 15.8163 14.8813 15.8727 15 15.9146Z" fill="white"/>
</svg>
