<svg width="30" height="30" viewBox="0 0 30 30" fill="none" xmlns="http://www.w3.org/2000/svg">
<path fill-rule="evenodd" clip-rule="evenodd" d="M13.7838 1.62162C13.7838 0.726025 14.5098 0 15.4054 0C16.301 0 17.027 0.726025 17.027 1.62162C17.027 2.37723 16.5102 3.01214 15.8108 3.19216V13.4476L15.8195 13.4507L16.8649 12.4053V10.3784H17.6757V11.5945L19.2973 9.97289V7.13513H20.1081V9.16208L22.7027 6.56752V5.1081H23.5135V6.32431H24.7297V7.13513H23.2818L20.4439 9.97296H22.946V10.7838H19.6331L18.0115 12.4054H19.7027V13.2162H17.2007L16.4483 13.9686C16.49 14.0379 16.525 14.1117 16.5524 14.1892H26.8078C26.9879 13.4898 27.6228 12.973 28.3784 12.973C29.274 12.973 30 13.699 30 14.5946C30 15.4902 29.274 16.2162 28.3784 16.2162C27.6228 16.2162 26.9879 15.6994 26.8078 15H16.5524C16.5184 15.0962 16.4726 15.1869 16.4168 15.2702L18.0114 16.8649H20.2703V17.6757H18.8223L20.4439 19.2973H23.5135V20.1081H21.2547L23.2817 22.1351H24.7297V22.9459H23.616L23.5135 23.0484V24.1622H22.7027V22.7028L20.6757 20.6757V22.9459H19.8649V19.8649L18.2432 18.2433V19.7027H17.4324V17.4325L15.8108 15.8109V26.8078C16.5102 26.9879 17.027 27.6228 17.027 28.3784C17.027 29.274 16.301 30 15.4054 30C14.5098 30 13.7838 29.274 13.7838 28.3784C13.7838 27.6228 14.3006 26.9879 15 26.8078V15.7416C14.9226 15.7142 14.8487 15.6792 14.7794 15.6375L12.1622 18.2547V20.5135H11.3514V19.0655L9.72973 20.6872L9.72973 23.7567H8.91892V21.498L6.89189 23.525V24.973H6.08108V23.8592L5.97858 23.7567H4.86486L4.86487 22.9459H6.32429L8.35132 20.9189H6.08108V20.1081H9.16213L10.7837 18.4865H9.32432V17.6757H11.5946L14.2615 15.0087L14.2584 15H3.19216C3.01214 15.6994 2.37723 16.2162 1.62162 16.2162C0.726025 16.2162 0 15.4902 0 14.5946C0 13.699 0.726025 12.973 1.62162 12.973C2.37723 12.973 3.01214 13.4898 3.19216 14.1892H14.1891L12.1621 12.1622H10.1351V11.3514H11.3513L9.72966 9.72973H6.89189V8.91892H8.91885L6.32424 6.32431H4.86486V5.5135H6.08108V4.29729H6.89189V5.74531L9.72973 8.58314V6.08108H10.5405V9.39395L12.1622 11.0156V9.32432H12.973V11.8264L14.7298 13.5832C14.8131 13.5274 14.9038 13.4816 15 13.4476V3.19216C14.3006 3.01214 13.7838 2.37723 13.7838 1.62162ZM15.4054 0.810811C14.9576 0.810811 14.5946 1.17382 14.5946 1.62162C14.5946 2.06942 14.9576 2.43243 15.4054 2.43243C15.8532 2.43243 16.2162 2.06942 16.2162 1.62162C16.2162 1.17382 15.8532 0.810811 15.4054 0.810811ZM1.62162 13.7838C1.17382 13.7838 0.810811 14.1468 0.810811 14.5946C0.810811 15.0424 1.17382 15.4054 1.62162 15.4054C2.06942 15.4054 2.43243 15.0424 2.43243 14.5946C2.43243 14.1468 2.06942 13.7838 1.62162 13.7838ZM27.5676 14.5946C27.5676 14.1468 27.9306 13.7838 28.3784 13.7838C28.8262 13.7838 29.1892 14.1468 29.1892 14.5946C29.1892 15.0424 28.8262 15.4054 28.3784 15.4054C27.9306 15.4054 27.5676 15.0424 27.5676 14.5946ZM14.5946 28.3784C14.5946 27.9306 14.9576 27.5676 15.4054 27.5676C15.8532 27.5676 16.2162 27.9306 16.2162 28.3784C16.2162 28.8262 15.8532 29.1892 15.4054 29.1892C14.9576 29.1892 14.5946 28.8262 14.5946 28.3784Z" fill="white"/>
</svg>
