<svg width="24" height="24" viewBox="0 0 24 24" fill="none" xmlns="http://www.w3.org/2000/svg">
<g clip-path="url(#clip0_95_1726)">
<path d="M4.5 0H0V4.5C0 5.05228 0.447715 5.5 1 5.5C1.55228 5.5 2 5.05228 2 4.5V2H4.5C5.05228 2 5.5 1.55228 5.5 1C5.5 0.447715 5.05228 0 4.5 0Z" fill="white"/>
<path d="M19.5 0H24V4.5C24 5.05228 23.5523 5.5 23 5.5C22.4477 5.5 22 5.05228 22 4.5V2H19.5C18.9477 2 18.5 1.55228 18.5 1C18.5 0.447715 18.9477 0 19.5 0Z" fill="white"/>
<path d="M24 24H19.5C18.9477 24 18.5 23.5523 18.5 23C18.5 22.4477 18.9477 22 19.5 22H22V19.5C22 18.9477 22.4477 18.5 23 18.5C23.5523 18.5 24 18.9477 24 19.5V24Z" fill="white"/>
<path d="M4.5 24H0V19.5C0 18.9477 0.447715 18.5 1 18.5C1.55228 18.5 2 18.9477 2 19.5L2 22H4.5C5.05228 22 5.5 22.4477 5.5 23C5.5 23.5523 5.05228 24 4.5 24Z" fill="white"/>
<path fill-rule="evenodd" clip-rule="evenodd" d="M15.6064 14.1922C16.4816 13.0236 17 11.5723 17 10C17 6.13401 13.866 3 10 3C6.13401 3 3 6.13401 3 10C3 13.866 6.13401 17 10 17C11.5723 17 13.0236 16.4816 14.1922 15.6064L18.2929 19.7071C18.6834 20.0976 19.3166 20.0976 19.7071 19.7071C20.0976 19.3166 20.0976 18.6834 19.7071 18.2929L15.6064 14.1922ZM10 15C12.7614 15 15 12.7614 15 10C15 7.23858 12.7614 5 10 5C7.23858 5 5 7.23858 5 10C5 12.7614 7.23858 15 10 15Z" fill="white"/>
</g>
<defs>
<clipPath id="clip0_95_1726">
<rect width="24" height="24" fill="white"/>
</clipPath>
</defs>
</svg>
